G04 MADE WITH FRITZING*
G04 WWW.FRITZING.ORG*
G04 DOUBLE SIDED*
G04 HOLES PLATED*
G04 CONTOUR ON CENTER OF CONTOUR VECTOR*
%ASAXBY*%
%FSLAX23Y23*%
%MOIN*%
%OFA0B0*%
%SFA1.0B1.0*%
%ADD10C,0.050000*%
%ADD11C,0.140000*%
%ADD12C,0.073667*%
%ADD13C,0.077119*%
%ADD14C,0.075000*%
%ADD15C,0.057000*%
%ADD16C,0.047559*%
%ADD17C,0.064000*%
%ADD18C,0.062992*%
%ADD19C,0.137795*%
%ADD20C,0.078000*%
%ADD21C,0.060000*%
%ADD22C,0.082000*%
%ADD23C,0.070000*%
%ADD24C,0.070925*%
%ADD25C,0.070866*%
%ADD26R,0.075000X0.075000*%
%ADD27R,0.062992X0.062992*%
%ADD28R,0.137795X0.137795*%
%ADD29R,0.001000X0.001000*%
%LNCOPPER1*%
G90*
G70*
G54D10*
X3145Y3330D03*
X3145Y3232D03*
X3224Y3232D03*
X3066Y3232D03*
X3066Y3330D03*
X3224Y3330D03*
X3145Y3330D03*
X3145Y3232D03*
X3224Y3232D03*
X3066Y3232D03*
X3066Y3330D03*
X3224Y3330D03*
G54D11*
X3586Y3346D03*
X3826Y3346D03*
X3706Y3536D03*
G54D12*
X2161Y1527D03*
X2061Y1527D03*
X2161Y1627D03*
X2061Y1627D03*
X2161Y1727D03*
X2061Y1727D03*
X2161Y1827D03*
X2061Y1827D03*
X2161Y1927D03*
X2061Y1927D03*
G54D13*
X806Y2231D03*
X806Y2126D03*
X806Y2022D03*
X806Y1918D03*
X806Y1814D03*
X806Y1710D03*
X1617Y2126D03*
X1617Y2022D03*
X1617Y1918D03*
X1617Y1814D03*
X1617Y1710D03*
X1617Y1605D03*
G54D14*
X3519Y708D03*
X3263Y708D03*
X3519Y885D03*
X3263Y885D03*
G54D15*
X4001Y1477D03*
X4001Y1556D03*
X4001Y1477D03*
X4001Y1556D03*
X911Y633D03*
X990Y633D03*
X911Y633D03*
X990Y633D03*
G54D16*
X1245Y626D03*
X1324Y626D03*
X1403Y626D03*
X1482Y626D03*
X1245Y626D03*
X1324Y626D03*
X1403Y626D03*
X1482Y626D03*
G54D17*
X4001Y2365D03*
X4001Y2444D03*
X4001Y2522D03*
X4001Y2365D03*
X4001Y2444D03*
X4001Y2522D03*
X576Y613D03*
X655Y613D03*
X734Y613D03*
X576Y613D03*
X655Y613D03*
X734Y613D03*
G54D14*
X3240Y2226D03*
X3440Y2226D03*
X599Y1233D03*
X399Y1233D03*
X2614Y3123D03*
X2414Y3123D03*
X3676Y2344D03*
X3676Y2044D03*
X2397Y1389D03*
X2397Y711D03*
G54D18*
X3893Y2088D03*
X3893Y1989D03*
G54D14*
X2670Y1871D03*
X2672Y1113D03*
X2831Y612D03*
X2531Y612D03*
X2831Y712D03*
X2531Y712D03*
X2831Y812D03*
X2531Y812D03*
X2831Y912D03*
X2531Y912D03*
X2831Y1012D03*
X2531Y1012D03*
X2831Y1112D03*
X2531Y1112D03*
X2831Y1212D03*
X2531Y1212D03*
X2831Y1312D03*
X2531Y1312D03*
X2831Y1412D03*
X2531Y1412D03*
X2831Y1512D03*
X2531Y1512D03*
X2831Y1612D03*
X2531Y1612D03*
X2831Y1712D03*
X2531Y1712D03*
X2831Y1812D03*
X2531Y1812D03*
X2831Y1912D03*
X2531Y1912D03*
X1946Y3037D03*
X1946Y2737D03*
X1846Y3037D03*
X1846Y2737D03*
X1746Y3037D03*
X1746Y2737D03*
X1646Y3037D03*
X1646Y2737D03*
X1546Y3037D03*
X1546Y2737D03*
X1446Y3037D03*
X1446Y2737D03*
X1346Y3037D03*
X1346Y2737D03*
X1246Y3037D03*
X1246Y2737D03*
G54D19*
X1587Y3563D03*
X1787Y3563D03*
G54D20*
X3007Y1678D03*
X3007Y1778D03*
X3046Y970D03*
X3046Y1070D03*
X2141Y2834D03*
X2141Y2934D03*
X3046Y715D03*
X3046Y815D03*
X602Y1812D03*
X602Y1912D03*
G54D21*
X3293Y2947D03*
X3293Y2847D03*
X3293Y2747D03*
X3293Y2947D03*
X3293Y2847D03*
X3293Y2747D03*
G54D22*
X3234Y3556D03*
X2434Y3556D03*
G54D14*
X2179Y613D03*
X1679Y613D03*
X2179Y731D03*
X1679Y731D03*
X4001Y1213D03*
X3901Y1213D03*
X3801Y1213D03*
X2726Y2531D03*
X2726Y2431D03*
X2726Y2331D03*
G54D23*
X3184Y2560D03*
X3084Y2560D03*
G54D14*
X2869Y2068D03*
X2869Y2468D03*
X2559Y2245D03*
X2559Y2645D03*
X3505Y1920D03*
X3105Y1920D03*
X2427Y2647D03*
X2427Y2247D03*
X3637Y1381D03*
X3637Y1781D03*
X2019Y2267D03*
X1619Y2267D03*
X3373Y552D03*
X3873Y552D03*
G54D23*
X3125Y1603D03*
X3125Y1503D03*
X2969Y1306D03*
X2969Y1206D03*
X3125Y1406D03*
X3125Y1306D03*
G54D24*
X3399Y1602D03*
G54D25*
X3399Y1409D03*
G54D14*
X2417Y3408D03*
X2717Y3408D03*
X1486Y1715D03*
X1386Y1715D03*
X1286Y1715D03*
X1846Y1335D03*
X1846Y1735D03*
G54D23*
X497Y918D03*
X397Y918D03*
X607Y1656D03*
X507Y1656D03*
G54D14*
X2062Y1113D03*
X2062Y1213D03*
G54D26*
X3240Y2226D03*
X599Y1233D03*
X2614Y3123D03*
G54D27*
X3893Y2088D03*
G54D26*
X2831Y612D03*
X1946Y3037D03*
G54D28*
X1587Y3563D03*
G54D26*
X2062Y1113D03*
G54D29*
X3259Y2978D02*
X3324Y2978D01*
X3254Y2977D02*
X3329Y2977D01*
X3251Y2976D02*
X3332Y2976D01*
X3249Y2975D02*
X3335Y2975D01*
X3247Y2974D02*
X3336Y2974D01*
X3245Y2973D02*
X3338Y2973D01*
X3244Y2972D02*
X3339Y2972D01*
X3243Y2971D02*
X3341Y2971D01*
X3242Y2970D02*
X3342Y2970D01*
X3241Y2969D02*
X3343Y2969D01*
X3240Y2968D02*
X3290Y2968D01*
X3294Y2968D02*
X3344Y2968D01*
X3239Y2967D02*
X3285Y2967D01*
X3299Y2967D02*
X3345Y2967D01*
X3238Y2966D02*
X3282Y2966D01*
X3301Y2966D02*
X3345Y2966D01*
X3237Y2965D02*
X3281Y2965D01*
X3303Y2965D02*
X3346Y2965D01*
X3237Y2964D02*
X3279Y2964D01*
X3304Y2964D02*
X3347Y2964D01*
X3236Y2963D02*
X3278Y2963D01*
X3306Y2963D02*
X3347Y2963D01*
X3236Y2962D02*
X3277Y2962D01*
X3307Y2962D02*
X3348Y2962D01*
X3235Y2961D02*
X3276Y2961D01*
X3307Y2961D02*
X3348Y2961D01*
X3235Y2960D02*
X3275Y2960D01*
X3308Y2960D02*
X3349Y2960D01*
X3234Y2959D02*
X3274Y2959D01*
X3309Y2959D02*
X3349Y2959D01*
X3234Y2958D02*
X3274Y2958D01*
X3310Y2958D02*
X3350Y2958D01*
X3234Y2957D02*
X3273Y2957D01*
X3310Y2957D02*
X3350Y2957D01*
X3233Y2956D02*
X3273Y2956D01*
X3311Y2956D02*
X3350Y2956D01*
X3233Y2955D02*
X3273Y2955D01*
X3311Y2955D02*
X3350Y2955D01*
X3233Y2954D02*
X3272Y2954D01*
X3311Y2954D02*
X3351Y2954D01*
X3233Y2953D02*
X3272Y2953D01*
X3312Y2953D02*
X3351Y2953D01*
X3233Y2952D02*
X3272Y2952D01*
X3312Y2952D02*
X3351Y2952D01*
X3232Y2951D02*
X3272Y2951D01*
X3312Y2951D02*
X3351Y2951D01*
X3232Y2950D02*
X3271Y2950D01*
X3312Y2950D02*
X3351Y2950D01*
X3232Y2949D02*
X3271Y2949D01*
X3312Y2949D02*
X3351Y2949D01*
X3232Y2948D02*
X3271Y2948D01*
X3312Y2948D02*
X3351Y2948D01*
X3232Y2947D02*
X3271Y2947D01*
X3312Y2947D02*
X3351Y2947D01*
X3232Y2946D02*
X3271Y2946D01*
X3312Y2946D02*
X3351Y2946D01*
X3232Y2945D02*
X3272Y2945D01*
X3312Y2945D02*
X3351Y2945D01*
X3233Y2944D02*
X3272Y2944D01*
X3312Y2944D02*
X3351Y2944D01*
X3233Y2943D02*
X3272Y2943D01*
X3311Y2943D02*
X3351Y2943D01*
X3233Y2942D02*
X3272Y2942D01*
X3311Y2942D02*
X3351Y2942D01*
X3233Y2941D02*
X3273Y2941D01*
X3311Y2941D02*
X3350Y2941D01*
X3233Y2940D02*
X3273Y2940D01*
X3310Y2940D02*
X3350Y2940D01*
X3234Y2939D02*
X3274Y2939D01*
X3310Y2939D02*
X3350Y2939D01*
X3234Y2938D02*
X3274Y2938D01*
X3309Y2938D02*
X3349Y2938D01*
X3234Y2937D02*
X3275Y2937D01*
X3309Y2937D02*
X3349Y2937D01*
X3235Y2936D02*
X3275Y2936D01*
X3308Y2936D02*
X3349Y2936D01*
X3235Y2935D02*
X3276Y2935D01*
X3307Y2935D02*
X3348Y2935D01*
X3236Y2934D02*
X3277Y2934D01*
X3306Y2934D02*
X3348Y2934D01*
X3236Y2933D02*
X3278Y2933D01*
X3305Y2933D02*
X3347Y2933D01*
X3237Y2932D02*
X3280Y2932D01*
X3304Y2932D02*
X3346Y2932D01*
X3238Y2931D02*
X3281Y2931D01*
X3302Y2931D02*
X3346Y2931D01*
X3238Y2930D02*
X3283Y2930D01*
X3300Y2930D02*
X3345Y2930D01*
X3239Y2929D02*
X3286Y2929D01*
X3298Y2929D02*
X3344Y2929D01*
X3240Y2928D02*
X3343Y2928D01*
X3241Y2927D02*
X3342Y2927D01*
X3242Y2926D02*
X3341Y2926D01*
X3243Y2925D02*
X3340Y2925D01*
X3244Y2924D02*
X3339Y2924D01*
X3246Y2923D02*
X3338Y2923D01*
X3248Y2922D02*
X3336Y2922D01*
X3250Y2921D02*
X3334Y2921D01*
X3252Y2920D02*
X3331Y2920D01*
X3255Y2919D02*
X3328Y2919D01*
X3259Y2878D02*
X3324Y2878D01*
X3254Y2877D02*
X3329Y2877D01*
X3251Y2876D02*
X3332Y2876D01*
X3249Y2875D02*
X3335Y2875D01*
X3247Y2874D02*
X3336Y2874D01*
X3245Y2873D02*
X3338Y2873D01*
X3244Y2872D02*
X3339Y2872D01*
X3243Y2871D02*
X3341Y2871D01*
X3242Y2870D02*
X3342Y2870D01*
X3241Y2869D02*
X3343Y2869D01*
X3240Y2868D02*
X3290Y2868D01*
X3294Y2868D02*
X3344Y2868D01*
X3239Y2867D02*
X3285Y2867D01*
X3299Y2867D02*
X3345Y2867D01*
X3238Y2866D02*
X3282Y2866D01*
X3301Y2866D02*
X3345Y2866D01*
X3237Y2865D02*
X3280Y2865D01*
X3303Y2865D02*
X3346Y2865D01*
X3237Y2864D02*
X3279Y2864D01*
X3304Y2864D02*
X3347Y2864D01*
X3236Y2863D02*
X3278Y2863D01*
X3306Y2863D02*
X3347Y2863D01*
X3236Y2862D02*
X3277Y2862D01*
X3307Y2862D02*
X3348Y2862D01*
X3235Y2861D02*
X3276Y2861D01*
X3307Y2861D02*
X3348Y2861D01*
X3235Y2860D02*
X3275Y2860D01*
X3308Y2860D02*
X3349Y2860D01*
X3234Y2859D02*
X3274Y2859D01*
X3309Y2859D02*
X3349Y2859D01*
X3234Y2858D02*
X3274Y2858D01*
X3310Y2858D02*
X3350Y2858D01*
X3234Y2857D02*
X3273Y2857D01*
X3310Y2857D02*
X3350Y2857D01*
X3233Y2856D02*
X3273Y2856D01*
X3311Y2856D02*
X3350Y2856D01*
X3233Y2855D02*
X3272Y2855D01*
X3311Y2855D02*
X3350Y2855D01*
X3233Y2854D02*
X3272Y2854D01*
X3311Y2854D02*
X3351Y2854D01*
X3233Y2853D02*
X3272Y2853D01*
X3312Y2853D02*
X3351Y2853D01*
X3232Y2852D02*
X3272Y2852D01*
X3312Y2852D02*
X3351Y2852D01*
X3232Y2851D02*
X3272Y2851D01*
X3312Y2851D02*
X3351Y2851D01*
X3232Y2850D02*
X3271Y2850D01*
X3312Y2850D02*
X3351Y2850D01*
X3232Y2849D02*
X3271Y2849D01*
X3312Y2849D02*
X3351Y2849D01*
X3232Y2848D02*
X3271Y2848D01*
X3312Y2848D02*
X3351Y2848D01*
X3232Y2847D02*
X3271Y2847D01*
X3312Y2847D02*
X3351Y2847D01*
X3232Y2846D02*
X3271Y2846D01*
X3312Y2846D02*
X3351Y2846D01*
X3232Y2845D02*
X3272Y2845D01*
X3312Y2845D02*
X3351Y2845D01*
X3233Y2844D02*
X3272Y2844D01*
X3312Y2844D02*
X3351Y2844D01*
X3233Y2843D02*
X3272Y2843D01*
X3311Y2843D02*
X3351Y2843D01*
X3233Y2842D02*
X3272Y2842D01*
X3311Y2842D02*
X3351Y2842D01*
X3233Y2841D02*
X3273Y2841D01*
X3311Y2841D02*
X3350Y2841D01*
X3233Y2840D02*
X3273Y2840D01*
X3310Y2840D02*
X3350Y2840D01*
X3234Y2839D02*
X3274Y2839D01*
X3310Y2839D02*
X3350Y2839D01*
X3234Y2838D02*
X3274Y2838D01*
X3309Y2838D02*
X3349Y2838D01*
X3234Y2837D02*
X3275Y2837D01*
X3309Y2837D02*
X3349Y2837D01*
X3235Y2836D02*
X3275Y2836D01*
X3308Y2836D02*
X3349Y2836D01*
X3235Y2835D02*
X3276Y2835D01*
X3307Y2835D02*
X3348Y2835D01*
X3236Y2834D02*
X3277Y2834D01*
X3306Y2834D02*
X3348Y2834D01*
X3236Y2833D02*
X3278Y2833D01*
X3305Y2833D02*
X3347Y2833D01*
X3237Y2832D02*
X3280Y2832D01*
X3304Y2832D02*
X3346Y2832D01*
X3238Y2831D02*
X3281Y2831D01*
X3302Y2831D02*
X3346Y2831D01*
X3238Y2830D02*
X3283Y2830D01*
X3300Y2830D02*
X3345Y2830D01*
X3239Y2829D02*
X3286Y2829D01*
X3298Y2829D02*
X3344Y2829D01*
X3240Y2828D02*
X3343Y2828D01*
X3241Y2827D02*
X3342Y2827D01*
X3242Y2826D02*
X3341Y2826D01*
X3243Y2825D02*
X3340Y2825D01*
X3245Y2824D02*
X3339Y2824D01*
X3246Y2823D02*
X3337Y2823D01*
X3248Y2822D02*
X3336Y2822D01*
X3250Y2821D02*
X3334Y2821D01*
X3252Y2820D02*
X3331Y2820D01*
X3255Y2819D02*
X3328Y2819D01*
X3259Y2778D02*
X3324Y2778D01*
X3254Y2777D02*
X3330Y2777D01*
X3251Y2776D02*
X3332Y2776D01*
X3249Y2775D02*
X3335Y2775D01*
X3247Y2774D02*
X3336Y2774D01*
X3245Y2773D02*
X3338Y2773D01*
X3244Y2772D02*
X3339Y2772D01*
X3243Y2771D02*
X3341Y2771D01*
X3242Y2770D02*
X3342Y2770D01*
X3241Y2769D02*
X3343Y2769D01*
X3240Y2768D02*
X3289Y2768D01*
X3294Y2768D02*
X3344Y2768D01*
X3239Y2767D02*
X3285Y2767D01*
X3299Y2767D02*
X3345Y2767D01*
X3238Y2766D02*
X3282Y2766D01*
X3301Y2766D02*
X3345Y2766D01*
X3237Y2765D02*
X3280Y2765D01*
X3303Y2765D02*
X3346Y2765D01*
X3237Y2764D02*
X3279Y2764D01*
X3304Y2764D02*
X3347Y2764D01*
X3236Y2763D02*
X3278Y2763D01*
X3306Y2763D02*
X3347Y2763D01*
X3236Y2762D02*
X3277Y2762D01*
X3307Y2762D02*
X3348Y2762D01*
X3235Y2761D02*
X3276Y2761D01*
X3307Y2761D02*
X3348Y2761D01*
X3235Y2760D02*
X3275Y2760D01*
X3308Y2760D02*
X3349Y2760D01*
X3234Y2759D02*
X3274Y2759D01*
X3309Y2759D02*
X3349Y2759D01*
X3234Y2758D02*
X3274Y2758D01*
X3310Y2758D02*
X3350Y2758D01*
X3234Y2757D02*
X3273Y2757D01*
X3310Y2757D02*
X3350Y2757D01*
X3233Y2756D02*
X3273Y2756D01*
X3311Y2756D02*
X3350Y2756D01*
X3233Y2755D02*
X3272Y2755D01*
X3311Y2755D02*
X3350Y2755D01*
X3233Y2754D02*
X3272Y2754D01*
X3311Y2754D02*
X3351Y2754D01*
X3233Y2753D02*
X3272Y2753D01*
X3312Y2753D02*
X3351Y2753D01*
X3232Y2752D02*
X3272Y2752D01*
X3312Y2752D02*
X3351Y2752D01*
X3232Y2751D02*
X3272Y2751D01*
X3312Y2751D02*
X3351Y2751D01*
X3232Y2750D02*
X3271Y2750D01*
X3312Y2750D02*
X3351Y2750D01*
X3232Y2749D02*
X3271Y2749D01*
X3312Y2749D02*
X3351Y2749D01*
X3232Y2748D02*
X3271Y2748D01*
X3312Y2748D02*
X3351Y2748D01*
X3232Y2747D02*
X3271Y2747D01*
X3312Y2747D02*
X3351Y2747D01*
X3232Y2746D02*
X3271Y2746D01*
X3312Y2746D02*
X3351Y2746D01*
X3232Y2745D02*
X3272Y2745D01*
X3312Y2745D02*
X3351Y2745D01*
X3233Y2744D02*
X3272Y2744D01*
X3312Y2744D02*
X3351Y2744D01*
X3233Y2743D02*
X3272Y2743D01*
X3311Y2743D02*
X3351Y2743D01*
X3233Y2742D02*
X3272Y2742D01*
X3311Y2742D02*
X3351Y2742D01*
X3233Y2741D02*
X3273Y2741D01*
X3311Y2741D02*
X3350Y2741D01*
X3233Y2740D02*
X3273Y2740D01*
X3310Y2740D02*
X3350Y2740D01*
X3234Y2739D02*
X3274Y2739D01*
X3310Y2739D02*
X3350Y2739D01*
X3234Y2738D02*
X3274Y2738D01*
X3309Y2738D02*
X3349Y2738D01*
X3234Y2737D02*
X3275Y2737D01*
X3309Y2737D02*
X3349Y2737D01*
X3235Y2736D02*
X3275Y2736D01*
X3308Y2736D02*
X3349Y2736D01*
X3235Y2735D02*
X3276Y2735D01*
X3307Y2735D02*
X3348Y2735D01*
X3236Y2734D02*
X3277Y2734D01*
X3306Y2734D02*
X3348Y2734D01*
X3236Y2733D02*
X3278Y2733D01*
X3305Y2733D02*
X3347Y2733D01*
X3237Y2732D02*
X3280Y2732D01*
X3304Y2732D02*
X3346Y2732D01*
X3238Y2731D02*
X3281Y2731D01*
X3302Y2731D02*
X3346Y2731D01*
X3238Y2730D02*
X3283Y2730D01*
X3300Y2730D02*
X3345Y2730D01*
X3239Y2729D02*
X3286Y2729D01*
X3297Y2729D02*
X3344Y2729D01*
X3240Y2728D02*
X3343Y2728D01*
X3241Y2727D02*
X3342Y2727D01*
X3242Y2726D02*
X3341Y2726D01*
X3243Y2725D02*
X3340Y2725D01*
X3245Y2724D02*
X3339Y2724D01*
X3246Y2723D02*
X3337Y2723D01*
X3248Y2722D02*
X3336Y2722D01*
X3250Y2721D02*
X3334Y2721D01*
X3252Y2720D02*
X3331Y2720D01*
X3255Y2719D02*
X3328Y2719D01*
D02*
G04 End of Copper1*
M02*