G04 MADE WITH FRITZING*
G04 WWW.FRITZING.ORG*
G04 DOUBLE SIDED*
G04 HOLES PLATED*
G04 CONTOUR ON CENTER OF CONTOUR VECTOR*
%ASAXBY*%
%FSLAX23Y23*%
%MOIN*%
%OFA0B0*%
%SFA1.0B1.0*%
%ADD10C,0.050000*%
%ADD11C,0.140000*%
%ADD12C,0.073667*%
%ADD13C,0.077119*%
%ADD14C,0.075000*%
%ADD15C,0.057000*%
%ADD16C,0.047559*%
%ADD17C,0.064000*%
%ADD18C,0.062992*%
%ADD19C,0.137795*%
%ADD20C,0.078000*%
%ADD21C,0.060000*%
%ADD22C,0.082000*%
%ADD23C,0.070000*%
%ADD24C,0.070925*%
%ADD25C,0.070866*%
%ADD26R,0.075000X0.075000*%
%ADD27R,0.062992X0.062992*%
%ADD28R,0.137795X0.137795*%
%ADD29R,0.196850X0.039370*%
%ADD30C,0.048000*%
%ADD31C,0.024000*%
%ADD32C,0.032000*%
%ADD33C,0.016000*%
%ADD34C,0.008000*%
%ADD35C,0.012000*%
%ADD36R,0.001000X0.001000*%
%LNCOPPER0*%
G90*
G70*
G54D10*
X3145Y3330D03*
X3145Y3232D03*
X3224Y3232D03*
X3066Y3232D03*
X3066Y3330D03*
X3224Y3330D03*
G54D11*
X3586Y3346D03*
X3826Y3346D03*
X3706Y3536D03*
G54D12*
X2161Y1527D03*
X2061Y1527D03*
X2161Y1627D03*
X2061Y1627D03*
X2161Y1727D03*
X2061Y1727D03*
X2161Y1827D03*
X2061Y1827D03*
X2161Y1927D03*
X2061Y1927D03*
G54D13*
X806Y2231D03*
X806Y2126D03*
X806Y2022D03*
X806Y1918D03*
X806Y1814D03*
X806Y1710D03*
X1617Y2126D03*
X1617Y2022D03*
X1617Y1918D03*
X1617Y1814D03*
X1617Y1710D03*
X1617Y1605D03*
G54D14*
X3519Y708D03*
X3263Y708D03*
X3519Y885D03*
X3263Y885D03*
G54D15*
X4001Y1477D03*
X4001Y1556D03*
X911Y633D03*
X990Y633D03*
G54D16*
X1245Y626D03*
X1324Y626D03*
X1403Y626D03*
X1482Y626D03*
G54D17*
X4001Y2365D03*
X4001Y2444D03*
X4001Y2522D03*
X576Y613D03*
X655Y613D03*
X734Y613D03*
G54D14*
X3240Y2226D03*
X3440Y2226D03*
X599Y1233D03*
X399Y1233D03*
X2614Y3123D03*
X2414Y3123D03*
X3676Y2344D03*
X3676Y2044D03*
X2397Y1389D03*
X2397Y711D03*
G54D18*
X3893Y2088D03*
X3893Y1989D03*
G54D14*
X2670Y1871D03*
X2672Y1113D03*
X2831Y612D03*
X2531Y612D03*
X2831Y712D03*
X2531Y712D03*
X2831Y812D03*
X2531Y812D03*
X2831Y912D03*
X2531Y912D03*
X2831Y1012D03*
X2531Y1012D03*
X2831Y1112D03*
X2531Y1112D03*
X2831Y1212D03*
X2531Y1212D03*
X2831Y1312D03*
X2531Y1312D03*
X2831Y1412D03*
X2531Y1412D03*
X2831Y1512D03*
X2531Y1512D03*
X2831Y1612D03*
X2531Y1612D03*
X2831Y1712D03*
X2531Y1712D03*
X2831Y1812D03*
X2531Y1812D03*
X2831Y1912D03*
X2531Y1912D03*
X1946Y3037D03*
X1946Y2737D03*
X1846Y3037D03*
X1846Y2737D03*
X1746Y3037D03*
X1746Y2737D03*
X1646Y3037D03*
X1646Y2737D03*
X1546Y3037D03*
X1546Y2737D03*
X1446Y3037D03*
X1446Y2737D03*
X1346Y3037D03*
X1346Y2737D03*
X1246Y3037D03*
X1246Y2737D03*
G54D19*
X1587Y3563D03*
X1787Y3563D03*
G54D20*
X3007Y1678D03*
X3007Y1778D03*
X3046Y970D03*
X3046Y1070D03*
X2141Y2834D03*
X2141Y2934D03*
X3046Y715D03*
X3046Y815D03*
X602Y1812D03*
X602Y1912D03*
G54D21*
X3293Y2947D03*
X3293Y2847D03*
X3293Y2747D03*
G54D22*
X3234Y3556D03*
X2434Y3556D03*
G54D14*
X2179Y613D03*
X1679Y613D03*
X2179Y731D03*
X1679Y731D03*
X4001Y1213D03*
X3901Y1213D03*
X3801Y1213D03*
X2726Y2531D03*
X2726Y2431D03*
X2726Y2331D03*
G54D23*
X3184Y2560D03*
X3084Y2560D03*
G54D14*
X2869Y2068D03*
X2869Y2468D03*
X2559Y2245D03*
X2559Y2645D03*
X3505Y1920D03*
X3105Y1920D03*
X2427Y2647D03*
X2427Y2247D03*
X3637Y1381D03*
X3637Y1781D03*
X2019Y2267D03*
X1619Y2267D03*
X3373Y552D03*
X3873Y552D03*
G54D23*
X3125Y1603D03*
X3125Y1503D03*
X2969Y1306D03*
X2969Y1206D03*
X3125Y1406D03*
X3125Y1306D03*
G54D24*
X3399Y1602D03*
G54D25*
X3399Y1409D03*
G54D14*
X2417Y3408D03*
X2717Y3408D03*
X1486Y1715D03*
X1386Y1715D03*
X1286Y1715D03*
X1846Y1335D03*
X1846Y1735D03*
G54D23*
X497Y918D03*
X397Y918D03*
X607Y1656D03*
X507Y1656D03*
G54D14*
X2062Y1113D03*
X2062Y1213D03*
G54D26*
X3240Y2226D03*
X599Y1233D03*
X2614Y3123D03*
G54D27*
X3893Y2088D03*
G54D26*
X2831Y612D03*
X1946Y3037D03*
G54D28*
X1587Y3563D03*
G54D29*
X1590Y2914D03*
G54D26*
X2062Y1113D03*
G54D30*
X3578Y2631D02*
X3882Y2631D01*
D02*
X3578Y2847D02*
X3578Y2631D01*
D02*
X3335Y2847D02*
X3578Y2847D01*
D02*
X3782Y2543D02*
X3479Y2543D01*
D02*
X3782Y2365D02*
X3782Y2543D01*
D02*
X3965Y2365D02*
X3782Y2365D01*
D02*
X3479Y2543D02*
X3479Y2749D01*
D02*
X3479Y2749D02*
X3335Y2748D01*
D02*
X3716Y2947D02*
X3335Y2947D01*
D02*
X3716Y2710D02*
X3716Y2947D01*
D02*
X4002Y2710D02*
X3716Y2710D01*
D02*
X4002Y2558D02*
X4002Y2710D01*
G54D31*
D02*
X2349Y2647D02*
X2398Y2647D01*
G54D30*
D02*
X4079Y2444D02*
X4037Y2444D01*
D02*
X4079Y3045D02*
X4079Y2444D01*
D02*
X3882Y2444D02*
X3965Y2444D01*
D02*
X3882Y2631D02*
X3882Y2444D01*
G54D31*
D02*
X3145Y3258D02*
X3145Y3303D01*
D02*
X3224Y3303D02*
X3224Y3258D01*
G54D32*
D02*
X639Y1710D02*
X624Y1684D01*
D02*
X769Y1710D02*
X639Y1710D01*
G54D31*
D02*
X3399Y1509D02*
X3399Y1575D01*
D02*
X3151Y1503D02*
X3399Y1509D01*
G54D32*
D02*
X2061Y1419D02*
X2062Y1248D01*
D02*
X2061Y1419D02*
X2061Y1490D01*
D02*
X2061Y1419D02*
X1707Y1419D01*
D02*
X1707Y1419D02*
X1707Y2430D01*
D02*
X1707Y2430D02*
X1499Y2435D01*
D02*
X1707Y2580D02*
X1707Y2430D01*
D02*
X1499Y2435D02*
X1499Y2126D01*
D02*
X1946Y2580D02*
X1707Y2580D01*
D02*
X1499Y2126D02*
X844Y2126D01*
D02*
X2241Y2584D02*
X1946Y2580D01*
D02*
X1946Y2580D02*
X1946Y2702D01*
D02*
X2241Y3037D02*
X2241Y2584D01*
D02*
X1980Y3037D02*
X2241Y3037D01*
G54D33*
D02*
X3322Y1971D02*
X3157Y2070D01*
D02*
X3157Y2070D02*
X2892Y2068D01*
D02*
X3322Y1920D02*
X3322Y1971D01*
D02*
X3482Y1920D02*
X3322Y1920D01*
G54D32*
D02*
X2299Y1217D02*
X2299Y1115D01*
D02*
X2299Y1115D02*
X2097Y1114D01*
D02*
X2497Y1213D02*
X2299Y1217D01*
G54D31*
D02*
X2644Y1113D02*
X2560Y1112D01*
D02*
X2803Y1012D02*
X2560Y1012D01*
G54D32*
D02*
X1587Y3517D02*
X1587Y3246D01*
D02*
X1587Y3246D02*
X1446Y3246D01*
D02*
X1446Y3246D02*
X1446Y3071D01*
G54D31*
D02*
X3016Y815D02*
X2860Y813D01*
D02*
X990Y731D02*
X1650Y731D01*
D02*
X990Y658D02*
X990Y731D01*
G54D32*
D02*
X2937Y1307D02*
X2866Y1311D01*
D02*
X3470Y1704D02*
X3165Y1704D01*
D02*
X3165Y1704D02*
X3165Y1605D01*
D02*
X3470Y1704D02*
X3993Y1704D01*
D02*
X3470Y1704D02*
X3468Y1302D01*
D02*
X3165Y1605D02*
X3157Y1605D01*
D02*
X3993Y1704D02*
X3992Y1891D01*
D02*
X3468Y1302D02*
X3157Y1306D01*
D02*
X3992Y1890D02*
X3893Y1891D01*
D02*
X3991Y415D02*
X3991Y660D01*
D02*
X3801Y1065D02*
X3471Y1065D01*
D02*
X3471Y1065D02*
X3468Y1301D01*
D02*
X3991Y1065D02*
X3801Y1065D01*
D02*
X3991Y660D02*
X3991Y1065D01*
D02*
X3694Y415D02*
X3991Y415D01*
D02*
X3893Y1891D02*
X3578Y1887D01*
D02*
X3578Y1887D02*
X3578Y2121D01*
G54D31*
D02*
X3893Y1891D02*
X3893Y1962D01*
G54D32*
D02*
X3694Y415D02*
X3695Y708D01*
D02*
X3578Y2121D02*
X3240Y2121D01*
G54D31*
D02*
X3578Y1887D02*
X3578Y1843D01*
G54D32*
D02*
X1245Y415D02*
X3694Y415D01*
G54D31*
D02*
X3695Y708D02*
X3547Y708D01*
G54D32*
D02*
X3240Y2121D02*
X3240Y2191D01*
G54D31*
D02*
X3578Y1843D02*
X3364Y1843D01*
G54D32*
D02*
X911Y415D02*
X1245Y415D01*
G54D31*
D02*
X1245Y415D02*
X1245Y601D01*
D02*
X3364Y1843D02*
X3180Y1845D01*
G54D32*
D02*
X655Y415D02*
X911Y415D01*
D02*
X911Y415D02*
X911Y602D01*
G54D31*
D02*
X3180Y1845D02*
X3180Y1999D01*
G54D32*
D02*
X655Y583D02*
X655Y415D01*
G54D31*
D02*
X3180Y1999D02*
X2746Y1999D01*
D02*
X2746Y1999D02*
X2746Y1802D01*
D02*
X2746Y1802D02*
X2602Y1802D01*
D02*
X2602Y1802D02*
X2602Y2091D01*
D02*
X2495Y2169D02*
X2358Y2169D01*
D02*
X2495Y2091D02*
X2495Y2169D01*
D02*
X2602Y2091D02*
X2495Y2091D01*
D02*
X2278Y2258D02*
X2277Y2454D01*
D02*
X2358Y2169D02*
X2278Y2258D01*
D02*
X2277Y2454D02*
X1774Y2454D01*
D02*
X1774Y2454D02*
X1774Y1627D01*
D02*
X1774Y1627D02*
X2030Y1627D01*
D02*
X775Y1814D02*
X632Y1812D01*
G54D32*
D02*
X1787Y3246D02*
X1787Y3517D01*
D02*
X1746Y3246D02*
X1787Y3246D01*
D02*
X1746Y3071D02*
X1746Y3246D01*
G54D31*
D02*
X497Y944D02*
X495Y1233D01*
D02*
X495Y1233D02*
X570Y1233D01*
G54D32*
D02*
X655Y918D02*
X655Y643D01*
D02*
X529Y918D02*
X655Y918D01*
G54D31*
D02*
X2559Y2617D02*
X2559Y2531D01*
D02*
X2559Y2531D02*
X2697Y2531D01*
D02*
X3058Y2560D02*
X2869Y2560D01*
D02*
X2869Y2560D02*
X2869Y2497D01*
D02*
X2510Y832D02*
X2394Y937D01*
D02*
X2394Y937D02*
X1679Y937D01*
D02*
X1679Y937D02*
X1679Y760D01*
D02*
X3153Y886D02*
X3234Y885D01*
D02*
X3153Y606D02*
X3153Y886D01*
D02*
X2860Y612D02*
X3153Y606D01*
G54D30*
D02*
X2613Y3045D02*
X2613Y3083D01*
D02*
X4079Y3045D02*
X2613Y3045D01*
G54D31*
D02*
X1386Y1335D02*
X1817Y1335D01*
D02*
X1386Y1687D02*
X1386Y1335D01*
G54D32*
D02*
X3093Y1306D02*
X3000Y1306D01*
D02*
X3282Y1212D02*
X3000Y1206D01*
D02*
X3873Y993D02*
X3282Y993D01*
D02*
X3282Y993D02*
X3282Y1212D01*
D02*
X3873Y586D02*
X3873Y993D01*
G54D30*
D02*
X3084Y2597D02*
X3084Y2847D01*
D02*
X3084Y2847D02*
X3250Y2847D01*
G54D31*
D02*
X3077Y1919D02*
X2860Y1913D01*
G54D32*
D02*
X497Y918D02*
X497Y918D01*
G54D30*
D02*
X3250Y2947D02*
X2414Y2947D01*
D02*
X2414Y2947D02*
X2414Y3083D01*
G54D31*
D02*
X2979Y1768D02*
X2858Y1722D01*
G54D32*
D02*
X507Y2126D02*
X769Y2126D01*
D02*
X507Y1688D02*
X507Y2126D01*
G54D31*
D02*
X2531Y2030D02*
X2531Y1941D01*
D02*
X2356Y2030D02*
X2531Y2030D01*
D02*
X2210Y2176D02*
X2356Y2030D01*
D02*
X2025Y2176D02*
X2210Y2176D01*
D02*
X2021Y2238D02*
X2025Y2176D01*
D02*
X1486Y2022D02*
X1486Y1744D01*
D02*
X1585Y2022D02*
X1486Y2022D01*
G54D32*
D02*
X2211Y1215D02*
X2097Y1214D01*
D02*
X2211Y1316D02*
X2211Y1215D01*
D02*
X2497Y1313D02*
X2211Y1316D01*
D02*
X607Y1625D02*
X600Y1267D01*
G54D30*
D02*
X1068Y2584D02*
X1068Y3779D01*
D02*
X1068Y3779D02*
X3305Y3779D01*
D02*
X3305Y3779D02*
X3305Y3676D01*
D02*
X3305Y3676D02*
X3706Y3676D01*
D02*
X3706Y3676D02*
X3706Y3608D01*
D02*
X1546Y2584D02*
X1068Y2584D01*
D02*
X3419Y3232D02*
X3419Y3346D01*
D02*
X3419Y3346D02*
X3514Y3346D01*
D02*
X3262Y3232D02*
X3419Y3232D01*
D02*
X3145Y3556D02*
X3145Y3367D01*
D02*
X3190Y3556D02*
X3145Y3556D01*
G54D31*
D02*
X3676Y2088D02*
X3676Y2072D01*
D02*
X3866Y2088D02*
X3676Y2088D01*
G54D30*
D02*
X3184Y2597D02*
X3184Y2747D01*
D02*
X3184Y2747D02*
X3250Y2747D01*
G54D31*
D02*
X3016Y715D02*
X2860Y713D01*
G54D33*
D02*
X2633Y2431D02*
X2703Y2431D01*
D02*
X2633Y2237D02*
X2633Y2431D01*
D02*
X2868Y2237D02*
X2633Y2237D01*
D02*
X2868Y2237D02*
X2869Y2091D01*
G54D32*
D02*
X2028Y1113D02*
X1329Y1113D01*
D02*
X1329Y1113D02*
X1329Y1508D01*
D02*
X1329Y1508D02*
X1225Y1508D01*
D02*
X1225Y1508D02*
X1225Y1715D01*
D02*
X1225Y1715D02*
X844Y1710D01*
D02*
X1225Y1715D02*
X1251Y1715D01*
G54D31*
D02*
X775Y1917D02*
X632Y1913D01*
D02*
X3046Y1100D02*
X3046Y1112D01*
D02*
X3046Y1112D02*
X2860Y1112D01*
G54D32*
D02*
X2937Y1207D02*
X2866Y1211D01*
D02*
X397Y950D02*
X399Y1199D01*
G54D31*
D02*
X1826Y613D02*
X1707Y613D01*
D02*
X1826Y882D02*
X1826Y613D01*
D02*
X2362Y882D02*
X1826Y882D01*
D02*
X2511Y732D02*
X2362Y882D01*
D02*
X3373Y886D02*
X3373Y581D01*
D02*
X3490Y885D02*
X3373Y886D01*
G54D32*
D02*
X2531Y1346D02*
X2531Y1378D01*
D02*
X2689Y1312D02*
X2566Y1312D01*
D02*
X2689Y1312D02*
X2689Y1212D01*
D02*
X2689Y1212D02*
X2797Y1212D01*
G54D30*
D02*
X3084Y2523D02*
X3084Y2226D01*
D02*
X3084Y2226D02*
X3200Y2226D01*
G54D31*
D02*
X3099Y1407D02*
X2860Y1412D01*
G54D30*
D02*
X1246Y3679D02*
X1246Y3076D01*
D02*
X1246Y3679D02*
X2308Y3679D01*
D02*
X2308Y3679D02*
X2308Y3557D01*
D02*
X2308Y3557D02*
X2390Y3556D01*
D02*
X2308Y3557D02*
X2308Y3408D01*
D02*
X2308Y3408D02*
X2377Y3408D01*
G54D34*
D02*
X2277Y1709D02*
X2179Y1808D01*
D02*
X2277Y1664D02*
X2277Y1709D01*
D02*
X2332Y1664D02*
X2277Y1664D01*
D02*
X2332Y1512D02*
X2332Y1664D01*
D02*
X2508Y1512D02*
X2332Y1512D01*
G54D31*
D02*
X3372Y1409D02*
X3151Y1406D01*
D02*
X2111Y2934D02*
X1846Y2934D01*
D02*
X1846Y2934D02*
X1846Y3008D01*
D02*
X1346Y2833D02*
X2111Y2833D01*
D02*
X1346Y3008D02*
X1346Y2833D01*
G54D30*
D02*
X2414Y3163D02*
X2416Y3369D01*
G54D32*
D02*
X399Y1352D02*
X399Y1267D01*
D02*
X507Y1352D02*
X399Y1352D01*
D02*
X507Y1352D02*
X507Y1625D01*
G54D31*
D02*
X2455Y2247D02*
X2557Y2247D01*
D02*
X2557Y2247D02*
X2557Y2172D01*
D02*
X2557Y2172D02*
X2558Y2217D01*
D02*
X2670Y2172D02*
X2557Y2172D01*
D02*
X2670Y1900D02*
X2670Y2172D01*
D02*
X2869Y2331D02*
X2869Y2439D01*
D02*
X2754Y2331D02*
X2869Y2331D01*
G54D30*
D02*
X3440Y2265D02*
X3440Y2423D01*
D02*
X3440Y2423D02*
X3184Y2423D01*
D02*
X3184Y2423D02*
X3184Y2523D01*
G54D31*
D02*
X1618Y2158D02*
X1619Y2238D01*
G54D32*
D02*
X576Y326D02*
X4108Y326D01*
D02*
X576Y326D02*
X576Y583D01*
D02*
X4108Y326D02*
X4108Y552D01*
D02*
X4108Y1556D02*
X4108Y2226D01*
D02*
X4108Y552D02*
X4108Y1556D01*
D02*
X4108Y2226D02*
X3676Y2226D01*
D02*
X3676Y2226D02*
X3474Y2226D01*
D02*
X3676Y2226D02*
X3676Y2309D01*
G54D31*
D02*
X2165Y2083D02*
X2298Y1950D01*
D02*
X2298Y1950D02*
X2394Y1950D01*
D02*
X1846Y2083D02*
X2165Y2083D01*
D02*
X2394Y1950D02*
X2511Y1832D01*
D02*
X1846Y1764D02*
X1846Y2083D01*
D02*
X2829Y484D02*
X2831Y584D01*
D02*
X1946Y484D02*
X2829Y484D01*
D02*
X1946Y819D02*
X1946Y484D01*
D02*
X2278Y819D02*
X1946Y819D01*
D02*
X2278Y711D02*
X2278Y819D01*
D02*
X2368Y711D02*
X2278Y711D01*
D02*
X1506Y624D02*
X1650Y615D01*
D02*
X2058Y533D02*
X2058Y731D01*
D02*
X2058Y731D02*
X2150Y731D01*
D02*
X2640Y533D02*
X2058Y533D01*
D02*
X2640Y912D02*
X2640Y533D01*
D02*
X2560Y912D02*
X2640Y912D01*
D02*
X2979Y1668D02*
X2858Y1622D01*
G54D34*
D02*
X2111Y1567D02*
X2111Y1877D01*
D02*
X2111Y1877D02*
X2318Y1877D01*
D02*
X2141Y1543D02*
X2111Y1567D01*
D02*
X2318Y1877D02*
X2318Y1712D01*
D02*
X2318Y1712D02*
X2508Y1712D01*
G54D31*
D02*
X3046Y912D02*
X2860Y912D01*
D02*
X3046Y940D02*
X3046Y912D01*
G54D34*
D02*
X2585Y1612D02*
X2585Y1762D01*
D02*
X2585Y1762D02*
X2362Y1762D01*
D02*
X2555Y1612D02*
X2585Y1612D01*
D02*
X2362Y1909D02*
X2256Y1909D01*
D02*
X2362Y1762D02*
X2362Y1909D01*
D02*
X2256Y1909D02*
X2186Y1922D01*
G54D31*
D02*
X1414Y1015D02*
X1414Y915D01*
D02*
X1414Y915D02*
X897Y915D01*
D02*
X2503Y1012D02*
X1414Y1015D01*
D02*
X897Y915D02*
X731Y915D01*
D02*
X731Y915D02*
X733Y638D01*
G54D32*
D02*
X397Y886D02*
X397Y613D01*
D02*
X397Y613D02*
X546Y613D01*
G54D30*
D02*
X2614Y3408D02*
X2677Y3408D01*
D02*
X2614Y3163D02*
X2614Y3408D01*
G54D31*
D02*
X2860Y1511D02*
X3099Y1504D01*
D02*
X2368Y1389D02*
X2260Y1389D01*
D02*
X2260Y1389D02*
X2260Y1609D01*
D02*
X2260Y1609D02*
X2181Y1703D01*
G54D35*
D02*
X3106Y1782D02*
X3106Y1851D01*
D02*
X3106Y1851D02*
X2949Y1851D01*
D02*
X2949Y1851D02*
X2853Y1819D01*
D02*
X3614Y1781D02*
X3106Y1782D01*
G54D31*
D02*
X3901Y1382D02*
X3666Y1381D01*
D02*
X3901Y1242D02*
X3901Y1382D01*
D02*
X3801Y1065D02*
X3801Y1185D01*
D02*
X4001Y1452D02*
X4001Y1242D01*
G54D32*
D02*
X4108Y1556D02*
X4032Y1556D01*
G54D30*
D02*
X1546Y2584D02*
X1546Y2697D01*
D02*
X2868Y3408D02*
X2868Y3143D01*
D02*
X2756Y3408D02*
X2868Y3408D01*
D02*
X2868Y3143D02*
X3826Y3143D01*
D02*
X3826Y3143D02*
X3826Y3274D01*
G54D31*
D02*
X1596Y2928D02*
X1634Y3011D01*
D02*
X1585Y2928D02*
X1555Y3010D01*
D02*
X2207Y613D02*
X2503Y612D01*
G54D36*
X768Y3649D02*
X772Y3649D01*
X767Y3648D02*
X773Y3648D01*
X766Y3647D02*
X774Y3647D01*
X765Y3646D02*
X774Y3646D01*
X765Y3645D02*
X774Y3645D01*
X765Y3644D02*
X774Y3644D01*
X765Y3643D02*
X774Y3643D01*
X765Y3642D02*
X774Y3642D01*
X765Y3641D02*
X774Y3641D01*
X765Y3640D02*
X774Y3640D01*
X742Y3639D02*
X746Y3639D01*
X765Y3639D02*
X774Y3639D01*
X741Y3638D02*
X747Y3638D01*
X765Y3638D02*
X774Y3638D01*
X740Y3637D02*
X748Y3637D01*
X765Y3637D02*
X774Y3637D01*
X740Y3636D02*
X748Y3636D01*
X765Y3636D02*
X774Y3636D01*
X740Y3635D02*
X749Y3635D01*
X765Y3635D02*
X774Y3635D01*
X740Y3634D02*
X749Y3634D01*
X765Y3634D02*
X774Y3634D01*
X740Y3633D02*
X749Y3633D01*
X765Y3633D02*
X774Y3633D01*
X740Y3632D02*
X749Y3632D01*
X765Y3632D02*
X774Y3632D01*
X740Y3631D02*
X749Y3631D01*
X765Y3631D02*
X774Y3631D01*
X740Y3630D02*
X749Y3630D01*
X765Y3630D02*
X774Y3630D01*
X740Y3629D02*
X749Y3629D01*
X765Y3629D02*
X774Y3629D01*
X740Y3628D02*
X749Y3628D01*
X765Y3628D02*
X774Y3628D01*
X740Y3627D02*
X749Y3627D01*
X765Y3627D02*
X774Y3627D01*
X740Y3626D02*
X749Y3626D01*
X765Y3626D02*
X774Y3626D01*
X740Y3625D02*
X749Y3625D01*
X765Y3625D02*
X774Y3625D01*
X740Y3624D02*
X749Y3624D01*
X765Y3624D02*
X774Y3624D01*
X740Y3623D02*
X749Y3623D01*
X765Y3623D02*
X774Y3623D01*
X740Y3622D02*
X749Y3622D01*
X765Y3622D02*
X774Y3622D01*
X740Y3621D02*
X749Y3621D01*
X765Y3621D02*
X774Y3621D01*
X740Y3620D02*
X749Y3620D01*
X765Y3620D02*
X774Y3620D01*
X740Y3619D02*
X749Y3619D01*
X765Y3619D02*
X774Y3619D01*
X740Y3618D02*
X749Y3618D01*
X765Y3618D02*
X774Y3618D01*
X740Y3617D02*
X749Y3617D01*
X765Y3617D02*
X774Y3617D01*
X740Y3616D02*
X749Y3616D01*
X765Y3616D02*
X774Y3616D01*
X740Y3615D02*
X749Y3615D01*
X765Y3615D02*
X774Y3615D01*
X740Y3614D02*
X749Y3614D01*
X765Y3614D02*
X774Y3614D01*
X740Y3613D02*
X749Y3613D01*
X765Y3613D02*
X774Y3613D01*
X740Y3612D02*
X749Y3612D01*
X765Y3612D02*
X774Y3612D01*
X740Y3611D02*
X749Y3611D01*
X765Y3611D02*
X774Y3611D01*
X703Y3610D02*
X774Y3610D01*
X699Y3609D02*
X774Y3609D01*
X698Y3608D02*
X774Y3608D01*
X698Y3607D02*
X774Y3607D01*
X697Y3606D02*
X774Y3606D01*
X697Y3605D02*
X774Y3605D01*
X697Y3604D02*
X774Y3604D01*
X698Y3603D02*
X774Y3603D01*
X698Y3602D02*
X774Y3602D01*
X699Y3601D02*
X774Y3601D01*
X702Y3600D02*
X774Y3600D01*
X768Y3577D02*
X772Y3577D01*
X767Y3576D02*
X773Y3576D01*
X766Y3575D02*
X774Y3575D01*
X765Y3574D02*
X774Y3574D01*
X765Y3573D02*
X774Y3573D01*
X765Y3572D02*
X774Y3572D01*
X765Y3571D02*
X774Y3571D01*
X765Y3570D02*
X774Y3570D01*
X765Y3569D02*
X774Y3569D01*
X765Y3568D02*
X774Y3568D01*
X742Y3567D02*
X746Y3567D01*
X765Y3567D02*
X774Y3567D01*
X741Y3566D02*
X747Y3566D01*
X765Y3566D02*
X774Y3566D01*
X740Y3565D02*
X748Y3565D01*
X765Y3565D02*
X774Y3565D01*
X740Y3564D02*
X748Y3564D01*
X765Y3564D02*
X774Y3564D01*
X740Y3563D02*
X749Y3563D01*
X765Y3563D02*
X774Y3563D01*
X740Y3562D02*
X749Y3562D01*
X765Y3562D02*
X774Y3562D01*
X740Y3561D02*
X749Y3561D01*
X765Y3561D02*
X774Y3561D01*
X3706Y3561D02*
X3825Y3561D01*
X740Y3560D02*
X749Y3560D01*
X765Y3560D02*
X774Y3560D01*
X3699Y3560D02*
X3831Y3560D01*
X740Y3559D02*
X749Y3559D01*
X765Y3559D02*
X774Y3559D01*
X3696Y3559D02*
X3834Y3559D01*
X740Y3558D02*
X749Y3558D01*
X765Y3558D02*
X774Y3558D01*
X3694Y3558D02*
X3836Y3558D01*
X740Y3557D02*
X749Y3557D01*
X765Y3557D02*
X774Y3557D01*
X3692Y3557D02*
X3838Y3557D01*
X740Y3556D02*
X749Y3556D01*
X765Y3556D02*
X774Y3556D01*
X3691Y3556D02*
X3839Y3556D01*
X740Y3555D02*
X749Y3555D01*
X765Y3555D02*
X774Y3555D01*
X3690Y3555D02*
X3840Y3555D01*
X740Y3554D02*
X749Y3554D01*
X765Y3554D02*
X774Y3554D01*
X3689Y3554D02*
X3842Y3554D01*
X740Y3553D02*
X749Y3553D01*
X765Y3553D02*
X774Y3553D01*
X3688Y3553D02*
X3842Y3553D01*
X740Y3552D02*
X749Y3552D01*
X765Y3552D02*
X774Y3552D01*
X3687Y3552D02*
X3843Y3552D01*
X740Y3551D02*
X749Y3551D01*
X765Y3551D02*
X774Y3551D01*
X3686Y3551D02*
X3844Y3551D01*
X740Y3550D02*
X749Y3550D01*
X765Y3550D02*
X774Y3550D01*
X3686Y3550D02*
X3845Y3550D01*
X740Y3549D02*
X749Y3549D01*
X765Y3549D02*
X774Y3549D01*
X3685Y3549D02*
X3845Y3549D01*
X740Y3548D02*
X749Y3548D01*
X765Y3548D02*
X774Y3548D01*
X3684Y3548D02*
X3846Y3548D01*
X740Y3547D02*
X749Y3547D01*
X765Y3547D02*
X774Y3547D01*
X3684Y3547D02*
X3846Y3547D01*
X740Y3546D02*
X749Y3546D01*
X765Y3546D02*
X774Y3546D01*
X3683Y3546D02*
X3847Y3546D01*
X740Y3545D02*
X749Y3545D01*
X765Y3545D02*
X774Y3545D01*
X3683Y3545D02*
X3847Y3545D01*
X740Y3544D02*
X749Y3544D01*
X765Y3544D02*
X774Y3544D01*
X3683Y3544D02*
X3848Y3544D01*
X740Y3543D02*
X749Y3543D01*
X765Y3543D02*
X774Y3543D01*
X3683Y3543D02*
X3848Y3543D01*
X740Y3542D02*
X749Y3542D01*
X765Y3542D02*
X774Y3542D01*
X3682Y3542D02*
X3848Y3542D01*
X740Y3541D02*
X749Y3541D01*
X765Y3541D02*
X774Y3541D01*
X3682Y3541D02*
X3848Y3541D01*
X740Y3540D02*
X749Y3540D01*
X765Y3540D02*
X774Y3540D01*
X3682Y3540D02*
X3848Y3540D01*
X740Y3539D02*
X749Y3539D01*
X765Y3539D02*
X774Y3539D01*
X3682Y3539D02*
X3849Y3539D01*
X702Y3538D02*
X774Y3538D01*
X3682Y3538D02*
X3849Y3538D01*
X699Y3537D02*
X774Y3537D01*
X3682Y3537D02*
X3849Y3537D01*
X698Y3536D02*
X774Y3536D01*
X3682Y3536D02*
X3849Y3536D01*
X698Y3535D02*
X774Y3535D01*
X3682Y3535D02*
X3849Y3535D01*
X697Y3534D02*
X774Y3534D01*
X3682Y3534D02*
X3849Y3534D01*
X697Y3533D02*
X774Y3533D01*
X3682Y3533D02*
X3849Y3533D01*
X697Y3532D02*
X774Y3532D01*
X3682Y3532D02*
X3849Y3532D01*
X698Y3531D02*
X774Y3531D01*
X3683Y3531D02*
X3849Y3531D01*
X698Y3530D02*
X774Y3530D01*
X3683Y3530D02*
X3849Y3530D01*
X699Y3529D02*
X774Y3529D01*
X3683Y3529D02*
X3849Y3529D01*
X702Y3528D02*
X774Y3528D01*
X3683Y3528D02*
X3849Y3528D01*
X3684Y3527D02*
X3849Y3527D01*
X3684Y3526D02*
X3849Y3526D01*
X3685Y3525D02*
X3849Y3525D01*
X3686Y3524D02*
X3849Y3524D01*
X3686Y3523D02*
X3849Y3523D01*
X3687Y3522D02*
X3849Y3522D01*
X3688Y3521D02*
X3849Y3521D01*
X3689Y3520D02*
X3849Y3520D01*
X3690Y3519D02*
X3849Y3519D01*
X3691Y3518D02*
X3849Y3518D01*
X3692Y3517D02*
X3849Y3517D01*
X3694Y3516D02*
X3849Y3516D01*
X3696Y3515D02*
X3849Y3515D01*
X3699Y3514D02*
X3849Y3514D01*
X3802Y3513D02*
X3849Y3513D01*
X3802Y3512D02*
X3849Y3512D01*
X3802Y3511D02*
X3849Y3511D01*
X3802Y3510D02*
X3849Y3510D01*
X3802Y3509D02*
X3849Y3509D01*
X3802Y3508D02*
X3849Y3508D01*
X3802Y3507D02*
X3849Y3507D01*
X3802Y3506D02*
X3849Y3506D01*
X731Y3505D02*
X741Y3505D01*
X3802Y3505D02*
X3849Y3505D01*
X728Y3504D02*
X744Y3504D01*
X3802Y3504D02*
X3849Y3504D01*
X725Y3503D02*
X746Y3503D01*
X3802Y3503D02*
X3849Y3503D01*
X723Y3502D02*
X748Y3502D01*
X3802Y3502D02*
X3849Y3502D01*
X721Y3501D02*
X750Y3501D01*
X3802Y3501D02*
X3849Y3501D01*
X719Y3500D02*
X752Y3500D01*
X3802Y3500D02*
X3849Y3500D01*
X717Y3499D02*
X754Y3499D01*
X3802Y3499D02*
X3849Y3499D01*
X715Y3498D02*
X756Y3498D01*
X3802Y3498D02*
X3849Y3498D01*
X713Y3497D02*
X758Y3497D01*
X3802Y3497D02*
X3849Y3497D01*
X711Y3496D02*
X760Y3496D01*
X3802Y3496D02*
X3849Y3496D01*
X709Y3495D02*
X732Y3495D01*
X740Y3495D02*
X762Y3495D01*
X3802Y3495D02*
X3849Y3495D01*
X707Y3494D02*
X729Y3494D01*
X742Y3494D02*
X764Y3494D01*
X3802Y3494D02*
X3849Y3494D01*
X705Y3493D02*
X727Y3493D01*
X744Y3493D02*
X766Y3493D01*
X3802Y3493D02*
X3849Y3493D01*
X704Y3492D02*
X725Y3492D01*
X746Y3492D02*
X768Y3492D01*
X3802Y3492D02*
X3849Y3492D01*
X702Y3491D02*
X723Y3491D01*
X748Y3491D02*
X769Y3491D01*
X3802Y3491D02*
X3849Y3491D01*
X701Y3490D02*
X721Y3490D01*
X750Y3490D02*
X770Y3490D01*
X3802Y3490D02*
X3849Y3490D01*
X700Y3489D02*
X719Y3489D01*
X752Y3489D02*
X771Y3489D01*
X3802Y3489D02*
X3849Y3489D01*
X699Y3488D02*
X717Y3488D01*
X754Y3488D02*
X772Y3488D01*
X3802Y3488D02*
X3849Y3488D01*
X699Y3487D02*
X715Y3487D01*
X756Y3487D02*
X773Y3487D01*
X3802Y3487D02*
X3849Y3487D01*
X698Y3486D02*
X713Y3486D01*
X758Y3486D02*
X773Y3486D01*
X3802Y3486D02*
X3849Y3486D01*
X698Y3485D02*
X711Y3485D01*
X760Y3485D02*
X774Y3485D01*
X3802Y3485D02*
X3849Y3485D01*
X698Y3484D02*
X709Y3484D01*
X762Y3484D02*
X774Y3484D01*
X3802Y3484D02*
X3849Y3484D01*
X697Y3483D02*
X707Y3483D01*
X764Y3483D02*
X774Y3483D01*
X3802Y3483D02*
X3849Y3483D01*
X697Y3482D02*
X707Y3482D01*
X765Y3482D02*
X774Y3482D01*
X3802Y3482D02*
X3849Y3482D01*
X697Y3481D02*
X706Y3481D01*
X765Y3481D02*
X774Y3481D01*
X3802Y3481D02*
X3849Y3481D01*
X697Y3480D02*
X706Y3480D01*
X765Y3480D02*
X774Y3480D01*
X3802Y3480D02*
X3849Y3480D01*
X697Y3479D02*
X707Y3479D01*
X764Y3479D02*
X774Y3479D01*
X3802Y3479D02*
X3849Y3479D01*
X698Y3478D02*
X708Y3478D01*
X763Y3478D02*
X774Y3478D01*
X3802Y3478D02*
X3849Y3478D01*
X698Y3477D02*
X710Y3477D01*
X761Y3477D02*
X774Y3477D01*
X3802Y3477D02*
X3849Y3477D01*
X698Y3476D02*
X712Y3476D01*
X759Y3476D02*
X773Y3476D01*
X3802Y3476D02*
X3849Y3476D01*
X699Y3475D02*
X714Y3475D01*
X757Y3475D02*
X773Y3475D01*
X3802Y3475D02*
X3849Y3475D01*
X699Y3474D02*
X716Y3474D01*
X755Y3474D02*
X772Y3474D01*
X3802Y3474D02*
X3849Y3474D01*
X700Y3473D02*
X718Y3473D01*
X753Y3473D02*
X772Y3473D01*
X3802Y3473D02*
X3849Y3473D01*
X701Y3472D02*
X720Y3472D01*
X751Y3472D02*
X771Y3472D01*
X3802Y3472D02*
X3849Y3472D01*
X702Y3471D02*
X722Y3471D01*
X749Y3471D02*
X770Y3471D01*
X3802Y3471D02*
X3849Y3471D01*
X703Y3470D02*
X724Y3470D01*
X747Y3470D02*
X768Y3470D01*
X3802Y3470D02*
X3849Y3470D01*
X705Y3469D02*
X726Y3469D01*
X745Y3469D02*
X767Y3469D01*
X3802Y3469D02*
X3849Y3469D01*
X707Y3468D02*
X728Y3468D01*
X743Y3468D02*
X765Y3468D01*
X3802Y3468D02*
X3849Y3468D01*
X709Y3467D02*
X730Y3467D01*
X741Y3467D02*
X763Y3467D01*
X3802Y3467D02*
X3849Y3467D01*
X711Y3466D02*
X761Y3466D01*
X3802Y3466D02*
X3849Y3466D01*
X713Y3465D02*
X759Y3465D01*
X3802Y3465D02*
X3849Y3465D01*
X715Y3464D02*
X757Y3464D01*
X3802Y3464D02*
X3849Y3464D01*
X717Y3463D02*
X755Y3463D01*
X3802Y3463D02*
X3849Y3463D01*
X719Y3462D02*
X753Y3462D01*
X3802Y3462D02*
X3849Y3462D01*
X721Y3461D02*
X751Y3461D01*
X3802Y3461D02*
X3849Y3461D01*
X723Y3460D02*
X749Y3460D01*
X3802Y3460D02*
X3849Y3460D01*
X725Y3459D02*
X747Y3459D01*
X3802Y3459D02*
X3849Y3459D01*
X727Y3458D02*
X745Y3458D01*
X3802Y3458D02*
X3849Y3458D01*
X729Y3457D02*
X742Y3457D01*
X3802Y3457D02*
X3849Y3457D01*
X735Y3456D02*
X736Y3456D01*
X3802Y3456D02*
X3849Y3456D01*
X3802Y3455D02*
X3849Y3455D01*
X3802Y3454D02*
X3849Y3454D01*
X3802Y3453D02*
X3849Y3453D01*
X3802Y3452D02*
X3849Y3452D01*
X3802Y3451D02*
X3849Y3451D01*
X3802Y3450D02*
X3849Y3450D01*
X3802Y3449D02*
X3849Y3449D01*
X3802Y3448D02*
X3849Y3448D01*
X3802Y3447D02*
X3849Y3447D01*
X3802Y3446D02*
X3849Y3446D01*
X3802Y3445D02*
X3849Y3445D01*
X3802Y3444D02*
X3849Y3444D01*
X3802Y3443D02*
X3849Y3443D01*
X3802Y3442D02*
X3849Y3442D01*
X3802Y3441D02*
X3849Y3441D01*
X3802Y3440D02*
X3849Y3440D01*
X3802Y3439D02*
X3849Y3439D01*
X3802Y3438D02*
X3849Y3438D01*
X3802Y3437D02*
X3849Y3437D01*
X3802Y3436D02*
X3849Y3436D01*
X3802Y3435D02*
X3849Y3435D01*
X3802Y3434D02*
X3849Y3434D01*
X708Y3433D02*
X772Y3433D01*
X3802Y3433D02*
X3849Y3433D01*
X706Y3432D02*
X773Y3432D01*
X3802Y3432D02*
X3849Y3432D01*
X705Y3431D02*
X774Y3431D01*
X3802Y3431D02*
X3849Y3431D01*
X703Y3430D02*
X774Y3430D01*
X3802Y3430D02*
X3849Y3430D01*
X701Y3429D02*
X774Y3429D01*
X3802Y3429D02*
X3849Y3429D01*
X700Y3428D02*
X774Y3428D01*
X3802Y3428D02*
X3849Y3428D01*
X699Y3427D02*
X774Y3427D01*
X3802Y3427D02*
X3849Y3427D01*
X698Y3426D02*
X773Y3426D01*
X3802Y3426D02*
X3849Y3426D01*
X697Y3425D02*
X773Y3425D01*
X3802Y3425D02*
X3849Y3425D01*
X697Y3424D02*
X771Y3424D01*
X3802Y3424D02*
X3849Y3424D01*
X697Y3423D02*
X710Y3423D01*
X3802Y3423D02*
X3849Y3423D01*
X697Y3422D02*
X708Y3422D01*
X3802Y3422D02*
X3849Y3422D01*
X697Y3421D02*
X707Y3421D01*
X3802Y3421D02*
X3849Y3421D01*
X697Y3420D02*
X706Y3420D01*
X3802Y3420D02*
X3849Y3420D01*
X697Y3419D02*
X706Y3419D01*
X3802Y3419D02*
X3849Y3419D01*
X697Y3418D02*
X706Y3418D01*
X3802Y3418D02*
X3849Y3418D01*
X697Y3417D02*
X706Y3417D01*
X3802Y3417D02*
X3849Y3417D01*
X697Y3416D02*
X708Y3416D01*
X3802Y3416D02*
X3849Y3416D01*
X697Y3415D02*
X709Y3415D01*
X3802Y3415D02*
X3849Y3415D01*
X697Y3414D02*
X711Y3414D01*
X3802Y3414D02*
X3849Y3414D01*
X697Y3413D02*
X746Y3413D01*
X3802Y3413D02*
X3849Y3413D01*
X698Y3412D02*
X748Y3412D01*
X3802Y3412D02*
X3849Y3412D01*
X698Y3411D02*
X748Y3411D01*
X3802Y3411D02*
X3849Y3411D01*
X699Y3410D02*
X749Y3410D01*
X3802Y3410D02*
X3849Y3410D01*
X700Y3409D02*
X749Y3409D01*
X3802Y3409D02*
X3849Y3409D01*
X700Y3408D02*
X749Y3408D01*
X3802Y3408D02*
X3849Y3408D01*
X699Y3407D02*
X748Y3407D01*
X3802Y3407D02*
X3849Y3407D01*
X698Y3406D02*
X748Y3406D01*
X3802Y3406D02*
X3849Y3406D01*
X697Y3405D02*
X747Y3405D01*
X3802Y3405D02*
X3849Y3405D01*
X697Y3404D02*
X745Y3404D01*
X3802Y3404D02*
X3849Y3404D01*
X697Y3403D02*
X710Y3403D01*
X3802Y3403D02*
X3849Y3403D01*
X697Y3402D02*
X708Y3402D01*
X3802Y3402D02*
X3849Y3402D01*
X697Y3401D02*
X707Y3401D01*
X3802Y3401D02*
X3849Y3401D01*
X697Y3400D02*
X706Y3400D01*
X3802Y3400D02*
X3849Y3400D01*
X697Y3399D02*
X706Y3399D01*
X3802Y3399D02*
X3849Y3399D01*
X697Y3398D02*
X706Y3398D01*
X3802Y3398D02*
X3849Y3398D01*
X697Y3397D02*
X706Y3397D01*
X3802Y3397D02*
X3849Y3397D01*
X697Y3396D02*
X708Y3396D01*
X3802Y3396D02*
X3849Y3396D01*
X697Y3395D02*
X710Y3395D01*
X3802Y3395D02*
X3849Y3395D01*
X697Y3394D02*
X769Y3394D01*
X3802Y3394D02*
X3849Y3394D01*
X697Y3393D02*
X772Y3393D01*
X3802Y3393D02*
X3849Y3393D01*
X698Y3392D02*
X773Y3392D01*
X3802Y3392D02*
X3849Y3392D01*
X698Y3391D02*
X774Y3391D01*
X3802Y3391D02*
X3849Y3391D01*
X699Y3390D02*
X774Y3390D01*
X3802Y3390D02*
X3849Y3390D01*
X701Y3389D02*
X774Y3389D01*
X3802Y3389D02*
X3849Y3389D01*
X702Y3388D02*
X774Y3388D01*
X3802Y3388D02*
X3849Y3388D01*
X704Y3387D02*
X774Y3387D01*
X3802Y3387D02*
X3849Y3387D01*
X706Y3386D02*
X773Y3386D01*
X3802Y3386D02*
X3849Y3386D01*
X708Y3385D02*
X772Y3385D01*
X3802Y3385D02*
X3849Y3385D01*
X710Y3384D02*
X769Y3384D01*
X3802Y3384D02*
X3849Y3384D01*
X3802Y3383D02*
X3849Y3383D01*
X3802Y3382D02*
X3849Y3382D01*
X3802Y3381D02*
X3849Y3381D01*
X3802Y3380D02*
X3849Y3380D01*
X3802Y3379D02*
X3849Y3379D01*
X3802Y3378D02*
X3849Y3378D01*
X3802Y3377D02*
X3849Y3377D01*
X3802Y3376D02*
X3849Y3376D01*
X3802Y3375D02*
X3849Y3375D01*
X3802Y3374D02*
X3849Y3374D01*
X3802Y3373D02*
X3849Y3373D01*
X3802Y3372D02*
X3849Y3372D01*
X3802Y3371D02*
X3849Y3371D01*
X3802Y3370D02*
X3849Y3370D01*
X3802Y3369D02*
X3849Y3369D01*
X3802Y3368D02*
X3849Y3368D01*
X3802Y3367D02*
X3849Y3367D01*
X3802Y3366D02*
X3849Y3366D01*
X3802Y3365D02*
X3849Y3365D01*
X3802Y3364D02*
X3849Y3364D01*
X3802Y3363D02*
X3849Y3363D01*
X3802Y3362D02*
X3849Y3362D01*
X705Y3361D02*
X712Y3361D01*
X759Y3361D02*
X765Y3361D01*
X3802Y3361D02*
X3849Y3361D01*
X703Y3360D02*
X714Y3360D01*
X758Y3360D02*
X767Y3360D01*
X3802Y3360D02*
X3849Y3360D01*
X701Y3359D02*
X715Y3359D01*
X757Y3359D02*
X769Y3359D01*
X3802Y3359D02*
X3849Y3359D01*
X700Y3358D02*
X716Y3358D01*
X757Y3358D02*
X770Y3358D01*
X3802Y3358D02*
X3849Y3358D01*
X699Y3357D02*
X718Y3357D01*
X757Y3357D02*
X771Y3357D01*
X3802Y3357D02*
X3849Y3357D01*
X699Y3356D02*
X719Y3356D01*
X757Y3356D02*
X772Y3356D01*
X3802Y3356D02*
X3849Y3356D01*
X698Y3355D02*
X720Y3355D01*
X757Y3355D02*
X772Y3355D01*
X3802Y3355D02*
X3849Y3355D01*
X698Y3354D02*
X721Y3354D01*
X758Y3354D02*
X773Y3354D01*
X3802Y3354D02*
X3849Y3354D01*
X698Y3353D02*
X723Y3353D01*
X758Y3353D02*
X773Y3353D01*
X3802Y3353D02*
X3849Y3353D01*
X697Y3352D02*
X724Y3352D01*
X760Y3352D02*
X774Y3352D01*
X3802Y3352D02*
X3849Y3352D01*
X697Y3351D02*
X707Y3351D01*
X709Y3351D02*
X725Y3351D01*
X764Y3351D02*
X774Y3351D01*
X3802Y3351D02*
X3849Y3351D01*
X697Y3350D02*
X706Y3350D01*
X711Y3350D02*
X727Y3350D01*
X765Y3350D02*
X774Y3350D01*
X3802Y3350D02*
X3849Y3350D01*
X697Y3349D02*
X706Y3349D01*
X712Y3349D02*
X728Y3349D01*
X765Y3349D02*
X774Y3349D01*
X3802Y3349D02*
X3849Y3349D01*
X697Y3348D02*
X706Y3348D01*
X713Y3348D02*
X729Y3348D01*
X765Y3348D02*
X774Y3348D01*
X3802Y3348D02*
X3849Y3348D01*
X697Y3347D02*
X706Y3347D01*
X715Y3347D02*
X730Y3347D01*
X765Y3347D02*
X774Y3347D01*
X3802Y3347D02*
X3849Y3347D01*
X697Y3346D02*
X706Y3346D01*
X716Y3346D02*
X732Y3346D01*
X765Y3346D02*
X774Y3346D01*
X3802Y3346D02*
X3849Y3346D01*
X697Y3345D02*
X706Y3345D01*
X717Y3345D02*
X733Y3345D01*
X765Y3345D02*
X774Y3345D01*
X3802Y3345D02*
X3849Y3345D01*
X697Y3344D02*
X706Y3344D01*
X719Y3344D02*
X734Y3344D01*
X765Y3344D02*
X774Y3344D01*
X3802Y3344D02*
X3848Y3344D01*
X697Y3343D02*
X706Y3343D01*
X720Y3343D02*
X736Y3343D01*
X765Y3343D02*
X774Y3343D01*
X3802Y3343D02*
X3848Y3343D01*
X697Y3342D02*
X706Y3342D01*
X721Y3342D02*
X737Y3342D01*
X765Y3342D02*
X774Y3342D01*
X3802Y3342D02*
X3848Y3342D01*
X697Y3341D02*
X706Y3341D01*
X722Y3341D02*
X738Y3341D01*
X765Y3341D02*
X774Y3341D01*
X3803Y3341D02*
X3848Y3341D01*
X697Y3340D02*
X706Y3340D01*
X724Y3340D02*
X739Y3340D01*
X765Y3340D02*
X774Y3340D01*
X3803Y3340D02*
X3847Y3340D01*
X697Y3339D02*
X706Y3339D01*
X725Y3339D02*
X741Y3339D01*
X765Y3339D02*
X774Y3339D01*
X3803Y3339D02*
X3847Y3339D01*
X697Y3338D02*
X706Y3338D01*
X726Y3338D02*
X742Y3338D01*
X765Y3338D02*
X774Y3338D01*
X3803Y3338D02*
X3847Y3338D01*
X697Y3337D02*
X706Y3337D01*
X728Y3337D02*
X743Y3337D01*
X765Y3337D02*
X774Y3337D01*
X3804Y3337D02*
X3846Y3337D01*
X697Y3336D02*
X706Y3336D01*
X729Y3336D02*
X745Y3336D01*
X765Y3336D02*
X774Y3336D01*
X3804Y3336D02*
X3846Y3336D01*
X697Y3335D02*
X706Y3335D01*
X730Y3335D02*
X746Y3335D01*
X765Y3335D02*
X774Y3335D01*
X3805Y3335D02*
X3845Y3335D01*
X697Y3334D02*
X706Y3334D01*
X731Y3334D02*
X747Y3334D01*
X765Y3334D02*
X774Y3334D01*
X3806Y3334D02*
X3845Y3334D01*
X697Y3333D02*
X706Y3333D01*
X733Y3333D02*
X748Y3333D01*
X765Y3333D02*
X774Y3333D01*
X3806Y3333D02*
X3844Y3333D01*
X697Y3332D02*
X706Y3332D01*
X734Y3332D02*
X750Y3332D01*
X765Y3332D02*
X774Y3332D01*
X3807Y3332D02*
X3843Y3332D01*
X697Y3331D02*
X706Y3331D01*
X735Y3331D02*
X751Y3331D01*
X765Y3331D02*
X774Y3331D01*
X3808Y3331D02*
X3842Y3331D01*
X697Y3330D02*
X706Y3330D01*
X737Y3330D02*
X752Y3330D01*
X765Y3330D02*
X774Y3330D01*
X3809Y3330D02*
X3842Y3330D01*
X697Y3329D02*
X706Y3329D01*
X738Y3329D02*
X754Y3329D01*
X765Y3329D02*
X774Y3329D01*
X3810Y3329D02*
X3840Y3329D01*
X697Y3328D02*
X706Y3328D01*
X739Y3328D02*
X755Y3328D01*
X765Y3328D02*
X774Y3328D01*
X3811Y3328D02*
X3839Y3328D01*
X697Y3327D02*
X706Y3327D01*
X740Y3327D02*
X756Y3327D01*
X765Y3327D02*
X774Y3327D01*
X3813Y3327D02*
X3838Y3327D01*
X697Y3326D02*
X706Y3326D01*
X742Y3326D02*
X757Y3326D01*
X765Y3326D02*
X774Y3326D01*
X3814Y3326D02*
X3836Y3326D01*
X697Y3325D02*
X706Y3325D01*
X743Y3325D02*
X759Y3325D01*
X765Y3325D02*
X774Y3325D01*
X3816Y3325D02*
X3834Y3325D01*
X697Y3324D02*
X707Y3324D01*
X744Y3324D02*
X760Y3324D01*
X765Y3324D02*
X774Y3324D01*
X3819Y3324D02*
X3831Y3324D01*
X697Y3323D02*
X707Y3323D01*
X746Y3323D02*
X761Y3323D01*
X765Y3323D02*
X774Y3323D01*
X698Y3322D02*
X710Y3322D01*
X747Y3322D02*
X774Y3322D01*
X698Y3321D02*
X713Y3321D01*
X748Y3321D02*
X774Y3321D01*
X698Y3320D02*
X714Y3320D01*
X749Y3320D02*
X774Y3320D01*
X699Y3319D02*
X714Y3319D01*
X751Y3319D02*
X773Y3319D01*
X700Y3318D02*
X715Y3318D01*
X752Y3318D02*
X773Y3318D01*
X700Y3317D02*
X715Y3317D01*
X753Y3317D02*
X772Y3317D01*
X701Y3316D02*
X715Y3316D01*
X755Y3316D02*
X772Y3316D01*
X702Y3315D02*
X714Y3315D01*
X756Y3315D02*
X771Y3315D01*
X704Y3314D02*
X714Y3314D01*
X757Y3314D02*
X769Y3314D01*
X706Y3313D02*
X713Y3313D01*
X759Y3313D02*
X768Y3313D01*
X763Y3312D02*
X763Y3312D01*
X734Y3217D02*
X743Y3217D01*
X733Y3216D02*
X745Y3216D01*
X732Y3215D02*
X747Y3215D01*
X731Y3214D02*
X748Y3214D01*
X731Y3213D02*
X749Y3213D01*
X731Y3212D02*
X750Y3212D01*
X732Y3211D02*
X750Y3211D01*
X732Y3210D02*
X751Y3210D01*
X733Y3209D02*
X752Y3209D01*
X735Y3208D02*
X752Y3208D01*
X741Y3207D02*
X752Y3207D01*
X743Y3206D02*
X753Y3206D01*
X743Y3205D02*
X753Y3205D01*
X744Y3204D02*
X753Y3204D01*
X744Y3203D02*
X753Y3203D01*
X744Y3202D02*
X753Y3202D01*
X744Y3201D02*
X753Y3201D01*
X744Y3200D02*
X753Y3200D01*
X744Y3199D02*
X753Y3199D01*
X744Y3198D02*
X753Y3198D01*
X744Y3197D02*
X753Y3197D01*
X744Y3196D02*
X753Y3196D01*
X744Y3195D02*
X753Y3195D01*
X743Y3194D02*
X753Y3194D01*
X742Y3193D02*
X753Y3193D01*
X742Y3192D02*
X753Y3192D01*
X741Y3191D02*
X753Y3191D01*
X740Y3190D02*
X752Y3190D01*
X739Y3189D02*
X751Y3189D01*
X738Y3188D02*
X751Y3188D01*
X737Y3187D02*
X750Y3187D01*
X736Y3186D02*
X749Y3186D01*
X736Y3185D02*
X748Y3185D01*
X735Y3184D02*
X747Y3184D01*
X734Y3183D02*
X746Y3183D01*
X733Y3182D02*
X745Y3182D01*
X732Y3181D02*
X745Y3181D01*
X731Y3180D02*
X744Y3180D01*
X730Y3179D02*
X743Y3179D01*
X702Y3178D02*
X748Y3178D01*
X699Y3177D02*
X751Y3177D01*
X698Y3176D02*
X752Y3176D01*
X698Y3175D02*
X753Y3175D01*
X697Y3174D02*
X753Y3174D01*
X697Y3173D02*
X753Y3173D01*
X697Y3172D02*
X753Y3172D01*
X698Y3171D02*
X753Y3171D01*
X698Y3170D02*
X752Y3170D01*
X699Y3169D02*
X751Y3169D01*
X702Y3168D02*
X748Y3168D01*
X700Y3145D02*
X704Y3145D01*
X721Y3145D02*
X740Y3145D01*
X699Y3144D02*
X705Y3144D01*
X720Y3144D02*
X742Y3144D01*
X698Y3143D02*
X706Y3143D01*
X719Y3143D02*
X744Y3143D01*
X697Y3142D02*
X706Y3142D01*
X719Y3142D02*
X745Y3142D01*
X697Y3141D02*
X706Y3141D01*
X718Y3141D02*
X746Y3141D01*
X697Y3140D02*
X706Y3140D01*
X718Y3140D02*
X747Y3140D01*
X697Y3139D02*
X706Y3139D01*
X718Y3139D02*
X748Y3139D01*
X697Y3138D02*
X706Y3138D01*
X718Y3138D02*
X749Y3138D01*
X697Y3137D02*
X706Y3137D01*
X718Y3137D02*
X749Y3137D01*
X697Y3136D02*
X706Y3136D01*
X718Y3136D02*
X750Y3136D01*
X697Y3135D02*
X706Y3135D01*
X718Y3135D02*
X728Y3135D01*
X738Y3135D02*
X751Y3135D01*
X2345Y3135D02*
X2416Y3135D01*
X697Y3134D02*
X706Y3134D01*
X718Y3134D02*
X728Y3134D01*
X740Y3134D02*
X751Y3134D01*
X2343Y3134D02*
X2418Y3134D01*
X697Y3133D02*
X706Y3133D01*
X718Y3133D02*
X728Y3133D01*
X741Y3133D02*
X752Y3133D01*
X2341Y3133D02*
X2420Y3133D01*
X697Y3132D02*
X706Y3132D01*
X718Y3132D02*
X728Y3132D01*
X742Y3132D02*
X752Y3132D01*
X2340Y3132D02*
X2421Y3132D01*
X697Y3131D02*
X706Y3131D01*
X718Y3131D02*
X728Y3131D01*
X742Y3131D02*
X753Y3131D01*
X2339Y3131D02*
X2422Y3131D01*
X697Y3130D02*
X706Y3130D01*
X718Y3130D02*
X728Y3130D01*
X743Y3130D02*
X753Y3130D01*
X2338Y3130D02*
X2422Y3130D01*
X697Y3129D02*
X706Y3129D01*
X718Y3129D02*
X728Y3129D01*
X744Y3129D02*
X753Y3129D01*
X2338Y3129D02*
X2423Y3129D01*
X697Y3128D02*
X706Y3128D01*
X718Y3128D02*
X728Y3128D01*
X744Y3128D02*
X753Y3128D01*
X2337Y3128D02*
X2423Y3128D01*
X697Y3127D02*
X706Y3127D01*
X718Y3127D02*
X728Y3127D01*
X744Y3127D02*
X753Y3127D01*
X2337Y3127D02*
X2424Y3127D01*
X697Y3126D02*
X706Y3126D01*
X718Y3126D02*
X728Y3126D01*
X744Y3126D02*
X753Y3126D01*
X2337Y3126D02*
X2424Y3126D01*
X697Y3125D02*
X706Y3125D01*
X718Y3125D02*
X728Y3125D01*
X744Y3125D02*
X753Y3125D01*
X2337Y3125D02*
X2424Y3125D01*
X697Y3124D02*
X706Y3124D01*
X718Y3124D02*
X728Y3124D01*
X744Y3124D02*
X753Y3124D01*
X2337Y3124D02*
X2424Y3124D01*
X697Y3123D02*
X706Y3123D01*
X718Y3123D02*
X728Y3123D01*
X744Y3123D02*
X753Y3123D01*
X2337Y3123D02*
X2424Y3123D01*
X697Y3122D02*
X706Y3122D01*
X718Y3122D02*
X728Y3122D01*
X744Y3122D02*
X753Y3122D01*
X2337Y3122D02*
X2424Y3122D01*
X697Y3121D02*
X706Y3121D01*
X718Y3121D02*
X728Y3121D01*
X744Y3121D02*
X753Y3121D01*
X2337Y3121D02*
X2424Y3121D01*
X697Y3120D02*
X706Y3120D01*
X718Y3120D02*
X728Y3120D01*
X744Y3120D02*
X753Y3120D01*
X2337Y3120D02*
X2424Y3120D01*
X697Y3119D02*
X706Y3119D01*
X718Y3119D02*
X728Y3119D01*
X744Y3119D02*
X753Y3119D01*
X2337Y3119D02*
X2423Y3119D01*
X697Y3118D02*
X706Y3118D01*
X718Y3118D02*
X728Y3118D01*
X744Y3118D02*
X753Y3118D01*
X2337Y3118D02*
X2423Y3118D01*
X697Y3117D02*
X706Y3117D01*
X718Y3117D02*
X728Y3117D01*
X744Y3117D02*
X753Y3117D01*
X2337Y3117D02*
X2422Y3117D01*
X697Y3116D02*
X706Y3116D01*
X718Y3116D02*
X728Y3116D01*
X744Y3116D02*
X753Y3116D01*
X2337Y3116D02*
X2421Y3116D01*
X697Y3115D02*
X706Y3115D01*
X718Y3115D02*
X728Y3115D01*
X744Y3115D02*
X753Y3115D01*
X2337Y3115D02*
X2420Y3115D01*
X697Y3114D02*
X706Y3114D01*
X718Y3114D02*
X728Y3114D01*
X744Y3114D02*
X753Y3114D01*
X2337Y3114D02*
X2419Y3114D01*
X697Y3113D02*
X707Y3113D01*
X718Y3113D02*
X728Y3113D01*
X744Y3113D02*
X753Y3113D01*
X2337Y3113D02*
X2418Y3113D01*
X697Y3112D02*
X707Y3112D01*
X718Y3112D02*
X728Y3112D01*
X743Y3112D02*
X753Y3112D01*
X2337Y3112D02*
X2415Y3112D01*
X698Y3111D02*
X708Y3111D01*
X718Y3111D02*
X728Y3111D01*
X742Y3111D02*
X753Y3111D01*
X2337Y3111D02*
X2360Y3111D01*
X698Y3110D02*
X709Y3110D01*
X718Y3110D02*
X728Y3110D01*
X742Y3110D02*
X752Y3110D01*
X2337Y3110D02*
X2360Y3110D01*
X698Y3109D02*
X709Y3109D01*
X718Y3109D02*
X728Y3109D01*
X741Y3109D02*
X752Y3109D01*
X2337Y3109D02*
X2360Y3109D01*
X699Y3108D02*
X710Y3108D01*
X718Y3108D02*
X728Y3108D01*
X740Y3108D02*
X751Y3108D01*
X2337Y3108D02*
X2360Y3108D01*
X699Y3107D02*
X712Y3107D01*
X718Y3107D02*
X728Y3107D01*
X739Y3107D02*
X751Y3107D01*
X2337Y3107D02*
X2360Y3107D01*
X700Y3106D02*
X750Y3106D01*
X2337Y3106D02*
X2360Y3106D01*
X701Y3105D02*
X749Y3105D01*
X2337Y3105D02*
X2360Y3105D01*
X701Y3104D02*
X749Y3104D01*
X2337Y3104D02*
X2360Y3104D01*
X702Y3103D02*
X748Y3103D01*
X841Y3103D02*
X853Y3103D01*
X2337Y3103D02*
X2360Y3103D01*
X703Y3102D02*
X747Y3102D01*
X839Y3102D02*
X880Y3102D01*
X2337Y3102D02*
X2360Y3102D01*
X704Y3101D02*
X746Y3101D01*
X839Y3101D02*
X884Y3101D01*
X2337Y3101D02*
X2360Y3101D01*
X705Y3100D02*
X745Y3100D01*
X838Y3100D02*
X886Y3100D01*
X2337Y3100D02*
X2360Y3100D01*
X706Y3099D02*
X744Y3099D01*
X838Y3099D02*
X887Y3099D01*
X2337Y3099D02*
X2360Y3099D01*
X708Y3098D02*
X742Y3098D01*
X838Y3098D02*
X889Y3098D01*
X2337Y3098D02*
X2360Y3098D01*
X710Y3097D02*
X740Y3097D01*
X838Y3097D02*
X890Y3097D01*
X2337Y3097D02*
X2360Y3097D01*
X716Y3096D02*
X734Y3096D01*
X838Y3096D02*
X890Y3096D01*
X2337Y3096D02*
X2360Y3096D01*
X839Y3095D02*
X891Y3095D01*
X2337Y3095D02*
X2360Y3095D01*
X840Y3094D02*
X892Y3094D01*
X2337Y3094D02*
X2360Y3094D01*
X842Y3093D02*
X892Y3093D01*
X2337Y3093D02*
X2360Y3093D01*
X842Y3092D02*
X853Y3092D01*
X861Y3092D02*
X872Y3092D01*
X878Y3092D02*
X893Y3092D01*
X2337Y3092D02*
X2360Y3092D01*
X841Y3091D02*
X852Y3091D01*
X862Y3091D02*
X872Y3091D01*
X882Y3091D02*
X893Y3091D01*
X2337Y3091D02*
X2360Y3091D01*
X841Y3090D02*
X851Y3090D01*
X862Y3090D02*
X872Y3090D01*
X883Y3090D02*
X893Y3090D01*
X2337Y3090D02*
X2360Y3090D01*
X840Y3089D02*
X851Y3089D01*
X863Y3089D02*
X872Y3089D01*
X884Y3089D02*
X893Y3089D01*
X2337Y3089D02*
X2360Y3089D01*
X840Y3088D02*
X850Y3088D01*
X863Y3088D02*
X872Y3088D01*
X884Y3088D02*
X893Y3088D01*
X2337Y3088D02*
X2360Y3088D01*
X839Y3087D02*
X850Y3087D01*
X863Y3087D02*
X872Y3087D01*
X884Y3087D02*
X893Y3087D01*
X2337Y3087D02*
X2360Y3087D01*
X838Y3086D02*
X849Y3086D01*
X863Y3086D02*
X872Y3086D01*
X884Y3086D02*
X893Y3086D01*
X2337Y3086D02*
X2360Y3086D01*
X838Y3085D02*
X849Y3085D01*
X863Y3085D02*
X872Y3085D01*
X884Y3085D02*
X893Y3085D01*
X2337Y3085D02*
X2360Y3085D01*
X838Y3084D02*
X848Y3084D01*
X863Y3084D02*
X872Y3084D01*
X884Y3084D02*
X893Y3084D01*
X2337Y3084D02*
X2360Y3084D01*
X838Y3083D02*
X847Y3083D01*
X863Y3083D02*
X872Y3083D01*
X884Y3083D02*
X893Y3083D01*
X2337Y3083D02*
X2360Y3083D01*
X838Y3082D02*
X847Y3082D01*
X863Y3082D02*
X872Y3082D01*
X884Y3082D02*
X893Y3082D01*
X2337Y3082D02*
X2360Y3082D01*
X838Y3081D02*
X847Y3081D01*
X863Y3081D02*
X872Y3081D01*
X884Y3081D02*
X893Y3081D01*
X2337Y3081D02*
X2360Y3081D01*
X838Y3080D02*
X847Y3080D01*
X863Y3080D02*
X872Y3080D01*
X884Y3080D02*
X893Y3080D01*
X2337Y3080D02*
X2360Y3080D01*
X838Y3079D02*
X847Y3079D01*
X863Y3079D02*
X872Y3079D01*
X884Y3079D02*
X893Y3079D01*
X2337Y3079D02*
X2360Y3079D01*
X838Y3078D02*
X847Y3078D01*
X863Y3078D02*
X872Y3078D01*
X884Y3078D02*
X893Y3078D01*
X2337Y3078D02*
X2360Y3078D01*
X838Y3077D02*
X847Y3077D01*
X863Y3077D02*
X872Y3077D01*
X884Y3077D02*
X893Y3077D01*
X2337Y3077D02*
X2360Y3077D01*
X838Y3076D02*
X847Y3076D01*
X863Y3076D02*
X872Y3076D01*
X884Y3076D02*
X893Y3076D01*
X2337Y3076D02*
X2360Y3076D01*
X838Y3075D02*
X847Y3075D01*
X863Y3075D02*
X872Y3075D01*
X884Y3075D02*
X893Y3075D01*
X2337Y3075D02*
X2360Y3075D01*
X838Y3074D02*
X847Y3074D01*
X863Y3074D02*
X872Y3074D01*
X884Y3074D02*
X893Y3074D01*
X2337Y3074D02*
X2360Y3074D01*
X700Y3073D02*
X772Y3073D01*
X838Y3073D02*
X847Y3073D01*
X863Y3073D02*
X872Y3073D01*
X884Y3073D02*
X893Y3073D01*
X2337Y3073D02*
X2360Y3073D01*
X699Y3072D02*
X773Y3072D01*
X838Y3072D02*
X847Y3072D01*
X863Y3072D02*
X872Y3072D01*
X884Y3072D02*
X893Y3072D01*
X2337Y3072D02*
X2360Y3072D01*
X698Y3071D02*
X774Y3071D01*
X838Y3071D02*
X847Y3071D01*
X863Y3071D02*
X872Y3071D01*
X884Y3071D02*
X893Y3071D01*
X2337Y3071D02*
X2360Y3071D01*
X697Y3070D02*
X774Y3070D01*
X838Y3070D02*
X847Y3070D01*
X863Y3070D02*
X872Y3070D01*
X884Y3070D02*
X893Y3070D01*
X2337Y3070D02*
X2360Y3070D01*
X697Y3069D02*
X774Y3069D01*
X838Y3069D02*
X847Y3069D01*
X863Y3069D02*
X872Y3069D01*
X884Y3069D02*
X893Y3069D01*
X2337Y3069D02*
X2360Y3069D01*
X697Y3068D02*
X774Y3068D01*
X838Y3068D02*
X847Y3068D01*
X863Y3068D02*
X872Y3068D01*
X884Y3068D02*
X893Y3068D01*
X2337Y3068D02*
X2360Y3068D01*
X698Y3067D02*
X774Y3067D01*
X838Y3067D02*
X847Y3067D01*
X863Y3067D02*
X872Y3067D01*
X885Y3067D02*
X893Y3067D01*
X2337Y3067D02*
X2360Y3067D01*
X698Y3066D02*
X773Y3066D01*
X838Y3066D02*
X848Y3066D01*
X862Y3066D02*
X872Y3066D01*
X885Y3066D02*
X893Y3066D01*
X2337Y3066D02*
X2360Y3066D01*
X699Y3065D02*
X772Y3065D01*
X838Y3065D02*
X848Y3065D01*
X861Y3065D02*
X872Y3065D01*
X886Y3065D02*
X892Y3065D01*
X2337Y3065D02*
X2360Y3065D01*
X701Y3064D02*
X771Y3064D01*
X838Y3064D02*
X850Y3064D01*
X860Y3064D02*
X871Y3064D01*
X887Y3064D02*
X890Y3064D01*
X2337Y3064D02*
X2360Y3064D01*
X703Y3063D02*
X716Y3063D01*
X734Y3063D02*
X747Y3063D01*
X839Y3063D02*
X871Y3063D01*
X2337Y3063D02*
X2360Y3063D01*
X702Y3062D02*
X715Y3062D01*
X735Y3062D02*
X748Y3062D01*
X839Y3062D02*
X871Y3062D01*
X2337Y3062D02*
X2360Y3062D01*
X702Y3061D02*
X714Y3061D01*
X736Y3061D02*
X748Y3061D01*
X840Y3061D02*
X870Y3061D01*
X2337Y3061D02*
X2360Y3061D01*
X701Y3060D02*
X713Y3060D01*
X737Y3060D02*
X749Y3060D01*
X840Y3060D02*
X870Y3060D01*
X2337Y3060D02*
X2360Y3060D01*
X700Y3059D02*
X712Y3059D01*
X738Y3059D02*
X750Y3059D01*
X841Y3059D02*
X869Y3059D01*
X2337Y3059D02*
X2360Y3059D01*
X699Y3058D02*
X712Y3058D01*
X739Y3058D02*
X751Y3058D01*
X842Y3058D02*
X868Y3058D01*
X2337Y3058D02*
X2360Y3058D01*
X699Y3057D02*
X711Y3057D01*
X740Y3057D02*
X751Y3057D01*
X843Y3057D02*
X867Y3057D01*
X2337Y3057D02*
X2360Y3057D01*
X698Y3056D02*
X710Y3056D01*
X740Y3056D02*
X752Y3056D01*
X845Y3056D02*
X865Y3056D01*
X2337Y3056D02*
X2360Y3056D01*
X698Y3055D02*
X709Y3055D01*
X741Y3055D02*
X752Y3055D01*
X846Y3055D02*
X864Y3055D01*
X2337Y3055D02*
X2360Y3055D01*
X698Y3054D02*
X708Y3054D01*
X742Y3054D02*
X752Y3054D01*
X849Y3054D02*
X861Y3054D01*
X2337Y3054D02*
X2360Y3054D01*
X698Y3053D02*
X707Y3053D01*
X743Y3053D02*
X753Y3053D01*
X2337Y3053D02*
X2360Y3053D01*
X697Y3052D02*
X707Y3052D01*
X744Y3052D02*
X753Y3052D01*
X2337Y3052D02*
X2360Y3052D01*
X697Y3051D02*
X706Y3051D01*
X744Y3051D02*
X753Y3051D01*
X2337Y3051D02*
X2360Y3051D01*
X697Y3050D02*
X706Y3050D01*
X744Y3050D02*
X753Y3050D01*
X2337Y3050D02*
X2360Y3050D01*
X697Y3049D02*
X706Y3049D01*
X744Y3049D02*
X753Y3049D01*
X2337Y3049D02*
X2360Y3049D01*
X697Y3048D02*
X706Y3048D01*
X744Y3048D02*
X753Y3048D01*
X2337Y3048D02*
X2360Y3048D01*
X697Y3047D02*
X706Y3047D01*
X744Y3047D02*
X753Y3047D01*
X2337Y3047D02*
X2360Y3047D01*
X697Y3046D02*
X706Y3046D01*
X744Y3046D02*
X753Y3046D01*
X2337Y3046D02*
X2360Y3046D01*
X697Y3045D02*
X706Y3045D01*
X744Y3045D02*
X753Y3045D01*
X2337Y3045D02*
X2360Y3045D01*
X697Y3044D02*
X706Y3044D01*
X744Y3044D02*
X753Y3044D01*
X2337Y3044D02*
X2360Y3044D01*
X697Y3043D02*
X706Y3043D01*
X744Y3043D02*
X753Y3043D01*
X2337Y3043D02*
X2360Y3043D01*
X697Y3042D02*
X706Y3042D01*
X744Y3042D02*
X753Y3042D01*
X2337Y3042D02*
X2360Y3042D01*
X697Y3041D02*
X707Y3041D01*
X744Y3041D02*
X753Y3041D01*
X2337Y3041D02*
X2360Y3041D01*
X697Y3040D02*
X707Y3040D01*
X743Y3040D02*
X753Y3040D01*
X2337Y3040D02*
X2360Y3040D01*
X698Y3039D02*
X708Y3039D01*
X742Y3039D02*
X753Y3039D01*
X2337Y3039D02*
X2360Y3039D01*
X698Y3038D02*
X709Y3038D01*
X742Y3038D02*
X752Y3038D01*
X2337Y3038D02*
X2360Y3038D01*
X698Y3037D02*
X709Y3037D01*
X741Y3037D02*
X752Y3037D01*
X2337Y3037D02*
X2360Y3037D01*
X699Y3036D02*
X710Y3036D01*
X740Y3036D02*
X751Y3036D01*
X2337Y3036D02*
X2360Y3036D01*
X699Y3035D02*
X712Y3035D01*
X739Y3035D02*
X751Y3035D01*
X2337Y3035D02*
X2360Y3035D01*
X700Y3034D02*
X750Y3034D01*
X2337Y3034D02*
X2360Y3034D01*
X701Y3033D02*
X749Y3033D01*
X2337Y3033D02*
X2360Y3033D01*
X701Y3032D02*
X749Y3032D01*
X2337Y3032D02*
X2360Y3032D01*
X702Y3031D02*
X748Y3031D01*
X841Y3031D02*
X851Y3031D01*
X2337Y3031D02*
X2360Y3031D01*
X703Y3030D02*
X747Y3030D01*
X839Y3030D02*
X880Y3030D01*
X2337Y3030D02*
X2360Y3030D01*
X704Y3029D02*
X746Y3029D01*
X839Y3029D02*
X884Y3029D01*
X2337Y3029D02*
X2360Y3029D01*
X705Y3028D02*
X745Y3028D01*
X838Y3028D02*
X886Y3028D01*
X2337Y3028D02*
X2360Y3028D01*
X706Y3027D02*
X744Y3027D01*
X838Y3027D02*
X888Y3027D01*
X2337Y3027D02*
X2360Y3027D01*
X708Y3026D02*
X742Y3026D01*
X838Y3026D02*
X889Y3026D01*
X2337Y3026D02*
X2360Y3026D01*
X710Y3025D02*
X741Y3025D01*
X838Y3025D02*
X890Y3025D01*
X2337Y3025D02*
X2360Y3025D01*
X838Y3024D02*
X890Y3024D01*
X2337Y3024D02*
X2360Y3024D01*
X839Y3023D02*
X891Y3023D01*
X2337Y3023D02*
X2360Y3023D01*
X840Y3022D02*
X892Y3022D01*
X2337Y3022D02*
X2360Y3022D01*
X851Y3021D02*
X892Y3021D01*
X2337Y3021D02*
X2360Y3021D01*
X879Y3020D02*
X893Y3020D01*
X2337Y3020D02*
X2360Y3020D01*
X882Y3019D02*
X893Y3019D01*
X2337Y3019D02*
X2360Y3019D01*
X883Y3018D02*
X893Y3018D01*
X2337Y3018D02*
X2360Y3018D01*
X884Y3017D02*
X893Y3017D01*
X2337Y3017D02*
X2360Y3017D01*
X884Y3016D02*
X893Y3016D01*
X2337Y3016D02*
X2360Y3016D01*
X884Y3015D02*
X893Y3015D01*
X2337Y3015D02*
X2360Y3015D01*
X884Y3014D02*
X893Y3014D01*
X2337Y3014D02*
X2360Y3014D01*
X884Y3013D02*
X893Y3013D01*
X2337Y3013D02*
X2360Y3013D01*
X884Y3012D02*
X893Y3012D01*
X2337Y3012D02*
X2360Y3012D01*
X884Y3011D02*
X893Y3011D01*
X2337Y3011D02*
X2360Y3011D01*
X884Y3010D02*
X893Y3010D01*
X2337Y3010D02*
X2360Y3010D01*
X884Y3009D02*
X893Y3009D01*
X2337Y3009D02*
X2360Y3009D01*
X884Y3008D02*
X893Y3008D01*
X2337Y3008D02*
X2360Y3008D01*
X884Y3007D02*
X893Y3007D01*
X2337Y3007D02*
X2360Y3007D01*
X883Y3006D02*
X893Y3006D01*
X2337Y3006D02*
X2360Y3006D01*
X882Y3005D02*
X893Y3005D01*
X2337Y3005D02*
X2360Y3005D01*
X882Y3004D02*
X892Y3004D01*
X2337Y3004D02*
X2360Y3004D01*
X881Y3003D02*
X892Y3003D01*
X2337Y3003D02*
X2360Y3003D01*
X880Y3002D02*
X891Y3002D01*
X2337Y3002D02*
X2360Y3002D01*
X700Y3001D02*
X724Y3001D01*
X880Y3001D02*
X891Y3001D01*
X2337Y3001D02*
X2360Y3001D01*
X699Y3000D02*
X742Y3000D01*
X879Y3000D02*
X890Y3000D01*
X2337Y3000D02*
X2360Y3000D01*
X698Y2999D02*
X745Y2999D01*
X879Y2999D02*
X890Y2999D01*
X2337Y2999D02*
X2360Y2999D01*
X697Y2998D02*
X746Y2998D01*
X878Y2998D02*
X889Y2998D01*
X2337Y2998D02*
X2360Y2998D01*
X697Y2997D02*
X748Y2997D01*
X877Y2997D02*
X888Y2997D01*
X2337Y2997D02*
X2360Y2997D01*
X697Y2996D02*
X749Y2996D01*
X877Y2996D02*
X888Y2996D01*
X2337Y2996D02*
X2360Y2996D01*
X698Y2995D02*
X750Y2995D01*
X876Y2995D02*
X887Y2995D01*
X2337Y2995D02*
X2360Y2995D01*
X698Y2994D02*
X750Y2994D01*
X875Y2994D02*
X886Y2994D01*
X2337Y2994D02*
X2360Y2994D01*
X699Y2993D02*
X751Y2993D01*
X875Y2993D02*
X886Y2993D01*
X2337Y2993D02*
X2360Y2993D01*
X701Y2992D02*
X752Y2992D01*
X874Y2992D02*
X885Y2992D01*
X2337Y2992D02*
X2360Y2992D01*
X723Y2991D02*
X752Y2991D01*
X840Y2991D02*
X891Y2991D01*
X2337Y2991D02*
X2360Y2991D01*
X741Y2990D02*
X752Y2990D01*
X839Y2990D02*
X892Y2990D01*
X2337Y2990D02*
X2360Y2990D01*
X742Y2989D02*
X753Y2989D01*
X838Y2989D02*
X893Y2989D01*
X2337Y2989D02*
X2360Y2989D01*
X743Y2988D02*
X753Y2988D01*
X838Y2988D02*
X893Y2988D01*
X2337Y2988D02*
X2360Y2988D01*
X744Y2987D02*
X753Y2987D01*
X838Y2987D02*
X893Y2987D01*
X2337Y2987D02*
X2360Y2987D01*
X744Y2986D02*
X753Y2986D01*
X838Y2986D02*
X893Y2986D01*
X2337Y2986D02*
X2360Y2986D01*
X744Y2985D02*
X753Y2985D01*
X838Y2985D02*
X893Y2985D01*
X2337Y2985D02*
X2360Y2985D01*
X744Y2984D02*
X753Y2984D01*
X838Y2984D02*
X893Y2984D01*
X2337Y2984D02*
X2360Y2984D01*
X744Y2983D02*
X753Y2983D01*
X839Y2983D02*
X892Y2983D01*
X2337Y2983D02*
X2360Y2983D01*
X744Y2982D02*
X753Y2982D01*
X841Y2982D02*
X890Y2982D01*
X2337Y2982D02*
X2360Y2982D01*
X744Y2981D02*
X753Y2981D01*
X2337Y2981D02*
X2360Y2981D01*
X744Y2980D02*
X753Y2980D01*
X2337Y2980D02*
X2360Y2980D01*
X744Y2979D02*
X753Y2979D01*
X2337Y2979D02*
X2360Y2979D01*
X744Y2978D02*
X753Y2978D01*
X2337Y2978D02*
X2360Y2978D01*
X3259Y2978D02*
X3324Y2978D01*
X743Y2977D02*
X753Y2977D01*
X2337Y2977D02*
X2360Y2977D01*
X3254Y2977D02*
X3329Y2977D01*
X742Y2976D02*
X753Y2976D01*
X2337Y2976D02*
X2360Y2976D01*
X3251Y2976D02*
X3332Y2976D01*
X742Y2975D02*
X752Y2975D01*
X2337Y2975D02*
X2360Y2975D01*
X3249Y2975D02*
X3335Y2975D01*
X741Y2974D02*
X752Y2974D01*
X2337Y2974D02*
X2360Y2974D01*
X3247Y2974D02*
X3336Y2974D01*
X740Y2973D02*
X751Y2973D01*
X2337Y2973D02*
X2360Y2973D01*
X3245Y2973D02*
X3338Y2973D01*
X740Y2972D02*
X751Y2972D01*
X2337Y2972D02*
X2360Y2972D01*
X3244Y2972D02*
X3339Y2972D01*
X739Y2971D02*
X750Y2971D01*
X2337Y2971D02*
X2360Y2971D01*
X3243Y2971D02*
X3341Y2971D01*
X738Y2970D02*
X750Y2970D01*
X2337Y2970D02*
X2360Y2970D01*
X3242Y2970D02*
X3342Y2970D01*
X738Y2969D02*
X749Y2969D01*
X2337Y2969D02*
X2360Y2969D01*
X3241Y2969D02*
X3343Y2969D01*
X737Y2968D02*
X748Y2968D01*
X2337Y2968D02*
X2360Y2968D01*
X3240Y2968D02*
X3290Y2968D01*
X3294Y2968D02*
X3344Y2968D01*
X737Y2967D02*
X748Y2967D01*
X2337Y2967D02*
X2360Y2967D01*
X3239Y2967D02*
X3285Y2967D01*
X3299Y2967D02*
X3345Y2967D01*
X736Y2966D02*
X747Y2966D01*
X2337Y2966D02*
X2360Y2966D01*
X3238Y2966D02*
X3282Y2966D01*
X3301Y2966D02*
X3345Y2966D01*
X735Y2965D02*
X746Y2965D01*
X2337Y2965D02*
X2360Y2965D01*
X3237Y2965D02*
X3281Y2965D01*
X3303Y2965D02*
X3346Y2965D01*
X735Y2964D02*
X746Y2964D01*
X2337Y2964D02*
X2360Y2964D01*
X3237Y2964D02*
X3279Y2964D01*
X3304Y2964D02*
X3347Y2964D01*
X734Y2963D02*
X745Y2963D01*
X2337Y2963D02*
X2360Y2963D01*
X3236Y2963D02*
X3278Y2963D01*
X3306Y2963D02*
X3347Y2963D01*
X702Y2962D02*
X749Y2962D01*
X2337Y2962D02*
X2360Y2962D01*
X3236Y2962D02*
X3277Y2962D01*
X3307Y2962D02*
X3348Y2962D01*
X699Y2961D02*
X751Y2961D01*
X2337Y2961D02*
X2360Y2961D01*
X3235Y2961D02*
X3276Y2961D01*
X3307Y2961D02*
X3348Y2961D01*
X698Y2960D02*
X752Y2960D01*
X2337Y2960D02*
X2360Y2960D01*
X3235Y2960D02*
X3275Y2960D01*
X3308Y2960D02*
X3349Y2960D01*
X698Y2959D02*
X753Y2959D01*
X841Y2959D02*
X852Y2959D01*
X2337Y2959D02*
X2360Y2959D01*
X3234Y2959D02*
X3274Y2959D01*
X3309Y2959D02*
X3349Y2959D01*
X697Y2958D02*
X753Y2958D01*
X839Y2958D02*
X880Y2958D01*
X2337Y2958D02*
X2360Y2958D01*
X3234Y2958D02*
X3274Y2958D01*
X3310Y2958D02*
X3350Y2958D01*
X697Y2957D02*
X753Y2957D01*
X839Y2957D02*
X884Y2957D01*
X2337Y2957D02*
X2360Y2957D01*
X3234Y2957D02*
X3273Y2957D01*
X3310Y2957D02*
X3350Y2957D01*
X697Y2956D02*
X753Y2956D01*
X838Y2956D02*
X886Y2956D01*
X2337Y2956D02*
X2360Y2956D01*
X3233Y2956D02*
X3273Y2956D01*
X3311Y2956D02*
X3350Y2956D01*
X698Y2955D02*
X753Y2955D01*
X838Y2955D02*
X888Y2955D01*
X2337Y2955D02*
X2360Y2955D01*
X3233Y2955D02*
X3273Y2955D01*
X3311Y2955D02*
X3350Y2955D01*
X698Y2954D02*
X752Y2954D01*
X838Y2954D02*
X889Y2954D01*
X2337Y2954D02*
X2360Y2954D01*
X3233Y2954D02*
X3272Y2954D01*
X3311Y2954D02*
X3351Y2954D01*
X699Y2953D02*
X751Y2953D01*
X838Y2953D02*
X890Y2953D01*
X2337Y2953D02*
X2360Y2953D01*
X3233Y2953D02*
X3272Y2953D01*
X3312Y2953D02*
X3351Y2953D01*
X838Y2952D02*
X890Y2952D01*
X2337Y2952D02*
X2360Y2952D01*
X3233Y2952D02*
X3272Y2952D01*
X3312Y2952D02*
X3351Y2952D01*
X839Y2951D02*
X891Y2951D01*
X2337Y2951D02*
X2360Y2951D01*
X3232Y2951D02*
X3272Y2951D01*
X3312Y2951D02*
X3351Y2951D01*
X840Y2950D02*
X892Y2950D01*
X2337Y2950D02*
X2360Y2950D01*
X3232Y2950D02*
X3271Y2950D01*
X3312Y2950D02*
X3351Y2950D01*
X852Y2949D02*
X892Y2949D01*
X2337Y2949D02*
X2360Y2949D01*
X3232Y2949D02*
X3271Y2949D01*
X3312Y2949D02*
X3351Y2949D01*
X880Y2948D02*
X893Y2948D01*
X2337Y2948D02*
X2360Y2948D01*
X3232Y2948D02*
X3271Y2948D01*
X3312Y2948D02*
X3351Y2948D01*
X882Y2947D02*
X893Y2947D01*
X2337Y2947D02*
X2360Y2947D01*
X3232Y2947D02*
X3271Y2947D01*
X3312Y2947D02*
X3351Y2947D01*
X883Y2946D02*
X893Y2946D01*
X2337Y2946D02*
X2360Y2946D01*
X3232Y2946D02*
X3271Y2946D01*
X3312Y2946D02*
X3351Y2946D01*
X884Y2945D02*
X893Y2945D01*
X2337Y2945D02*
X2360Y2945D01*
X3232Y2945D02*
X3272Y2945D01*
X3312Y2945D02*
X3351Y2945D01*
X884Y2944D02*
X893Y2944D01*
X2337Y2944D02*
X2360Y2944D01*
X3233Y2944D02*
X3272Y2944D01*
X3312Y2944D02*
X3351Y2944D01*
X884Y2943D02*
X893Y2943D01*
X2337Y2943D02*
X2360Y2943D01*
X3233Y2943D02*
X3272Y2943D01*
X3311Y2943D02*
X3351Y2943D01*
X884Y2942D02*
X893Y2942D01*
X2337Y2942D02*
X2360Y2942D01*
X3233Y2942D02*
X3272Y2942D01*
X3311Y2942D02*
X3351Y2942D01*
X884Y2941D02*
X893Y2941D01*
X2337Y2941D02*
X2360Y2941D01*
X3233Y2941D02*
X3273Y2941D01*
X3311Y2941D02*
X3350Y2941D01*
X884Y2940D02*
X893Y2940D01*
X2337Y2940D02*
X2360Y2940D01*
X3233Y2940D02*
X3273Y2940D01*
X3310Y2940D02*
X3350Y2940D01*
X884Y2939D02*
X893Y2939D01*
X2337Y2939D02*
X2360Y2939D01*
X3234Y2939D02*
X3274Y2939D01*
X3310Y2939D02*
X3350Y2939D01*
X884Y2938D02*
X893Y2938D01*
X2337Y2938D02*
X2360Y2938D01*
X3234Y2938D02*
X3274Y2938D01*
X3309Y2938D02*
X3349Y2938D01*
X884Y2937D02*
X893Y2937D01*
X2337Y2937D02*
X2360Y2937D01*
X3234Y2937D02*
X3275Y2937D01*
X3309Y2937D02*
X3349Y2937D01*
X884Y2936D02*
X893Y2936D01*
X2337Y2936D02*
X2360Y2936D01*
X3235Y2936D02*
X3275Y2936D01*
X3308Y2936D02*
X3349Y2936D01*
X884Y2935D02*
X893Y2935D01*
X2337Y2935D02*
X2360Y2935D01*
X3235Y2935D02*
X3276Y2935D01*
X3307Y2935D02*
X3348Y2935D01*
X883Y2934D02*
X893Y2934D01*
X2337Y2934D02*
X2360Y2934D01*
X3236Y2934D02*
X3277Y2934D01*
X3306Y2934D02*
X3348Y2934D01*
X882Y2933D02*
X893Y2933D01*
X2337Y2933D02*
X2360Y2933D01*
X3236Y2933D02*
X3278Y2933D01*
X3305Y2933D02*
X3347Y2933D01*
X882Y2932D02*
X892Y2932D01*
X2337Y2932D02*
X2360Y2932D01*
X3237Y2932D02*
X3280Y2932D01*
X3304Y2932D02*
X3346Y2932D01*
X881Y2931D02*
X892Y2931D01*
X2337Y2931D02*
X2360Y2931D01*
X3238Y2931D02*
X3281Y2931D01*
X3302Y2931D02*
X3346Y2931D01*
X880Y2930D02*
X891Y2930D01*
X2337Y2930D02*
X2360Y2930D01*
X3238Y2930D02*
X3283Y2930D01*
X3300Y2930D02*
X3345Y2930D01*
X700Y2929D02*
X726Y2929D01*
X880Y2929D02*
X891Y2929D01*
X2337Y2929D02*
X2360Y2929D01*
X3239Y2929D02*
X3286Y2929D01*
X3298Y2929D02*
X3344Y2929D01*
X699Y2928D02*
X742Y2928D01*
X879Y2928D02*
X890Y2928D01*
X2337Y2928D02*
X2360Y2928D01*
X3240Y2928D02*
X3343Y2928D01*
X698Y2927D02*
X745Y2927D01*
X879Y2927D02*
X890Y2927D01*
X2337Y2927D02*
X2360Y2927D01*
X3241Y2927D02*
X3342Y2927D01*
X697Y2926D02*
X746Y2926D01*
X878Y2926D02*
X889Y2926D01*
X2337Y2926D02*
X2360Y2926D01*
X3242Y2926D02*
X3341Y2926D01*
X697Y2925D02*
X748Y2925D01*
X877Y2925D02*
X888Y2925D01*
X2337Y2925D02*
X2360Y2925D01*
X3243Y2925D02*
X3340Y2925D01*
X697Y2924D02*
X749Y2924D01*
X877Y2924D02*
X888Y2924D01*
X2337Y2924D02*
X2360Y2924D01*
X3244Y2924D02*
X3339Y2924D01*
X698Y2923D02*
X750Y2923D01*
X876Y2923D02*
X887Y2923D01*
X2337Y2923D02*
X2360Y2923D01*
X3246Y2923D02*
X3338Y2923D01*
X698Y2922D02*
X750Y2922D01*
X875Y2922D02*
X886Y2922D01*
X2337Y2922D02*
X2360Y2922D01*
X3248Y2922D02*
X3336Y2922D01*
X699Y2921D02*
X751Y2921D01*
X875Y2921D02*
X886Y2921D01*
X2337Y2921D02*
X2360Y2921D01*
X3250Y2921D02*
X3334Y2921D01*
X701Y2920D02*
X752Y2920D01*
X874Y2920D02*
X885Y2920D01*
X2337Y2920D02*
X2360Y2920D01*
X3252Y2920D02*
X3331Y2920D01*
X702Y2919D02*
X713Y2919D01*
X719Y2919D02*
X752Y2919D01*
X840Y2919D02*
X912Y2919D01*
X2337Y2919D02*
X2360Y2919D01*
X3255Y2919D02*
X3328Y2919D01*
X701Y2918D02*
X712Y2918D01*
X721Y2918D02*
X731Y2918D01*
X740Y2918D02*
X752Y2918D01*
X839Y2918D02*
X913Y2918D01*
X2337Y2918D02*
X2360Y2918D01*
X701Y2917D02*
X711Y2917D01*
X722Y2917D02*
X732Y2917D01*
X742Y2917D02*
X753Y2917D01*
X838Y2917D02*
X914Y2917D01*
X2337Y2917D02*
X2360Y2917D01*
X700Y2916D02*
X711Y2916D01*
X722Y2916D02*
X732Y2916D01*
X743Y2916D02*
X753Y2916D01*
X838Y2916D02*
X914Y2916D01*
X2337Y2916D02*
X2360Y2916D01*
X699Y2915D02*
X710Y2915D01*
X723Y2915D02*
X732Y2915D01*
X744Y2915D02*
X753Y2915D01*
X838Y2915D02*
X915Y2915D01*
X2337Y2915D02*
X2360Y2915D01*
X699Y2914D02*
X710Y2914D01*
X723Y2914D02*
X732Y2914D01*
X744Y2914D02*
X753Y2914D01*
X838Y2914D02*
X915Y2914D01*
X2337Y2914D02*
X2360Y2914D01*
X698Y2913D02*
X709Y2913D01*
X723Y2913D02*
X732Y2913D01*
X744Y2913D02*
X753Y2913D01*
X838Y2913D02*
X914Y2913D01*
X2337Y2913D02*
X2360Y2913D01*
X698Y2912D02*
X708Y2912D01*
X723Y2912D02*
X732Y2912D01*
X744Y2912D02*
X753Y2912D01*
X838Y2912D02*
X914Y2912D01*
X2337Y2912D02*
X2360Y2912D01*
X697Y2911D02*
X708Y2911D01*
X723Y2911D02*
X732Y2911D01*
X744Y2911D02*
X753Y2911D01*
X839Y2911D02*
X913Y2911D01*
X2337Y2911D02*
X2360Y2911D01*
X697Y2910D02*
X707Y2910D01*
X723Y2910D02*
X732Y2910D01*
X744Y2910D02*
X753Y2910D01*
X841Y2910D02*
X911Y2910D01*
X2337Y2910D02*
X2360Y2910D01*
X697Y2909D02*
X707Y2909D01*
X723Y2909D02*
X732Y2909D01*
X744Y2909D02*
X753Y2909D01*
X2337Y2909D02*
X2360Y2909D01*
X697Y2908D02*
X706Y2908D01*
X723Y2908D02*
X732Y2908D01*
X744Y2908D02*
X753Y2908D01*
X2337Y2908D02*
X2360Y2908D01*
X697Y2907D02*
X706Y2907D01*
X723Y2907D02*
X732Y2907D01*
X744Y2907D02*
X753Y2907D01*
X2337Y2907D02*
X2360Y2907D01*
X697Y2906D02*
X706Y2906D01*
X723Y2906D02*
X732Y2906D01*
X744Y2906D02*
X753Y2906D01*
X2337Y2906D02*
X2360Y2906D01*
X697Y2905D02*
X706Y2905D01*
X723Y2905D02*
X732Y2905D01*
X744Y2905D02*
X753Y2905D01*
X2337Y2905D02*
X2360Y2905D01*
X697Y2904D02*
X706Y2904D01*
X723Y2904D02*
X732Y2904D01*
X744Y2904D02*
X753Y2904D01*
X2337Y2904D02*
X2360Y2904D01*
X697Y2903D02*
X706Y2903D01*
X723Y2903D02*
X732Y2903D01*
X744Y2903D02*
X753Y2903D01*
X2337Y2903D02*
X2360Y2903D01*
X697Y2902D02*
X706Y2902D01*
X723Y2902D02*
X732Y2902D01*
X744Y2902D02*
X753Y2902D01*
X2337Y2902D02*
X2360Y2902D01*
X697Y2901D02*
X706Y2901D01*
X723Y2901D02*
X732Y2901D01*
X744Y2901D02*
X753Y2901D01*
X2337Y2901D02*
X2360Y2901D01*
X697Y2900D02*
X706Y2900D01*
X723Y2900D02*
X732Y2900D01*
X744Y2900D02*
X753Y2900D01*
X2337Y2900D02*
X2360Y2900D01*
X697Y2899D02*
X706Y2899D01*
X723Y2899D02*
X732Y2899D01*
X744Y2899D02*
X753Y2899D01*
X2337Y2899D02*
X2360Y2899D01*
X697Y2898D02*
X706Y2898D01*
X723Y2898D02*
X732Y2898D01*
X744Y2898D02*
X753Y2898D01*
X2337Y2898D02*
X2360Y2898D01*
X697Y2897D02*
X706Y2897D01*
X723Y2897D02*
X732Y2897D01*
X744Y2897D02*
X753Y2897D01*
X2337Y2897D02*
X2360Y2897D01*
X697Y2896D02*
X706Y2896D01*
X723Y2896D02*
X732Y2896D01*
X744Y2896D02*
X753Y2896D01*
X2337Y2896D02*
X2360Y2896D01*
X697Y2895D02*
X706Y2895D01*
X723Y2895D02*
X732Y2895D01*
X744Y2895D02*
X753Y2895D01*
X2337Y2895D02*
X2360Y2895D01*
X697Y2894D02*
X707Y2894D01*
X723Y2894D02*
X732Y2894D01*
X744Y2894D02*
X753Y2894D01*
X2337Y2894D02*
X2360Y2894D01*
X697Y2893D02*
X707Y2893D01*
X722Y2893D02*
X732Y2893D01*
X744Y2893D02*
X753Y2893D01*
X2337Y2893D02*
X2360Y2893D01*
X698Y2892D02*
X707Y2892D01*
X722Y2892D02*
X732Y2892D01*
X745Y2892D02*
X752Y2892D01*
X2337Y2892D02*
X2360Y2892D01*
X698Y2891D02*
X709Y2891D01*
X720Y2891D02*
X731Y2891D01*
X746Y2891D02*
X751Y2891D01*
X2337Y2891D02*
X2360Y2891D01*
X698Y2890D02*
X731Y2890D01*
X2337Y2890D02*
X2360Y2890D01*
X699Y2889D02*
X731Y2889D01*
X2337Y2889D02*
X2360Y2889D01*
X699Y2888D02*
X730Y2888D01*
X2337Y2888D02*
X2360Y2888D01*
X700Y2887D02*
X729Y2887D01*
X850Y2887D02*
X855Y2887D01*
X2337Y2887D02*
X2360Y2887D01*
X700Y2886D02*
X729Y2886D01*
X847Y2886D02*
X858Y2886D01*
X883Y2886D02*
X886Y2886D01*
X2337Y2886D02*
X2360Y2886D01*
X701Y2885D02*
X728Y2885D01*
X845Y2885D02*
X860Y2885D01*
X882Y2885D02*
X887Y2885D01*
X2337Y2885D02*
X2360Y2885D01*
X702Y2884D02*
X727Y2884D01*
X844Y2884D02*
X861Y2884D01*
X881Y2884D02*
X889Y2884D01*
X2337Y2884D02*
X2360Y2884D01*
X703Y2883D02*
X726Y2883D01*
X842Y2883D02*
X863Y2883D01*
X880Y2883D02*
X890Y2883D01*
X2337Y2883D02*
X2360Y2883D01*
X705Y2882D02*
X724Y2882D01*
X841Y2882D02*
X864Y2882D01*
X880Y2882D02*
X890Y2882D01*
X2337Y2882D02*
X2360Y2882D01*
X707Y2881D02*
X722Y2881D01*
X841Y2881D02*
X864Y2881D01*
X880Y2881D02*
X891Y2881D01*
X2337Y2881D02*
X2360Y2881D01*
X840Y2880D02*
X865Y2880D01*
X880Y2880D02*
X892Y2880D01*
X2337Y2880D02*
X2360Y2880D01*
X839Y2879D02*
X866Y2879D01*
X881Y2879D02*
X892Y2879D01*
X2337Y2879D02*
X2360Y2879D01*
X839Y2878D02*
X866Y2878D01*
X882Y2878D02*
X893Y2878D01*
X2337Y2878D02*
X2360Y2878D01*
X3259Y2878D02*
X3324Y2878D01*
X839Y2877D02*
X867Y2877D01*
X882Y2877D02*
X893Y2877D01*
X2337Y2877D02*
X2360Y2877D01*
X3254Y2877D02*
X3329Y2877D01*
X838Y2876D02*
X849Y2876D01*
X856Y2876D02*
X867Y2876D01*
X883Y2876D02*
X893Y2876D01*
X2337Y2876D02*
X2360Y2876D01*
X3251Y2876D02*
X3332Y2876D01*
X838Y2875D02*
X848Y2875D01*
X857Y2875D02*
X867Y2875D01*
X884Y2875D02*
X893Y2875D01*
X2337Y2875D02*
X2360Y2875D01*
X3249Y2875D02*
X3335Y2875D01*
X838Y2874D02*
X847Y2874D01*
X858Y2874D02*
X868Y2874D01*
X884Y2874D02*
X893Y2874D01*
X2337Y2874D02*
X2360Y2874D01*
X3247Y2874D02*
X3336Y2874D01*
X838Y2873D02*
X847Y2873D01*
X858Y2873D02*
X868Y2873D01*
X884Y2873D02*
X893Y2873D01*
X2337Y2873D02*
X2360Y2873D01*
X3245Y2873D02*
X3338Y2873D01*
X838Y2872D02*
X847Y2872D01*
X859Y2872D02*
X869Y2872D01*
X884Y2872D02*
X893Y2872D01*
X2337Y2872D02*
X2360Y2872D01*
X3244Y2872D02*
X3339Y2872D01*
X838Y2871D02*
X847Y2871D01*
X859Y2871D02*
X869Y2871D01*
X884Y2871D02*
X893Y2871D01*
X2337Y2871D02*
X2360Y2871D01*
X3243Y2871D02*
X3341Y2871D01*
X838Y2870D02*
X847Y2870D01*
X860Y2870D02*
X870Y2870D01*
X884Y2870D02*
X893Y2870D01*
X2337Y2870D02*
X2360Y2870D01*
X3242Y2870D02*
X3342Y2870D01*
X838Y2869D02*
X847Y2869D01*
X860Y2869D02*
X870Y2869D01*
X884Y2869D02*
X893Y2869D01*
X2337Y2869D02*
X2360Y2869D01*
X3241Y2869D02*
X3343Y2869D01*
X838Y2868D02*
X847Y2868D01*
X860Y2868D02*
X870Y2868D01*
X884Y2868D02*
X893Y2868D01*
X2337Y2868D02*
X2360Y2868D01*
X3240Y2868D02*
X3290Y2868D01*
X3294Y2868D02*
X3344Y2868D01*
X838Y2867D02*
X847Y2867D01*
X861Y2867D02*
X871Y2867D01*
X884Y2867D02*
X893Y2867D01*
X2337Y2867D02*
X2360Y2867D01*
X3239Y2867D02*
X3285Y2867D01*
X3299Y2867D02*
X3345Y2867D01*
X838Y2866D02*
X847Y2866D01*
X861Y2866D02*
X871Y2866D01*
X884Y2866D02*
X893Y2866D01*
X2337Y2866D02*
X2360Y2866D01*
X3238Y2866D02*
X3282Y2866D01*
X3301Y2866D02*
X3345Y2866D01*
X838Y2865D02*
X847Y2865D01*
X862Y2865D02*
X872Y2865D01*
X884Y2865D02*
X893Y2865D01*
X2337Y2865D02*
X2360Y2865D01*
X3237Y2865D02*
X3280Y2865D01*
X3303Y2865D02*
X3346Y2865D01*
X838Y2864D02*
X847Y2864D01*
X862Y2864D02*
X872Y2864D01*
X884Y2864D02*
X893Y2864D01*
X2337Y2864D02*
X2360Y2864D01*
X3237Y2864D02*
X3279Y2864D01*
X3304Y2864D02*
X3347Y2864D01*
X838Y2863D02*
X847Y2863D01*
X863Y2863D02*
X873Y2863D01*
X884Y2863D02*
X893Y2863D01*
X2337Y2863D02*
X2360Y2863D01*
X3236Y2863D02*
X3278Y2863D01*
X3306Y2863D02*
X3347Y2863D01*
X838Y2862D02*
X847Y2862D01*
X863Y2862D02*
X873Y2862D01*
X884Y2862D02*
X893Y2862D01*
X2337Y2862D02*
X2360Y2862D01*
X3236Y2862D02*
X3277Y2862D01*
X3307Y2862D02*
X3348Y2862D01*
X838Y2861D02*
X847Y2861D01*
X864Y2861D02*
X873Y2861D01*
X884Y2861D02*
X893Y2861D01*
X2337Y2861D02*
X2360Y2861D01*
X3235Y2861D02*
X3276Y2861D01*
X3307Y2861D02*
X3348Y2861D01*
X838Y2860D02*
X847Y2860D01*
X864Y2860D02*
X874Y2860D01*
X884Y2860D02*
X893Y2860D01*
X2337Y2860D02*
X2360Y2860D01*
X3235Y2860D02*
X3275Y2860D01*
X3308Y2860D02*
X3349Y2860D01*
X838Y2859D02*
X847Y2859D01*
X864Y2859D02*
X874Y2859D01*
X884Y2859D02*
X893Y2859D01*
X2337Y2859D02*
X2360Y2859D01*
X3234Y2859D02*
X3274Y2859D01*
X3309Y2859D02*
X3349Y2859D01*
X700Y2858D02*
X716Y2858D01*
X838Y2858D02*
X847Y2858D01*
X865Y2858D02*
X875Y2858D01*
X884Y2858D02*
X893Y2858D01*
X2337Y2858D02*
X2360Y2858D01*
X3234Y2858D02*
X3274Y2858D01*
X3310Y2858D02*
X3350Y2858D01*
X699Y2857D02*
X742Y2857D01*
X838Y2857D02*
X847Y2857D01*
X865Y2857D02*
X875Y2857D01*
X884Y2857D02*
X893Y2857D01*
X2337Y2857D02*
X2360Y2857D01*
X3234Y2857D02*
X3273Y2857D01*
X3310Y2857D02*
X3350Y2857D01*
X698Y2856D02*
X746Y2856D01*
X838Y2856D02*
X847Y2856D01*
X866Y2856D02*
X876Y2856D01*
X884Y2856D02*
X893Y2856D01*
X2337Y2856D02*
X2360Y2856D01*
X3233Y2856D02*
X3273Y2856D01*
X3311Y2856D02*
X3350Y2856D01*
X698Y2855D02*
X748Y2855D01*
X838Y2855D02*
X847Y2855D01*
X866Y2855D02*
X876Y2855D01*
X884Y2855D02*
X893Y2855D01*
X2337Y2855D02*
X2360Y2855D01*
X3233Y2855D02*
X3272Y2855D01*
X3311Y2855D02*
X3350Y2855D01*
X697Y2854D02*
X749Y2854D01*
X838Y2854D02*
X847Y2854D01*
X867Y2854D02*
X877Y2854D01*
X884Y2854D02*
X893Y2854D01*
X2337Y2854D02*
X2360Y2854D01*
X3233Y2854D02*
X3272Y2854D01*
X3311Y2854D02*
X3351Y2854D01*
X697Y2853D02*
X750Y2853D01*
X838Y2853D02*
X847Y2853D01*
X867Y2853D02*
X877Y2853D01*
X884Y2853D02*
X893Y2853D01*
X2337Y2853D02*
X2360Y2853D01*
X3233Y2853D02*
X3272Y2853D01*
X3312Y2853D02*
X3351Y2853D01*
X698Y2852D02*
X750Y2852D01*
X838Y2852D02*
X847Y2852D01*
X867Y2852D02*
X877Y2852D01*
X884Y2852D02*
X893Y2852D01*
X2337Y2852D02*
X2360Y2852D01*
X3232Y2852D02*
X3272Y2852D01*
X3312Y2852D02*
X3351Y2852D01*
X698Y2851D02*
X751Y2851D01*
X838Y2851D02*
X847Y2851D01*
X868Y2851D02*
X878Y2851D01*
X884Y2851D02*
X893Y2851D01*
X2337Y2851D02*
X2360Y2851D01*
X3232Y2851D02*
X3272Y2851D01*
X3312Y2851D02*
X3351Y2851D01*
X699Y2850D02*
X752Y2850D01*
X838Y2850D02*
X847Y2850D01*
X868Y2850D02*
X878Y2850D01*
X884Y2850D02*
X893Y2850D01*
X2337Y2850D02*
X2360Y2850D01*
X3232Y2850D02*
X3271Y2850D01*
X3312Y2850D02*
X3351Y2850D01*
X700Y2849D02*
X752Y2849D01*
X838Y2849D02*
X848Y2849D01*
X869Y2849D02*
X879Y2849D01*
X882Y2849D02*
X893Y2849D01*
X2337Y2849D02*
X2360Y2849D01*
X3232Y2849D02*
X3271Y2849D01*
X3312Y2849D02*
X3351Y2849D01*
X715Y2848D02*
X752Y2848D01*
X838Y2848D02*
X848Y2848D01*
X869Y2848D02*
X893Y2848D01*
X2337Y2848D02*
X2360Y2848D01*
X3232Y2848D02*
X3271Y2848D01*
X3312Y2848D02*
X3351Y2848D01*
X742Y2847D02*
X753Y2847D01*
X839Y2847D02*
X849Y2847D01*
X870Y2847D02*
X893Y2847D01*
X2337Y2847D02*
X2360Y2847D01*
X3232Y2847D02*
X3271Y2847D01*
X3312Y2847D02*
X3351Y2847D01*
X744Y2846D02*
X753Y2846D01*
X839Y2846D02*
X850Y2846D01*
X870Y2846D02*
X892Y2846D01*
X2337Y2846D02*
X2360Y2846D01*
X3232Y2846D02*
X3271Y2846D01*
X3312Y2846D02*
X3351Y2846D01*
X744Y2845D02*
X753Y2845D01*
X839Y2845D02*
X850Y2845D01*
X871Y2845D02*
X892Y2845D01*
X2337Y2845D02*
X2360Y2845D01*
X3232Y2845D02*
X3272Y2845D01*
X3312Y2845D02*
X3351Y2845D01*
X743Y2844D02*
X753Y2844D01*
X840Y2844D02*
X851Y2844D01*
X871Y2844D02*
X891Y2844D01*
X2337Y2844D02*
X2360Y2844D01*
X3233Y2844D02*
X3272Y2844D01*
X3312Y2844D02*
X3351Y2844D01*
X742Y2843D02*
X753Y2843D01*
X840Y2843D02*
X851Y2843D01*
X872Y2843D02*
X890Y2843D01*
X2337Y2843D02*
X2360Y2843D01*
X3233Y2843D02*
X3272Y2843D01*
X3311Y2843D02*
X3351Y2843D01*
X742Y2842D02*
X752Y2842D01*
X841Y2842D02*
X851Y2842D01*
X873Y2842D02*
X889Y2842D01*
X2337Y2842D02*
X2360Y2842D01*
X3233Y2842D02*
X3272Y2842D01*
X3311Y2842D02*
X3351Y2842D01*
X741Y2841D02*
X752Y2841D01*
X842Y2841D02*
X851Y2841D01*
X875Y2841D02*
X888Y2841D01*
X2337Y2841D02*
X2360Y2841D01*
X3233Y2841D02*
X3273Y2841D01*
X3311Y2841D02*
X3350Y2841D01*
X740Y2840D02*
X752Y2840D01*
X843Y2840D02*
X850Y2840D01*
X876Y2840D02*
X886Y2840D01*
X2337Y2840D02*
X2360Y2840D01*
X3233Y2840D02*
X3273Y2840D01*
X3310Y2840D02*
X3350Y2840D01*
X739Y2839D02*
X751Y2839D01*
X844Y2839D02*
X849Y2839D01*
X880Y2839D02*
X883Y2839D01*
X2337Y2839D02*
X2360Y2839D01*
X3234Y2839D02*
X3274Y2839D01*
X3310Y2839D02*
X3350Y2839D01*
X738Y2838D02*
X750Y2838D01*
X845Y2838D02*
X848Y2838D01*
X2337Y2838D02*
X2360Y2838D01*
X3234Y2838D02*
X3274Y2838D01*
X3309Y2838D02*
X3349Y2838D01*
X700Y2837D02*
X750Y2837D01*
X2337Y2837D02*
X2360Y2837D01*
X3234Y2837D02*
X3275Y2837D01*
X3309Y2837D02*
X3349Y2837D01*
X698Y2836D02*
X749Y2836D01*
X2337Y2836D02*
X2360Y2836D01*
X3235Y2836D02*
X3275Y2836D01*
X3308Y2836D02*
X3349Y2836D01*
X698Y2835D02*
X749Y2835D01*
X2337Y2835D02*
X2360Y2835D01*
X3235Y2835D02*
X3276Y2835D01*
X3307Y2835D02*
X3348Y2835D01*
X697Y2834D02*
X750Y2834D01*
X2337Y2834D02*
X2360Y2834D01*
X3236Y2834D02*
X3277Y2834D01*
X3306Y2834D02*
X3348Y2834D01*
X697Y2833D02*
X751Y2833D01*
X2337Y2833D02*
X2360Y2833D01*
X3236Y2833D02*
X3278Y2833D01*
X3305Y2833D02*
X3347Y2833D01*
X697Y2832D02*
X751Y2832D01*
X2337Y2832D02*
X2360Y2832D01*
X3237Y2832D02*
X3280Y2832D01*
X3304Y2832D02*
X3346Y2832D01*
X698Y2831D02*
X752Y2831D01*
X2337Y2831D02*
X2360Y2831D01*
X3238Y2831D02*
X3281Y2831D01*
X3302Y2831D02*
X3346Y2831D01*
X698Y2830D02*
X752Y2830D01*
X2337Y2830D02*
X2360Y2830D01*
X3238Y2830D02*
X3283Y2830D01*
X3300Y2830D02*
X3345Y2830D01*
X699Y2829D02*
X753Y2829D01*
X2337Y2829D02*
X2360Y2829D01*
X3239Y2829D02*
X3286Y2829D01*
X3298Y2829D02*
X3344Y2829D01*
X702Y2828D02*
X753Y2828D01*
X2337Y2828D02*
X2360Y2828D01*
X3240Y2828D02*
X3343Y2828D01*
X744Y2827D02*
X753Y2827D01*
X2337Y2827D02*
X2360Y2827D01*
X3241Y2827D02*
X3342Y2827D01*
X744Y2826D02*
X753Y2826D01*
X2337Y2826D02*
X2360Y2826D01*
X3242Y2826D02*
X3341Y2826D01*
X744Y2825D02*
X753Y2825D01*
X2337Y2825D02*
X2360Y2825D01*
X3243Y2825D02*
X3340Y2825D01*
X743Y2824D02*
X753Y2824D01*
X2337Y2824D02*
X2360Y2824D01*
X3245Y2824D02*
X3339Y2824D01*
X742Y2823D02*
X753Y2823D01*
X2337Y2823D02*
X2360Y2823D01*
X3246Y2823D02*
X3337Y2823D01*
X741Y2822D02*
X752Y2822D01*
X2337Y2822D02*
X2360Y2822D01*
X3248Y2822D02*
X3336Y2822D01*
X741Y2821D02*
X752Y2821D01*
X2337Y2821D02*
X2360Y2821D01*
X3250Y2821D02*
X3334Y2821D01*
X740Y2820D02*
X752Y2820D01*
X2337Y2820D02*
X2360Y2820D01*
X3252Y2820D02*
X3331Y2820D01*
X739Y2819D02*
X751Y2819D01*
X2337Y2819D02*
X2360Y2819D01*
X3255Y2819D02*
X3328Y2819D01*
X738Y2818D02*
X750Y2818D01*
X2337Y2818D02*
X2360Y2818D01*
X701Y2817D02*
X750Y2817D01*
X2337Y2817D02*
X2360Y2817D01*
X699Y2816D02*
X751Y2816D01*
X2337Y2816D02*
X2360Y2816D01*
X698Y2815D02*
X752Y2815D01*
X2337Y2815D02*
X2360Y2815D01*
X698Y2814D02*
X753Y2814D01*
X2337Y2814D02*
X2360Y2814D01*
X697Y2813D02*
X753Y2813D01*
X2337Y2813D02*
X2360Y2813D01*
X697Y2812D02*
X753Y2812D01*
X2337Y2812D02*
X2360Y2812D01*
X697Y2811D02*
X753Y2811D01*
X2337Y2811D02*
X2360Y2811D01*
X698Y2810D02*
X752Y2810D01*
X841Y2810D02*
X844Y2810D01*
X2337Y2810D02*
X2360Y2810D01*
X699Y2809D02*
X752Y2809D01*
X839Y2809D02*
X845Y2809D01*
X2337Y2809D02*
X2360Y2809D01*
X700Y2808D02*
X750Y2808D01*
X838Y2808D02*
X846Y2808D01*
X2337Y2808D02*
X2360Y2808D01*
X838Y2807D02*
X846Y2807D01*
X2337Y2807D02*
X2360Y2807D01*
X838Y2806D02*
X847Y2806D01*
X2337Y2806D02*
X2360Y2806D01*
X838Y2805D02*
X847Y2805D01*
X2337Y2805D02*
X2360Y2805D01*
X838Y2804D02*
X847Y2804D01*
X2337Y2804D02*
X2360Y2804D01*
X838Y2803D02*
X847Y2803D01*
X2337Y2803D02*
X2360Y2803D01*
X838Y2802D02*
X847Y2802D01*
X2337Y2802D02*
X2360Y2802D01*
X838Y2801D02*
X847Y2801D01*
X2337Y2801D02*
X2360Y2801D01*
X838Y2800D02*
X847Y2800D01*
X2337Y2800D02*
X2360Y2800D01*
X838Y2799D02*
X847Y2799D01*
X2337Y2799D02*
X2360Y2799D01*
X838Y2798D02*
X847Y2798D01*
X2337Y2798D02*
X2360Y2798D01*
X838Y2797D02*
X847Y2797D01*
X2337Y2797D02*
X2360Y2797D01*
X838Y2796D02*
X847Y2796D01*
X2337Y2796D02*
X2360Y2796D01*
X838Y2795D02*
X891Y2795D01*
X908Y2795D02*
X916Y2795D01*
X2337Y2795D02*
X2360Y2795D01*
X838Y2794D02*
X892Y2794D01*
X907Y2794D02*
X917Y2794D01*
X2337Y2794D02*
X2360Y2794D01*
X838Y2793D02*
X893Y2793D01*
X906Y2793D02*
X918Y2793D01*
X2337Y2793D02*
X2360Y2793D01*
X838Y2792D02*
X893Y2792D01*
X906Y2792D02*
X919Y2792D01*
X2337Y2792D02*
X2360Y2792D01*
X838Y2791D02*
X893Y2791D01*
X906Y2791D02*
X919Y2791D01*
X2337Y2791D02*
X2360Y2791D01*
X838Y2790D02*
X893Y2790D01*
X906Y2790D02*
X919Y2790D01*
X2337Y2790D02*
X2360Y2790D01*
X838Y2789D02*
X893Y2789D01*
X906Y2789D02*
X919Y2789D01*
X2337Y2789D02*
X2360Y2789D01*
X838Y2788D02*
X893Y2788D01*
X906Y2788D02*
X919Y2788D01*
X2337Y2788D02*
X2360Y2788D01*
X838Y2787D02*
X893Y2787D01*
X906Y2787D02*
X919Y2787D01*
X2337Y2787D02*
X2360Y2787D01*
X700Y2786D02*
X717Y2786D01*
X838Y2786D02*
X893Y2786D01*
X906Y2786D02*
X919Y2786D01*
X2337Y2786D02*
X2360Y2786D01*
X699Y2785D02*
X742Y2785D01*
X838Y2785D02*
X847Y2785D01*
X884Y2785D02*
X893Y2785D01*
X906Y2785D02*
X919Y2785D01*
X2337Y2785D02*
X2360Y2785D01*
X698Y2784D02*
X746Y2784D01*
X838Y2784D02*
X847Y2784D01*
X884Y2784D02*
X893Y2784D01*
X906Y2784D02*
X919Y2784D01*
X2337Y2784D02*
X2360Y2784D01*
X698Y2783D02*
X748Y2783D01*
X838Y2783D02*
X847Y2783D01*
X884Y2783D02*
X893Y2783D01*
X906Y2783D02*
X918Y2783D01*
X2337Y2783D02*
X2360Y2783D01*
X697Y2782D02*
X749Y2782D01*
X838Y2782D02*
X847Y2782D01*
X884Y2782D02*
X893Y2782D01*
X907Y2782D02*
X917Y2782D01*
X2337Y2782D02*
X2360Y2782D01*
X697Y2781D02*
X750Y2781D01*
X838Y2781D02*
X847Y2781D01*
X884Y2781D02*
X893Y2781D01*
X908Y2781D02*
X916Y2781D01*
X2337Y2781D02*
X2360Y2781D01*
X698Y2780D02*
X750Y2780D01*
X838Y2780D02*
X847Y2780D01*
X884Y2780D02*
X893Y2780D01*
X2337Y2780D02*
X2360Y2780D01*
X698Y2779D02*
X751Y2779D01*
X838Y2779D02*
X847Y2779D01*
X884Y2779D02*
X893Y2779D01*
X2337Y2779D02*
X2360Y2779D01*
X699Y2778D02*
X752Y2778D01*
X838Y2778D02*
X847Y2778D01*
X884Y2778D02*
X893Y2778D01*
X2337Y2778D02*
X2360Y2778D01*
X3259Y2778D02*
X3324Y2778D01*
X700Y2777D02*
X752Y2777D01*
X838Y2777D02*
X847Y2777D01*
X884Y2777D02*
X893Y2777D01*
X2337Y2777D02*
X2360Y2777D01*
X3254Y2777D02*
X3330Y2777D01*
X716Y2776D02*
X752Y2776D01*
X838Y2776D02*
X847Y2776D01*
X884Y2776D02*
X893Y2776D01*
X2337Y2776D02*
X2360Y2776D01*
X3251Y2776D02*
X3332Y2776D01*
X742Y2775D02*
X753Y2775D01*
X838Y2775D02*
X847Y2775D01*
X884Y2775D02*
X893Y2775D01*
X2337Y2775D02*
X2360Y2775D01*
X3249Y2775D02*
X3335Y2775D01*
X744Y2774D02*
X753Y2774D01*
X838Y2774D02*
X846Y2774D01*
X885Y2774D02*
X893Y2774D01*
X2337Y2774D02*
X2360Y2774D01*
X3247Y2774D02*
X3336Y2774D01*
X744Y2773D02*
X753Y2773D01*
X838Y2773D02*
X846Y2773D01*
X885Y2773D02*
X893Y2773D01*
X2337Y2773D02*
X2360Y2773D01*
X3245Y2773D02*
X3338Y2773D01*
X743Y2772D02*
X753Y2772D01*
X839Y2772D02*
X845Y2772D01*
X886Y2772D02*
X892Y2772D01*
X2337Y2772D02*
X2360Y2772D01*
X3244Y2772D02*
X3339Y2772D01*
X742Y2771D02*
X753Y2771D01*
X841Y2771D02*
X844Y2771D01*
X887Y2771D02*
X890Y2771D01*
X2337Y2771D02*
X2360Y2771D01*
X3243Y2771D02*
X3341Y2771D01*
X742Y2770D02*
X752Y2770D01*
X2337Y2770D02*
X2360Y2770D01*
X3242Y2770D02*
X3342Y2770D01*
X741Y2769D02*
X752Y2769D01*
X2337Y2769D02*
X2360Y2769D01*
X3241Y2769D02*
X3343Y2769D01*
X740Y2768D02*
X752Y2768D01*
X2337Y2768D02*
X2360Y2768D01*
X3240Y2768D02*
X3289Y2768D01*
X3294Y2768D02*
X3344Y2768D01*
X739Y2767D02*
X751Y2767D01*
X2337Y2767D02*
X2360Y2767D01*
X3239Y2767D02*
X3285Y2767D01*
X3299Y2767D02*
X3345Y2767D01*
X738Y2766D02*
X750Y2766D01*
X2337Y2766D02*
X2360Y2766D01*
X3238Y2766D02*
X3282Y2766D01*
X3301Y2766D02*
X3345Y2766D01*
X700Y2765D02*
X750Y2765D01*
X2337Y2765D02*
X2360Y2765D01*
X3237Y2765D02*
X3280Y2765D01*
X3303Y2765D02*
X3346Y2765D01*
X698Y2764D02*
X749Y2764D01*
X2337Y2764D02*
X2360Y2764D01*
X3237Y2764D02*
X3279Y2764D01*
X3304Y2764D02*
X3347Y2764D01*
X698Y2763D02*
X749Y2763D01*
X2337Y2763D02*
X2360Y2763D01*
X3236Y2763D02*
X3278Y2763D01*
X3306Y2763D02*
X3347Y2763D01*
X697Y2762D02*
X750Y2762D01*
X2337Y2762D02*
X2360Y2762D01*
X3236Y2762D02*
X3277Y2762D01*
X3307Y2762D02*
X3348Y2762D01*
X697Y2761D02*
X751Y2761D01*
X2337Y2761D02*
X2360Y2761D01*
X3235Y2761D02*
X3276Y2761D01*
X3307Y2761D02*
X3348Y2761D01*
X697Y2760D02*
X751Y2760D01*
X2337Y2760D02*
X2360Y2760D01*
X3235Y2760D02*
X3275Y2760D01*
X3308Y2760D02*
X3349Y2760D01*
X698Y2759D02*
X752Y2759D01*
X2337Y2759D02*
X2360Y2759D01*
X3234Y2759D02*
X3274Y2759D01*
X3309Y2759D02*
X3349Y2759D01*
X698Y2758D02*
X752Y2758D01*
X2337Y2758D02*
X2360Y2758D01*
X3234Y2758D02*
X3274Y2758D01*
X3310Y2758D02*
X3350Y2758D01*
X699Y2757D02*
X753Y2757D01*
X2337Y2757D02*
X2360Y2757D01*
X3234Y2757D02*
X3273Y2757D01*
X3310Y2757D02*
X3350Y2757D01*
X702Y2756D02*
X753Y2756D01*
X2337Y2756D02*
X2360Y2756D01*
X3233Y2756D02*
X3273Y2756D01*
X3311Y2756D02*
X3350Y2756D01*
X744Y2755D02*
X753Y2755D01*
X2337Y2755D02*
X2360Y2755D01*
X3233Y2755D02*
X3272Y2755D01*
X3311Y2755D02*
X3350Y2755D01*
X744Y2754D02*
X753Y2754D01*
X2337Y2754D02*
X2360Y2754D01*
X3233Y2754D02*
X3272Y2754D01*
X3311Y2754D02*
X3351Y2754D01*
X744Y2753D02*
X753Y2753D01*
X2337Y2753D02*
X2360Y2753D01*
X3233Y2753D02*
X3272Y2753D01*
X3312Y2753D02*
X3351Y2753D01*
X743Y2752D02*
X753Y2752D01*
X2337Y2752D02*
X2360Y2752D01*
X3232Y2752D02*
X3272Y2752D01*
X3312Y2752D02*
X3351Y2752D01*
X742Y2751D02*
X753Y2751D01*
X2337Y2751D02*
X2360Y2751D01*
X3232Y2751D02*
X3272Y2751D01*
X3312Y2751D02*
X3351Y2751D01*
X741Y2750D02*
X752Y2750D01*
X2337Y2750D02*
X2360Y2750D01*
X3232Y2750D02*
X3271Y2750D01*
X3312Y2750D02*
X3351Y2750D01*
X741Y2749D02*
X752Y2749D01*
X2337Y2749D02*
X2360Y2749D01*
X3232Y2749D02*
X3271Y2749D01*
X3312Y2749D02*
X3351Y2749D01*
X740Y2748D02*
X751Y2748D01*
X2337Y2748D02*
X2360Y2748D01*
X3232Y2748D02*
X3271Y2748D01*
X3312Y2748D02*
X3351Y2748D01*
X739Y2747D02*
X751Y2747D01*
X2337Y2747D02*
X2360Y2747D01*
X3232Y2747D02*
X3271Y2747D01*
X3312Y2747D02*
X3351Y2747D01*
X738Y2746D02*
X750Y2746D01*
X2337Y2746D02*
X2360Y2746D01*
X3232Y2746D02*
X3271Y2746D01*
X3312Y2746D02*
X3351Y2746D01*
X701Y2745D02*
X750Y2745D01*
X2337Y2745D02*
X2360Y2745D01*
X3232Y2745D02*
X3272Y2745D01*
X3312Y2745D02*
X3351Y2745D01*
X699Y2744D02*
X751Y2744D01*
X2337Y2744D02*
X2360Y2744D01*
X3233Y2744D02*
X3272Y2744D01*
X3312Y2744D02*
X3351Y2744D01*
X698Y2743D02*
X752Y2743D01*
X875Y2743D02*
X882Y2743D01*
X2337Y2743D02*
X2360Y2743D01*
X3233Y2743D02*
X3272Y2743D01*
X3311Y2743D02*
X3351Y2743D01*
X698Y2742D02*
X753Y2742D01*
X873Y2742D02*
X885Y2742D01*
X2337Y2742D02*
X2360Y2742D01*
X3233Y2742D02*
X3272Y2742D01*
X3311Y2742D02*
X3351Y2742D01*
X697Y2741D02*
X753Y2741D01*
X872Y2741D02*
X887Y2741D01*
X2337Y2741D02*
X2360Y2741D01*
X3233Y2741D02*
X3273Y2741D01*
X3311Y2741D02*
X3350Y2741D01*
X697Y2740D02*
X753Y2740D01*
X872Y2740D02*
X888Y2740D01*
X2337Y2740D02*
X2360Y2740D01*
X3233Y2740D02*
X3273Y2740D01*
X3310Y2740D02*
X3350Y2740D01*
X697Y2739D02*
X753Y2739D01*
X872Y2739D02*
X889Y2739D01*
X2337Y2739D02*
X2360Y2739D01*
X3234Y2739D02*
X3274Y2739D01*
X3310Y2739D02*
X3350Y2739D01*
X698Y2738D02*
X752Y2738D01*
X872Y2738D02*
X890Y2738D01*
X2337Y2738D02*
X2360Y2738D01*
X3234Y2738D02*
X3274Y2738D01*
X3309Y2738D02*
X3349Y2738D01*
X699Y2737D02*
X752Y2737D01*
X872Y2737D02*
X891Y2737D01*
X2337Y2737D02*
X2360Y2737D01*
X3234Y2737D02*
X3275Y2737D01*
X3309Y2737D02*
X3349Y2737D01*
X700Y2736D02*
X750Y2736D01*
X872Y2736D02*
X891Y2736D01*
X2337Y2736D02*
X2360Y2736D01*
X3235Y2736D02*
X3275Y2736D01*
X3308Y2736D02*
X3349Y2736D01*
X873Y2735D02*
X892Y2735D01*
X2337Y2735D02*
X2360Y2735D01*
X3235Y2735D02*
X3276Y2735D01*
X3307Y2735D02*
X3348Y2735D01*
X874Y2734D02*
X892Y2734D01*
X2337Y2734D02*
X2360Y2734D01*
X3236Y2734D02*
X3277Y2734D01*
X3306Y2734D02*
X3348Y2734D01*
X881Y2733D02*
X893Y2733D01*
X2337Y2733D02*
X2360Y2733D01*
X3236Y2733D02*
X3278Y2733D01*
X3305Y2733D02*
X3347Y2733D01*
X883Y2732D02*
X893Y2732D01*
X2337Y2732D02*
X2360Y2732D01*
X3237Y2732D02*
X3280Y2732D01*
X3304Y2732D02*
X3346Y2732D01*
X884Y2731D02*
X893Y2731D01*
X2337Y2731D02*
X2360Y2731D01*
X3238Y2731D02*
X3281Y2731D01*
X3302Y2731D02*
X3346Y2731D01*
X884Y2730D02*
X893Y2730D01*
X2337Y2730D02*
X2360Y2730D01*
X3238Y2730D02*
X3283Y2730D01*
X3300Y2730D02*
X3345Y2730D01*
X884Y2729D02*
X893Y2729D01*
X2337Y2729D02*
X2360Y2729D01*
X3239Y2729D02*
X3286Y2729D01*
X3297Y2729D02*
X3344Y2729D01*
X884Y2728D02*
X893Y2728D01*
X2337Y2728D02*
X2360Y2728D01*
X3240Y2728D02*
X3343Y2728D01*
X884Y2727D02*
X893Y2727D01*
X2337Y2727D02*
X2360Y2727D01*
X3241Y2727D02*
X3342Y2727D01*
X884Y2726D02*
X893Y2726D01*
X2337Y2726D02*
X2360Y2726D01*
X3242Y2726D02*
X3341Y2726D01*
X884Y2725D02*
X893Y2725D01*
X2337Y2725D02*
X2360Y2725D01*
X3243Y2725D02*
X3340Y2725D01*
X884Y2724D02*
X893Y2724D01*
X2337Y2724D02*
X2360Y2724D01*
X3245Y2724D02*
X3339Y2724D01*
X884Y2723D02*
X893Y2723D01*
X2337Y2723D02*
X2360Y2723D01*
X3246Y2723D02*
X3337Y2723D01*
X884Y2722D02*
X893Y2722D01*
X2337Y2722D02*
X2360Y2722D01*
X3248Y2722D02*
X3336Y2722D01*
X884Y2721D02*
X893Y2721D01*
X2337Y2721D02*
X2360Y2721D01*
X3250Y2721D02*
X3334Y2721D01*
X884Y2720D02*
X893Y2720D01*
X2337Y2720D02*
X2360Y2720D01*
X3252Y2720D02*
X3331Y2720D01*
X883Y2719D02*
X893Y2719D01*
X2337Y2719D02*
X2360Y2719D01*
X3255Y2719D02*
X3328Y2719D01*
X882Y2718D02*
X893Y2718D01*
X2337Y2718D02*
X2360Y2718D01*
X881Y2717D02*
X893Y2717D01*
X2337Y2717D02*
X2360Y2717D01*
X881Y2716D02*
X893Y2716D01*
X2337Y2716D02*
X2360Y2716D01*
X880Y2715D02*
X892Y2715D01*
X2337Y2715D02*
X2360Y2715D01*
X879Y2714D02*
X891Y2714D01*
X2337Y2714D02*
X2360Y2714D01*
X710Y2713D02*
X740Y2713D01*
X878Y2713D02*
X890Y2713D01*
X2337Y2713D02*
X2360Y2713D01*
X708Y2712D02*
X742Y2712D01*
X877Y2712D02*
X889Y2712D01*
X2337Y2712D02*
X2360Y2712D01*
X707Y2711D02*
X744Y2711D01*
X876Y2711D02*
X889Y2711D01*
X2337Y2711D02*
X2360Y2711D01*
X706Y2710D02*
X745Y2710D01*
X875Y2710D02*
X888Y2710D01*
X2337Y2710D02*
X2360Y2710D01*
X705Y2709D02*
X746Y2709D01*
X875Y2709D02*
X887Y2709D01*
X2337Y2709D02*
X2360Y2709D01*
X704Y2708D02*
X747Y2708D01*
X874Y2708D02*
X886Y2708D01*
X2337Y2708D02*
X2360Y2708D01*
X703Y2707D02*
X748Y2707D01*
X873Y2707D02*
X885Y2707D01*
X2337Y2707D02*
X2360Y2707D01*
X702Y2706D02*
X749Y2706D01*
X872Y2706D02*
X884Y2706D01*
X2337Y2706D02*
X2360Y2706D01*
X701Y2705D02*
X749Y2705D01*
X871Y2705D02*
X883Y2705D01*
X2337Y2705D02*
X2360Y2705D01*
X700Y2704D02*
X750Y2704D01*
X870Y2704D02*
X883Y2704D01*
X2337Y2704D02*
X2360Y2704D01*
X699Y2703D02*
X712Y2703D01*
X739Y2703D02*
X751Y2703D01*
X840Y2703D02*
X891Y2703D01*
X2337Y2703D02*
X2360Y2703D01*
X699Y2702D02*
X711Y2702D01*
X740Y2702D02*
X751Y2702D01*
X839Y2702D02*
X892Y2702D01*
X2337Y2702D02*
X2360Y2702D01*
X698Y2701D02*
X710Y2701D01*
X741Y2701D02*
X752Y2701D01*
X838Y2701D02*
X893Y2701D01*
X2337Y2701D02*
X2360Y2701D01*
X698Y2700D02*
X709Y2700D01*
X742Y2700D02*
X752Y2700D01*
X838Y2700D02*
X893Y2700D01*
X2337Y2700D02*
X2360Y2700D01*
X698Y2699D02*
X708Y2699D01*
X742Y2699D02*
X753Y2699D01*
X838Y2699D02*
X893Y2699D01*
X2337Y2699D02*
X2360Y2699D01*
X698Y2698D02*
X707Y2698D01*
X743Y2698D02*
X753Y2698D01*
X838Y2698D02*
X893Y2698D01*
X2337Y2698D02*
X2360Y2698D01*
X697Y2697D02*
X707Y2697D01*
X744Y2697D02*
X753Y2697D01*
X838Y2697D02*
X893Y2697D01*
X2337Y2697D02*
X2360Y2697D01*
X697Y2696D02*
X706Y2696D01*
X744Y2696D02*
X753Y2696D01*
X839Y2696D02*
X893Y2696D01*
X2337Y2696D02*
X2360Y2696D01*
X697Y2695D02*
X706Y2695D01*
X744Y2695D02*
X753Y2695D01*
X839Y2695D02*
X892Y2695D01*
X2337Y2695D02*
X2360Y2695D01*
X697Y2694D02*
X706Y2694D01*
X744Y2694D02*
X753Y2694D01*
X841Y2694D02*
X890Y2694D01*
X2337Y2694D02*
X2360Y2694D01*
X697Y2693D02*
X706Y2693D01*
X744Y2693D02*
X753Y2693D01*
X2337Y2693D02*
X2360Y2693D01*
X697Y2692D02*
X706Y2692D01*
X744Y2692D02*
X753Y2692D01*
X2337Y2692D02*
X2360Y2692D01*
X697Y2691D02*
X706Y2691D01*
X744Y2691D02*
X753Y2691D01*
X2337Y2691D02*
X2360Y2691D01*
X697Y2690D02*
X706Y2690D01*
X744Y2690D02*
X753Y2690D01*
X2337Y2690D02*
X2360Y2690D01*
X697Y2689D02*
X706Y2689D01*
X744Y2689D02*
X753Y2689D01*
X2337Y2689D02*
X2360Y2689D01*
X697Y2688D02*
X706Y2688D01*
X744Y2688D02*
X753Y2688D01*
X2337Y2688D02*
X2360Y2688D01*
X697Y2687D02*
X706Y2687D01*
X744Y2687D02*
X753Y2687D01*
X2337Y2687D02*
X2360Y2687D01*
X697Y2686D02*
X706Y2686D01*
X744Y2686D02*
X753Y2686D01*
X2337Y2686D02*
X2360Y2686D01*
X697Y2685D02*
X706Y2685D01*
X744Y2685D02*
X753Y2685D01*
X2337Y2685D02*
X2360Y2685D01*
X697Y2684D02*
X706Y2684D01*
X744Y2684D02*
X753Y2684D01*
X2337Y2684D02*
X2360Y2684D01*
X697Y2683D02*
X706Y2683D01*
X744Y2683D02*
X753Y2683D01*
X2337Y2683D02*
X2360Y2683D01*
X697Y2682D02*
X706Y2682D01*
X744Y2682D02*
X753Y2682D01*
X2337Y2682D02*
X2360Y2682D01*
X697Y2681D02*
X707Y2681D01*
X744Y2681D02*
X753Y2681D01*
X2337Y2681D02*
X2360Y2681D01*
X698Y2680D02*
X707Y2680D01*
X743Y2680D02*
X753Y2680D01*
X2337Y2680D02*
X2360Y2680D01*
X698Y2679D02*
X708Y2679D01*
X742Y2679D02*
X753Y2679D01*
X2337Y2679D02*
X2360Y2679D01*
X698Y2678D02*
X709Y2678D01*
X742Y2678D02*
X752Y2678D01*
X2337Y2678D02*
X2360Y2678D01*
X698Y2677D02*
X710Y2677D01*
X741Y2677D02*
X752Y2677D01*
X2337Y2677D02*
X2360Y2677D01*
X699Y2676D02*
X710Y2676D01*
X740Y2676D02*
X751Y2676D01*
X2337Y2676D02*
X2360Y2676D01*
X699Y2675D02*
X712Y2675D01*
X738Y2675D02*
X751Y2675D01*
X2337Y2675D02*
X2360Y2675D01*
X700Y2674D02*
X750Y2674D01*
X2337Y2674D02*
X2360Y2674D01*
X701Y2673D02*
X749Y2673D01*
X2337Y2673D02*
X2360Y2673D01*
X702Y2672D02*
X749Y2672D01*
X2337Y2672D02*
X2360Y2672D01*
X702Y2671D02*
X748Y2671D01*
X841Y2671D02*
X844Y2671D01*
X909Y2671D02*
X912Y2671D01*
X2337Y2671D02*
X2360Y2671D01*
X703Y2670D02*
X747Y2670D01*
X839Y2670D02*
X845Y2670D01*
X907Y2670D02*
X913Y2670D01*
X2337Y2670D02*
X2360Y2670D01*
X704Y2669D02*
X746Y2669D01*
X838Y2669D02*
X846Y2669D01*
X906Y2669D02*
X914Y2669D01*
X2337Y2669D02*
X2360Y2669D01*
X705Y2668D02*
X745Y2668D01*
X838Y2668D02*
X847Y2668D01*
X905Y2668D02*
X914Y2668D01*
X2337Y2668D02*
X2360Y2668D01*
X706Y2667D02*
X744Y2667D01*
X838Y2667D02*
X848Y2667D01*
X904Y2667D02*
X915Y2667D01*
X2337Y2667D02*
X2360Y2667D01*
X708Y2666D02*
X742Y2666D01*
X838Y2666D02*
X849Y2666D01*
X904Y2666D02*
X915Y2666D01*
X2337Y2666D02*
X2360Y2666D01*
X710Y2665D02*
X740Y2665D01*
X838Y2665D02*
X850Y2665D01*
X903Y2665D02*
X914Y2665D01*
X2337Y2665D02*
X2360Y2665D01*
X838Y2664D02*
X850Y2664D01*
X902Y2664D02*
X914Y2664D01*
X2337Y2664D02*
X2360Y2664D01*
X839Y2663D02*
X851Y2663D01*
X901Y2663D02*
X913Y2663D01*
X2337Y2663D02*
X2360Y2663D01*
X840Y2662D02*
X852Y2662D01*
X900Y2662D02*
X913Y2662D01*
X2337Y2662D02*
X2360Y2662D01*
X841Y2661D02*
X853Y2661D01*
X899Y2661D02*
X912Y2661D01*
X2337Y2661D02*
X2360Y2661D01*
X841Y2660D02*
X854Y2660D01*
X898Y2660D02*
X911Y2660D01*
X2337Y2660D02*
X2360Y2660D01*
X842Y2659D02*
X855Y2659D01*
X898Y2659D02*
X910Y2659D01*
X2337Y2659D02*
X2360Y2659D01*
X843Y2658D02*
X856Y2658D01*
X897Y2658D02*
X909Y2658D01*
X2337Y2658D02*
X2360Y2658D01*
X844Y2657D02*
X856Y2657D01*
X896Y2657D02*
X908Y2657D01*
X2337Y2657D02*
X2360Y2657D01*
X845Y2656D02*
X857Y2656D01*
X895Y2656D02*
X907Y2656D01*
X2337Y2656D02*
X2360Y2656D01*
X846Y2655D02*
X858Y2655D01*
X894Y2655D02*
X907Y2655D01*
X2337Y2655D02*
X2360Y2655D01*
X847Y2654D02*
X859Y2654D01*
X893Y2654D02*
X906Y2654D01*
X2337Y2654D02*
X2360Y2654D01*
X847Y2653D02*
X860Y2653D01*
X892Y2653D02*
X905Y2653D01*
X2337Y2653D02*
X2360Y2653D01*
X848Y2652D02*
X861Y2652D01*
X892Y2652D02*
X904Y2652D01*
X2337Y2652D02*
X2360Y2652D01*
X849Y2651D02*
X862Y2651D01*
X891Y2651D02*
X903Y2651D01*
X2337Y2651D02*
X2360Y2651D01*
X850Y2650D02*
X862Y2650D01*
X890Y2650D02*
X902Y2650D01*
X2337Y2650D02*
X2360Y2650D01*
X851Y2649D02*
X863Y2649D01*
X889Y2649D02*
X901Y2649D01*
X2337Y2649D02*
X2360Y2649D01*
X852Y2648D02*
X864Y2648D01*
X888Y2648D02*
X901Y2648D01*
X2337Y2648D02*
X2360Y2648D01*
X853Y2647D02*
X865Y2647D01*
X887Y2647D02*
X900Y2647D01*
X2337Y2647D02*
X2360Y2647D01*
X853Y2646D02*
X866Y2646D01*
X886Y2646D02*
X899Y2646D01*
X2337Y2646D02*
X2359Y2646D01*
X854Y2645D02*
X867Y2645D01*
X886Y2645D02*
X898Y2645D01*
X2337Y2645D02*
X2359Y2645D01*
X855Y2644D02*
X868Y2644D01*
X885Y2644D02*
X897Y2644D01*
X2337Y2644D02*
X2359Y2644D01*
X856Y2643D02*
X868Y2643D01*
X884Y2643D02*
X896Y2643D01*
X2338Y2643D02*
X2359Y2643D01*
X857Y2642D02*
X869Y2642D01*
X883Y2642D02*
X895Y2642D01*
X2338Y2642D02*
X2358Y2642D01*
X700Y2641D02*
X704Y2641D01*
X767Y2641D02*
X772Y2641D01*
X858Y2641D02*
X870Y2641D01*
X882Y2641D02*
X895Y2641D01*
X2339Y2641D02*
X2357Y2641D01*
X698Y2640D02*
X705Y2640D01*
X766Y2640D02*
X773Y2640D01*
X859Y2640D02*
X871Y2640D01*
X881Y2640D02*
X894Y2640D01*
X2340Y2640D02*
X2357Y2640D01*
X698Y2639D02*
X706Y2639D01*
X766Y2639D02*
X774Y2639D01*
X859Y2639D02*
X872Y2639D01*
X881Y2639D02*
X893Y2639D01*
X2341Y2639D02*
X2356Y2639D01*
X697Y2638D02*
X706Y2638D01*
X765Y2638D02*
X774Y2638D01*
X860Y2638D02*
X873Y2638D01*
X880Y2638D02*
X892Y2638D01*
X2342Y2638D02*
X2354Y2638D01*
X697Y2637D02*
X706Y2637D01*
X765Y2637D02*
X774Y2637D01*
X861Y2637D02*
X873Y2637D01*
X879Y2637D02*
X891Y2637D01*
X2344Y2637D02*
X2353Y2637D01*
X697Y2636D02*
X706Y2636D01*
X765Y2636D02*
X774Y2636D01*
X862Y2636D02*
X874Y2636D01*
X878Y2636D02*
X890Y2636D01*
X2347Y2636D02*
X2349Y2636D01*
X697Y2635D02*
X706Y2635D01*
X765Y2635D02*
X774Y2635D01*
X863Y2635D02*
X875Y2635D01*
X877Y2635D02*
X889Y2635D01*
X697Y2634D02*
X706Y2634D01*
X765Y2634D02*
X774Y2634D01*
X864Y2634D02*
X889Y2634D01*
X697Y2633D02*
X706Y2633D01*
X765Y2633D02*
X774Y2633D01*
X865Y2633D02*
X888Y2633D01*
X697Y2632D02*
X706Y2632D01*
X765Y2632D02*
X774Y2632D01*
X865Y2632D02*
X887Y2632D01*
X697Y2631D02*
X706Y2631D01*
X765Y2631D02*
X774Y2631D01*
X840Y2631D02*
X912Y2631D01*
X697Y2630D02*
X706Y2630D01*
X765Y2630D02*
X774Y2630D01*
X839Y2630D02*
X913Y2630D01*
X697Y2629D02*
X706Y2629D01*
X765Y2629D02*
X774Y2629D01*
X838Y2629D02*
X914Y2629D01*
X697Y2628D02*
X706Y2628D01*
X765Y2628D02*
X774Y2628D01*
X838Y2628D02*
X914Y2628D01*
X697Y2627D02*
X706Y2627D01*
X765Y2627D02*
X774Y2627D01*
X838Y2627D02*
X915Y2627D01*
X697Y2626D02*
X706Y2626D01*
X765Y2626D02*
X774Y2626D01*
X838Y2626D02*
X915Y2626D01*
X697Y2625D02*
X706Y2625D01*
X765Y2625D02*
X774Y2625D01*
X838Y2625D02*
X914Y2625D01*
X697Y2624D02*
X706Y2624D01*
X765Y2624D02*
X774Y2624D01*
X839Y2624D02*
X914Y2624D01*
X697Y2623D02*
X706Y2623D01*
X765Y2623D02*
X774Y2623D01*
X839Y2623D02*
X913Y2623D01*
X697Y2622D02*
X706Y2622D01*
X765Y2622D02*
X774Y2622D01*
X841Y2622D02*
X911Y2622D01*
X697Y2621D02*
X706Y2621D01*
X765Y2621D02*
X774Y2621D01*
X697Y2620D02*
X706Y2620D01*
X765Y2620D02*
X774Y2620D01*
X697Y2619D02*
X706Y2619D01*
X765Y2619D02*
X774Y2619D01*
X697Y2618D02*
X706Y2618D01*
X765Y2618D02*
X774Y2618D01*
X697Y2617D02*
X706Y2617D01*
X765Y2617D02*
X774Y2617D01*
X697Y2616D02*
X707Y2616D01*
X765Y2616D02*
X774Y2616D01*
X698Y2615D02*
X708Y2615D01*
X764Y2615D02*
X774Y2615D01*
X698Y2614D02*
X709Y2614D01*
X763Y2614D02*
X774Y2614D01*
X698Y2613D02*
X711Y2613D01*
X761Y2613D02*
X773Y2613D01*
X699Y2612D02*
X713Y2612D01*
X759Y2612D02*
X773Y2612D01*
X699Y2611D02*
X715Y2611D01*
X757Y2611D02*
X772Y2611D01*
X700Y2610D02*
X717Y2610D01*
X755Y2610D02*
X772Y2610D01*
X701Y2609D02*
X719Y2609D01*
X753Y2609D02*
X771Y2609D01*
X701Y2608D02*
X721Y2608D01*
X751Y2608D02*
X770Y2608D01*
X702Y2607D02*
X723Y2607D01*
X749Y2607D02*
X769Y2607D01*
X704Y2606D02*
X725Y2606D01*
X747Y2606D02*
X768Y2606D01*
X705Y2605D02*
X727Y2605D01*
X745Y2605D02*
X767Y2605D01*
X707Y2604D02*
X728Y2604D01*
X743Y2604D02*
X765Y2604D01*
X709Y2603D02*
X731Y2603D01*
X741Y2603D02*
X763Y2603D01*
X711Y2602D02*
X761Y2602D01*
X713Y2601D02*
X759Y2601D01*
X715Y2600D02*
X757Y2600D01*
X717Y2599D02*
X755Y2599D01*
X719Y2598D02*
X753Y2598D01*
X721Y2597D02*
X751Y2597D01*
X723Y2596D02*
X749Y2596D01*
X725Y2595D02*
X747Y2595D01*
X727Y2594D02*
X744Y2594D01*
X730Y2593D02*
X741Y2593D01*
D02*
G04 End of Copper0*
M02*