G04 MADE WITH FRITZING*
G04 WWW.FRITZING.ORG*
G04 DOUBLE SIDED*
G04 HOLES PLATED*
G04 CONTOUR ON CENTER OF CONTOUR VECTOR*
%ASAXBY*%
%FSLAX23Y23*%
%MOIN*%
%OFA0B0*%
%SFA1.0B1.0*%
%ADD10C,0.060000*%
%ADD11C,0.150000*%
%ADD12C,0.083667*%
%ADD13C,0.087119*%
%ADD14C,0.085000*%
%ADD15C,0.067000*%
%ADD16C,0.057559*%
%ADD17C,0.074000*%
%ADD18C,0.072992*%
%ADD19C,0.135984*%
%ADD20C,0.147795*%
%ADD21C,0.088000*%
%ADD22C,0.070000*%
%ADD23C,0.140000*%
%ADD24C,0.092000*%
%ADD25C,0.080000*%
%ADD26C,0.080925*%
%ADD27C,0.080866*%
%ADD28R,0.085000X0.085000*%
%ADD29R,0.072992X0.072992*%
%ADD30R,0.147795X0.147795*%
%ADD31R,0.206850X0.049370*%
%ADD32R,0.001000X0.001000*%
%LNMASK0*%
G90*
G70*
G54D10*
X3145Y3330D03*
X3145Y3232D03*
X3224Y3232D03*
X3066Y3232D03*
X3066Y3330D03*
X3224Y3330D03*
G54D11*
X3586Y3346D03*
X3826Y3346D03*
X3706Y3536D03*
G54D12*
X2161Y1527D03*
X2061Y1527D03*
X2161Y1627D03*
X2061Y1627D03*
X2161Y1727D03*
X2061Y1727D03*
X2161Y1827D03*
X2061Y1827D03*
X2161Y1927D03*
X2061Y1927D03*
G54D13*
X806Y2231D03*
X806Y2126D03*
X806Y2022D03*
X806Y1918D03*
X806Y1814D03*
X806Y1710D03*
X1617Y2126D03*
X1617Y2022D03*
X1617Y1918D03*
X1617Y1814D03*
X1617Y1710D03*
X1617Y1605D03*
G54D14*
X3519Y708D03*
X3263Y708D03*
X3519Y885D03*
X3263Y885D03*
G54D15*
X4001Y1477D03*
X4001Y1556D03*
X911Y633D03*
X990Y633D03*
G54D16*
X1245Y626D03*
X1324Y626D03*
X1403Y626D03*
X1482Y626D03*
G54D17*
X4001Y2365D03*
X4001Y2444D03*
X4001Y2522D03*
X576Y613D03*
X655Y613D03*
X734Y613D03*
G54D14*
X3240Y2226D03*
X3440Y2226D03*
X599Y1233D03*
X399Y1233D03*
X2614Y3123D03*
X2414Y3123D03*
X3676Y2344D03*
X3676Y2044D03*
X2397Y1389D03*
X2397Y711D03*
G54D18*
X3893Y2088D03*
X3893Y1989D03*
G54D14*
X2670Y1871D03*
X2672Y1113D03*
G54D19*
X4267Y150D03*
X143Y150D03*
X4267Y3979D03*
X143Y3979D03*
G54D14*
X2831Y612D03*
X2531Y612D03*
X2831Y712D03*
X2531Y712D03*
X2831Y812D03*
X2531Y812D03*
X2831Y912D03*
X2531Y912D03*
X2831Y1012D03*
X2531Y1012D03*
X2831Y1112D03*
X2531Y1112D03*
X2831Y1212D03*
X2531Y1212D03*
X2831Y1312D03*
X2531Y1312D03*
X2831Y1412D03*
X2531Y1412D03*
X2831Y1512D03*
X2531Y1512D03*
X2831Y1612D03*
X2531Y1612D03*
X2831Y1712D03*
X2531Y1712D03*
X2831Y1812D03*
X2531Y1812D03*
X2831Y1912D03*
X2531Y1912D03*
X1946Y3037D03*
X1946Y2737D03*
X1846Y3037D03*
X1846Y2737D03*
X1746Y3037D03*
X1746Y2737D03*
X1646Y3037D03*
X1646Y2737D03*
X1546Y3037D03*
X1546Y2737D03*
X1446Y3037D03*
X1446Y2737D03*
X1346Y3037D03*
X1346Y2737D03*
X1246Y3037D03*
X1246Y2737D03*
G54D20*
X1587Y3563D03*
X1787Y3563D03*
G54D21*
X3007Y1678D03*
X3007Y1778D03*
X3046Y970D03*
X3046Y1070D03*
X2141Y2834D03*
X2141Y2934D03*
X3046Y715D03*
X3046Y815D03*
X602Y1812D03*
X602Y1912D03*
G54D22*
X3293Y2947D03*
X3293Y2847D03*
X3293Y2747D03*
G54D23*
X3883Y2847D03*
G54D24*
X3234Y3556D03*
X2434Y3556D03*
G54D14*
X2179Y613D03*
X1679Y613D03*
X2179Y731D03*
X1679Y731D03*
X4001Y1213D03*
X3901Y1213D03*
X3801Y1213D03*
X2726Y2531D03*
X2726Y2431D03*
X2726Y2331D03*
G54D25*
X3184Y2560D03*
X3084Y2560D03*
G54D14*
X2869Y2068D03*
X2869Y2468D03*
X2559Y2245D03*
X2559Y2645D03*
X3505Y1920D03*
X3105Y1920D03*
X2427Y2647D03*
X2427Y2247D03*
X3637Y1381D03*
X3637Y1781D03*
X2019Y2267D03*
X1619Y2267D03*
X3373Y552D03*
X3873Y552D03*
G54D25*
X3125Y1603D03*
X3125Y1503D03*
X2969Y1306D03*
X2969Y1206D03*
X3125Y1406D03*
X3125Y1306D03*
G54D26*
X3399Y1602D03*
G54D27*
X3399Y1409D03*
G54D14*
X2417Y3408D03*
X2717Y3408D03*
X1486Y1715D03*
X1386Y1715D03*
X1286Y1715D03*
X1846Y1335D03*
X1846Y1735D03*
G54D25*
X497Y918D03*
X397Y918D03*
X607Y1656D03*
X507Y1656D03*
G54D14*
X2062Y1113D03*
X2062Y1213D03*
G54D28*
X3240Y2226D03*
X599Y1233D03*
X2614Y3123D03*
G54D29*
X3893Y2088D03*
G54D28*
X2831Y612D03*
X1946Y3037D03*
G54D30*
X1587Y3563D03*
G54D31*
X1590Y2914D03*
G54D28*
X2062Y1113D03*
G54D32*
X3259Y2983D02*
X3324Y2983D01*
X3254Y2982D02*
X3330Y2982D01*
X3250Y2981D02*
X3333Y2981D01*
X3248Y2980D02*
X3335Y2980D01*
X3246Y2979D02*
X3338Y2979D01*
X3244Y2978D02*
X3339Y2978D01*
X3243Y2977D02*
X3341Y2977D01*
X3241Y2976D02*
X3342Y2976D01*
X3240Y2975D02*
X3344Y2975D01*
X3239Y2974D02*
X3345Y2974D01*
X3238Y2973D02*
X3346Y2973D01*
X3237Y2972D02*
X3347Y2972D01*
X3236Y2971D02*
X3348Y2971D01*
X3235Y2970D02*
X3349Y2970D01*
X3234Y2969D02*
X3349Y2969D01*
X3233Y2968D02*
X3350Y2968D01*
X3233Y2967D02*
X3351Y2967D01*
X3232Y2966D02*
X3351Y2966D01*
X3232Y2965D02*
X3352Y2965D01*
X3231Y2964D02*
X3352Y2964D01*
X3231Y2963D02*
X3289Y2963D01*
X3294Y2963D02*
X3353Y2963D01*
X3230Y2962D02*
X3285Y2962D01*
X3298Y2962D02*
X3353Y2962D01*
X3230Y2961D02*
X3283Y2961D01*
X3300Y2961D02*
X3354Y2961D01*
X3229Y2960D02*
X3282Y2960D01*
X3301Y2960D02*
X3354Y2960D01*
X3229Y2959D02*
X3281Y2959D01*
X3303Y2959D02*
X3354Y2959D01*
X3229Y2958D02*
X3280Y2958D01*
X3303Y2958D02*
X3355Y2958D01*
X3228Y2957D02*
X3279Y2957D01*
X3304Y2957D02*
X3355Y2957D01*
X3228Y2956D02*
X3278Y2956D01*
X3305Y2956D02*
X3355Y2956D01*
X3228Y2955D02*
X3278Y2955D01*
X3306Y2955D02*
X3355Y2955D01*
X3228Y2954D02*
X3277Y2954D01*
X3306Y2954D02*
X3356Y2954D01*
X3228Y2953D02*
X3277Y2953D01*
X3306Y2953D02*
X3356Y2953D01*
X3227Y2952D02*
X3277Y2952D01*
X3307Y2952D02*
X3356Y2952D01*
X3227Y2951D02*
X3276Y2951D01*
X3307Y2951D02*
X3356Y2951D01*
X3227Y2950D02*
X3276Y2950D01*
X3307Y2950D02*
X3356Y2950D01*
X3227Y2949D02*
X3276Y2949D01*
X3307Y2949D02*
X3356Y2949D01*
X3227Y2948D02*
X3276Y2948D01*
X3307Y2948D02*
X3356Y2948D01*
X3227Y2947D02*
X3276Y2947D01*
X3307Y2947D02*
X3356Y2947D01*
X3227Y2946D02*
X3276Y2946D01*
X3307Y2946D02*
X3356Y2946D01*
X3227Y2945D02*
X3277Y2945D01*
X3307Y2945D02*
X3356Y2945D01*
X3228Y2944D02*
X3277Y2944D01*
X3307Y2944D02*
X3356Y2944D01*
X3228Y2943D02*
X3277Y2943D01*
X3306Y2943D02*
X3356Y2943D01*
X3228Y2942D02*
X3277Y2942D01*
X3306Y2942D02*
X3356Y2942D01*
X3228Y2941D02*
X3278Y2941D01*
X3305Y2941D02*
X3355Y2941D01*
X3228Y2940D02*
X3279Y2940D01*
X3305Y2940D02*
X3355Y2940D01*
X3229Y2939D02*
X3279Y2939D01*
X3304Y2939D02*
X3355Y2939D01*
X3229Y2938D02*
X3280Y2938D01*
X3303Y2938D02*
X3355Y2938D01*
X3229Y2937D02*
X3281Y2937D01*
X3302Y2937D02*
X3354Y2937D01*
X3230Y2936D02*
X3282Y2936D01*
X3301Y2936D02*
X3354Y2936D01*
X3230Y2935D02*
X3284Y2935D01*
X3299Y2935D02*
X3354Y2935D01*
X3230Y2934D02*
X3286Y2934D01*
X3297Y2934D02*
X3353Y2934D01*
X3231Y2933D02*
X3353Y2933D01*
X3231Y2932D02*
X3352Y2932D01*
X3232Y2931D02*
X3352Y2931D01*
X3232Y2930D02*
X3351Y2930D01*
X3233Y2929D02*
X3350Y2929D01*
X3234Y2928D02*
X3350Y2928D01*
X3234Y2927D02*
X3349Y2927D01*
X3235Y2926D02*
X3348Y2926D01*
X3236Y2925D02*
X3347Y2925D01*
X3237Y2924D02*
X3347Y2924D01*
X3238Y2923D02*
X3346Y2923D01*
X3239Y2922D02*
X3344Y2922D01*
X3240Y2921D02*
X3343Y2921D01*
X3242Y2920D02*
X3342Y2920D01*
X3243Y2919D02*
X3340Y2919D01*
X3245Y2918D02*
X3339Y2918D01*
X3247Y2917D02*
X3337Y2917D01*
X3249Y2916D02*
X3335Y2916D01*
X3251Y2915D02*
X3332Y2915D01*
X3255Y2914D02*
X3329Y2914D01*
X3259Y2883D02*
X3324Y2883D01*
X3254Y2882D02*
X3330Y2882D01*
X3250Y2881D02*
X3333Y2881D01*
X3248Y2880D02*
X3336Y2880D01*
X3246Y2879D02*
X3338Y2879D01*
X3244Y2878D02*
X3339Y2878D01*
X3242Y2877D02*
X3341Y2877D01*
X3241Y2876D02*
X3342Y2876D01*
X3240Y2875D02*
X3344Y2875D01*
X3239Y2874D02*
X3345Y2874D01*
X3238Y2873D02*
X3346Y2873D01*
X3237Y2872D02*
X3347Y2872D01*
X3236Y2871D02*
X3348Y2871D01*
X3235Y2870D02*
X3349Y2870D01*
X3234Y2869D02*
X3349Y2869D01*
X3233Y2868D02*
X3350Y2868D01*
X3233Y2867D02*
X3351Y2867D01*
X3232Y2866D02*
X3351Y2866D01*
X3232Y2865D02*
X3352Y2865D01*
X3231Y2864D02*
X3352Y2864D01*
X3231Y2863D02*
X3289Y2863D01*
X3294Y2863D02*
X3353Y2863D01*
X3230Y2862D02*
X3285Y2862D01*
X3298Y2862D02*
X3353Y2862D01*
X3230Y2861D02*
X3283Y2861D01*
X3300Y2861D02*
X3354Y2861D01*
X3229Y2860D02*
X3282Y2860D01*
X3301Y2860D02*
X3354Y2860D01*
X3229Y2859D02*
X3281Y2859D01*
X3303Y2859D02*
X3354Y2859D01*
X3229Y2858D02*
X3280Y2858D01*
X3303Y2858D02*
X3355Y2858D01*
X3228Y2857D02*
X3279Y2857D01*
X3304Y2857D02*
X3355Y2857D01*
X3228Y2856D02*
X3278Y2856D01*
X3305Y2856D02*
X3355Y2856D01*
X3228Y2855D02*
X3278Y2855D01*
X3306Y2855D02*
X3355Y2855D01*
X3228Y2854D02*
X3277Y2854D01*
X3306Y2854D02*
X3356Y2854D01*
X3228Y2853D02*
X3277Y2853D01*
X3306Y2853D02*
X3356Y2853D01*
X3227Y2852D02*
X3277Y2852D01*
X3307Y2852D02*
X3356Y2852D01*
X3227Y2851D02*
X3276Y2851D01*
X3307Y2851D02*
X3356Y2851D01*
X3227Y2850D02*
X3276Y2850D01*
X3307Y2850D02*
X3356Y2850D01*
X3227Y2849D02*
X3276Y2849D01*
X3307Y2849D02*
X3356Y2849D01*
X3227Y2848D02*
X3276Y2848D01*
X3307Y2848D02*
X3356Y2848D01*
X3227Y2847D02*
X3276Y2847D01*
X3307Y2847D02*
X3356Y2847D01*
X3227Y2846D02*
X3276Y2846D01*
X3307Y2846D02*
X3356Y2846D01*
X3227Y2845D02*
X3277Y2845D01*
X3307Y2845D02*
X3356Y2845D01*
X3228Y2844D02*
X3277Y2844D01*
X3307Y2844D02*
X3356Y2844D01*
X3228Y2843D02*
X3277Y2843D01*
X3306Y2843D02*
X3356Y2843D01*
X3228Y2842D02*
X3277Y2842D01*
X3306Y2842D02*
X3356Y2842D01*
X3228Y2841D02*
X3278Y2841D01*
X3305Y2841D02*
X3355Y2841D01*
X3228Y2840D02*
X3279Y2840D01*
X3305Y2840D02*
X3355Y2840D01*
X3229Y2839D02*
X3279Y2839D01*
X3304Y2839D02*
X3355Y2839D01*
X3229Y2838D02*
X3280Y2838D01*
X3303Y2838D02*
X3355Y2838D01*
X3229Y2837D02*
X3281Y2837D01*
X3302Y2837D02*
X3354Y2837D01*
X3230Y2836D02*
X3282Y2836D01*
X3301Y2836D02*
X3354Y2836D01*
X3230Y2835D02*
X3284Y2835D01*
X3299Y2835D02*
X3354Y2835D01*
X3230Y2834D02*
X3286Y2834D01*
X3297Y2834D02*
X3353Y2834D01*
X3231Y2833D02*
X3353Y2833D01*
X3231Y2832D02*
X3352Y2832D01*
X3232Y2831D02*
X3352Y2831D01*
X3232Y2830D02*
X3351Y2830D01*
X3233Y2829D02*
X3350Y2829D01*
X3234Y2828D02*
X3350Y2828D01*
X3234Y2827D02*
X3349Y2827D01*
X3235Y2826D02*
X3348Y2826D01*
X3236Y2825D02*
X3347Y2825D01*
X3237Y2824D02*
X3346Y2824D01*
X3238Y2823D02*
X3345Y2823D01*
X3239Y2822D02*
X3344Y2822D01*
X3240Y2821D02*
X3343Y2821D01*
X3242Y2820D02*
X3342Y2820D01*
X3243Y2819D02*
X3340Y2819D01*
X3245Y2818D02*
X3339Y2818D01*
X3247Y2817D02*
X3337Y2817D01*
X3249Y2816D02*
X3335Y2816D01*
X3251Y2815D02*
X3332Y2815D01*
X3255Y2814D02*
X3328Y2814D01*
X3259Y2783D02*
X3325Y2783D01*
X3254Y2782D02*
X3330Y2782D01*
X3250Y2781D02*
X3333Y2781D01*
X3248Y2780D02*
X3336Y2780D01*
X3246Y2779D02*
X3338Y2779D01*
X3244Y2778D02*
X3339Y2778D01*
X3242Y2777D02*
X3341Y2777D01*
X3241Y2776D02*
X3342Y2776D01*
X3240Y2775D02*
X3344Y2775D01*
X3239Y2774D02*
X3345Y2774D01*
X3238Y2773D02*
X3346Y2773D01*
X3237Y2772D02*
X3347Y2772D01*
X3236Y2771D02*
X3348Y2771D01*
X3235Y2770D02*
X3349Y2770D01*
X3234Y2769D02*
X3349Y2769D01*
X3233Y2768D02*
X3350Y2768D01*
X3233Y2767D02*
X3351Y2767D01*
X3232Y2766D02*
X3351Y2766D01*
X3232Y2765D02*
X3352Y2765D01*
X3231Y2764D02*
X3352Y2764D01*
X3231Y2763D02*
X3289Y2763D01*
X3294Y2763D02*
X3353Y2763D01*
X3230Y2762D02*
X3285Y2762D01*
X3298Y2762D02*
X3353Y2762D01*
X3230Y2761D02*
X3283Y2761D01*
X3300Y2761D02*
X3354Y2761D01*
X3229Y2760D02*
X3282Y2760D01*
X3301Y2760D02*
X3354Y2760D01*
X3229Y2759D02*
X3281Y2759D01*
X3303Y2759D02*
X3354Y2759D01*
X3229Y2758D02*
X3280Y2758D01*
X3303Y2758D02*
X3355Y2758D01*
X3228Y2757D02*
X3279Y2757D01*
X3304Y2757D02*
X3355Y2757D01*
X3228Y2756D02*
X3278Y2756D01*
X3305Y2756D02*
X3355Y2756D01*
X3228Y2755D02*
X3278Y2755D01*
X3306Y2755D02*
X3355Y2755D01*
X3228Y2754D02*
X3277Y2754D01*
X3306Y2754D02*
X3356Y2754D01*
X3228Y2753D02*
X3277Y2753D01*
X3306Y2753D02*
X3356Y2753D01*
X3227Y2752D02*
X3277Y2752D01*
X3307Y2752D02*
X3356Y2752D01*
X3227Y2751D02*
X3276Y2751D01*
X3307Y2751D02*
X3356Y2751D01*
X3227Y2750D02*
X3276Y2750D01*
X3307Y2750D02*
X3356Y2750D01*
X3227Y2749D02*
X3276Y2749D01*
X3307Y2749D02*
X3356Y2749D01*
X3227Y2748D02*
X3276Y2748D01*
X3307Y2748D02*
X3356Y2748D01*
X3227Y2747D02*
X3276Y2747D01*
X3307Y2747D02*
X3356Y2747D01*
X3227Y2746D02*
X3276Y2746D01*
X3307Y2746D02*
X3356Y2746D01*
X3227Y2745D02*
X3277Y2745D01*
X3307Y2745D02*
X3356Y2745D01*
X3228Y2744D02*
X3277Y2744D01*
X3307Y2744D02*
X3356Y2744D01*
X3228Y2743D02*
X3277Y2743D01*
X3306Y2743D02*
X3356Y2743D01*
X3228Y2742D02*
X3278Y2742D01*
X3306Y2742D02*
X3356Y2742D01*
X3228Y2741D02*
X3278Y2741D01*
X3305Y2741D02*
X3355Y2741D01*
X3228Y2740D02*
X3279Y2740D01*
X3305Y2740D02*
X3355Y2740D01*
X3229Y2739D02*
X3279Y2739D01*
X3304Y2739D02*
X3355Y2739D01*
X3229Y2738D02*
X3280Y2738D01*
X3303Y2738D02*
X3355Y2738D01*
X3229Y2737D02*
X3281Y2737D01*
X3302Y2737D02*
X3354Y2737D01*
X3230Y2736D02*
X3283Y2736D01*
X3301Y2736D02*
X3354Y2736D01*
X3230Y2735D02*
X3284Y2735D01*
X3299Y2735D02*
X3354Y2735D01*
X3230Y2734D02*
X3286Y2734D01*
X3297Y2734D02*
X3353Y2734D01*
X3231Y2733D02*
X3353Y2733D01*
X3231Y2732D02*
X3352Y2732D01*
X3232Y2731D02*
X3352Y2731D01*
X3232Y2730D02*
X3351Y2730D01*
X3233Y2729D02*
X3350Y2729D01*
X3234Y2728D02*
X3350Y2728D01*
X3234Y2727D02*
X3349Y2727D01*
X3235Y2726D02*
X3348Y2726D01*
X3236Y2725D02*
X3347Y2725D01*
X3237Y2724D02*
X3346Y2724D01*
X3238Y2723D02*
X3345Y2723D01*
X3239Y2722D02*
X3344Y2722D01*
X3240Y2721D02*
X3343Y2721D01*
X3242Y2720D02*
X3342Y2720D01*
X3243Y2719D02*
X3340Y2719D01*
X3245Y2718D02*
X3339Y2718D01*
X3247Y2717D02*
X3337Y2717D01*
X3249Y2716D02*
X3335Y2716D01*
X3251Y2715D02*
X3332Y2715D01*
X3255Y2714D02*
X3328Y2714D01*
D02*
G04 End of Mask0*
M02*