; NON-PLATED HOLES START AT T1
; THROUGH (PLATED) HOLES START AT T100
M48
INCH
T1C0.130000
T2C0.125984
T100C0.030000
T101C0.040000
T102C0.041686
T103C0.100000
T104C0.035000
T105C0.042000
T106C0.031000
T107C0.031497
T108C0.031496
T109C0.038000
T110C0.027559
T111C0.040333
T112C0.031555
T113C0.059055
%
T1
X038825Y028472
T2
X001430Y001504
X001430Y039791
X042670Y039791
X042670Y001504
T100
X031251Y013059
X003972Y009181
X005072Y016563
X029687Y013059
X030839Y025601
X031251Y014061
X031841Y025601
X004974Y009181
X031251Y016029
X031251Y015027
X029687Y012057
X006074Y016563
T101
X032925Y028472
X032925Y027472
X032925Y029472
T102
X016170Y021264
X008064Y022306
X008064Y019180
X016170Y018138
X008064Y018138
X016170Y020222
X008064Y021264
X016170Y019180
X016170Y016053
X008064Y017096
X008064Y020222
X016170Y017096
T103
X035860Y033462
X037060Y035362
X038260Y033462
T104
X036762Y020436
X027258Y023310
X026135Y031228
X025314Y006122
X019456Y030366
X028691Y020680
X028691Y024680
X012456Y030366
X028314Y009122
X028314Y011122
X025314Y011122
X012456Y027366
X035054Y019201
X021785Y007311
X005989Y012331
X027166Y034082
X028314Y018122
X020194Y022665
X028314Y017122
X039013Y012134
X028314Y015122
X025314Y014122
X034400Y022255
X023968Y013886
X015456Y030366
X016456Y030366
X017456Y030366
X032400Y022255
X021785Y006130
X025592Y026452
X035188Y008846
X036371Y013807
X028314Y010122
X016785Y006130
X025314Y018122
X025314Y012122
X024265Y026468
X018456Y027366
X028314Y006122
X020623Y011134
X016456Y027366
X025314Y010122
X038013Y012134
X025314Y007122
X013456Y030366
X025314Y013122
X016785Y007311
X033731Y005522
X025314Y017122
X036371Y017807
X025314Y016122
X018458Y013350
X028314Y014122
X016194Y022665
X013456Y027366
X015456Y027366
X028314Y008122
X014456Y030366
X003989Y012331
X012855Y017153
X018458Y017350
X026704Y018708
X028314Y016122
X040013Y012134
X025314Y015122
X020623Y012134
X025314Y019122
X025314Y009122
X027258Y024310
X032629Y007075
X038731Y005522
X024265Y022468
X019456Y027366
X035188Y007075
X017456Y027366
X014456Y027366
X032629Y008846
X026723Y011130
X036762Y023436
X013855Y017153
X024135Y031228
X024166Y034082
X028314Y012122
X028314Y013122
X025314Y008122
X031054Y019201
X025592Y022452
X027258Y025310
X014855Y017153
X028314Y019122
X028314Y007122
X018456Y030366
X023970Y007114
T105
X024336Y035559
X032336Y035559
T106
X032237Y032315
X032237Y033295
X031447Y033295
X030657Y033295
X030657Y032315
X031447Y032315
T107
X038928Y019892
X038928Y020877
T108
X033991Y014089
T109
X030070Y017783
X030070Y016783
X021408Y029335
X030464Y010697
X030464Y008153
X006017Y018122
X006017Y019122
X030464Y009697
X021408Y028335
X030464Y007153
T110
X007336Y006130
X009895Y006327
X040013Y023649
X009107Y006327
X006548Y006130
X040011Y014771
X013241Y006257
X005761Y006130
X040011Y015559
X012454Y006257
X040013Y025224
X014029Y006257
X014816Y006257
X040013Y024437
T111
X021607Y017268
X021607Y019268
X020607Y019268
X020607Y016267
X021607Y018268
X020607Y017268
X021607Y016267
X020607Y018268
X020607Y015268
X021607Y015268
T112
X033990Y016020
T113
X015865Y035634
X017865Y035634
T00
M30
